<?xml version="1.0" encoding="UTF-8"?>
<!-- Uploaded to: SVG Find, www.svgrepo.com, Generator: SVG Find Mixer Tools -->
<svg width="800px" height="800px" version="1.1" viewBox="144 144 512 512" xmlns="http://www.w3.org/2000/svg">
 <defs>
  <clipPath id="a">
   <path d="m148.09 350h503.81v229h-503.81z"/>
  </clipPath>
 </defs>
 <g clip-path="url(#a)">
  <path d="m602.03 350.62c-43.832-0.50391-62.977 34.762-61.969 100.76h-280.12c1.0078-65.496-18.137-101.27-61.969-100.76-27.711 0-49.879 22.168-49.879 49.375 0 25.695 19.145 46.855 44.336 49.375 7.0547 29.727 15.617 57.938 26.703 84.641h20.152v39.297c0 3.0234 2.5195 5.543 5.543 5.543h23.68c3.0234 0 5.543-2.5195 5.543-5.543v-39.297h251.91v39.297c0 3.0234 2.5195 5.543 5.543 5.543h23.68c3.0234 0 5.543-2.5195 5.543-5.543v-39.297h20.152c11.082-26.703 19.648-55.418 26.703-84.641 24.688-3.0234 44.336-23.68 44.336-49.375-0.011718-27.207-22.18-49.375-49.887-49.375z"/>
 </g>
 <path d="m276.06 427.71h247.37c2.0156-31.234 10.578-64.992 36.777-82.625 10.578-7.0547 22.672-10.578 35.266-11.586v-77.082c0-19.648-16.121-35.77-35.77-35.77l-319.92-0.003906c-19.648 0-35.77 16.121-35.77 35.77v77.082c12.594 0.50391 24.688 4.0312 35.266 11.586 26.703 17.637 34.766 51.395 36.781 82.629z"/>
</svg>