<svg width="50" height="20" viewBox="0 0 50 20" fill="none" xmlns="http://www.w3.org/2000/svg">
<rect width="50" height="20" rx="4" fill="url(#paint0_linear_1243_8)"/>
<path d="M9.5 2L10.0801 4.29551L12.2364 3.31779L10.8034 5.20252L12.9122 6.27882L10.5452 6.33353L11.0186 8.65339L9.5 6.83688L7.98141 8.65339L8.45478 6.33353L6.08775 6.27882L8.19664 5.20252L6.76359 3.31779L8.91995 4.29551L9.5 2Z" fill="#FFDA03"/>
<path d="M39.5 2L40.0801 4.29551L42.2364 3.31779L40.8034 5.20252L42.9122 6.27882L40.5452 6.33353L41.0186 8.65339L39.5 6.83688L37.9814 8.65339L38.4548 6.33353L36.0878 6.27882L38.1966 5.20252L36.7636 3.31779L38.9199 4.29551L39.5 2Z" fill="#FFDA03"/>
<path d="M9.5 12L10.0801 14.2955L12.2364 13.3178L10.8034 15.2025L12.9122 16.2788L10.5452 16.3335L11.0186 18.6534L9.5 16.8369L7.98141 18.6534L8.45478 16.3335L6.08775 16.2788L8.19664 15.2025L6.76359 13.3178L8.91995 14.2955L9.5 12Z" fill="#FFDA03"/>
<path d="M39.5 12L40.0801 14.2955L42.2364 13.3178L40.8034 15.2025L42.9122 16.2788L40.5452 16.3335L41.0186 18.6534L39.5 16.8369L37.9814 18.6534L38.4548 16.3335L36.0878 16.2788L38.1966 15.2025L36.7636 13.3178L38.9199 14.2955L39.5 12Z" fill="#FFDA03"/>
<defs>
<linearGradient id="paint0_linear_1243_8" x1="50" y1="10" x2="1" y2="10" gradientUnits="userSpaceOnUse">
<stop stop-color="#5C96F8"/>
<stop offset="1" stop-color="#7DD5FE"/>
</linearGradient>
</defs>
</svg>
