<svg width="50" height="20" viewBox="0 0 50 20" fill="none" xmlns="http://www.w3.org/2000/svg">
<rect width="50" height="20" rx="4" fill="url(#paint0_linear_1243_6)"/>
<path d="M25.5 7L26.0801 9.29551L28.2364 8.31779L26.8034 10.2025L28.9122 11.2788L26.5452 11.3335L27.0186 13.6534L25.5 11.8369L23.9814 13.6534L24.4548 11.3335L22.0878 11.2788L24.1966 10.2025L22.7636 8.31779L24.9199 9.29551L25.5 7Z" fill="#FFDA03"/>
<path d="M9.5 7L10.0801 9.29551L12.2364 8.31779L10.8034 10.2025L12.9122 11.2788L10.5452 11.3335L11.0186 13.6534L9.5 11.8369L7.98141 13.6534L8.45478 11.3335L6.08775 11.2788L8.19664 10.2025L6.76359 8.31779L8.91995 9.29551L9.5 7Z" fill="#FFDA03"/>
<path d="M41.5 7L42.0801 9.29551L44.2364 8.31779L42.8034 10.2025L44.9122 11.2788L42.5452 11.3335L43.0186 13.6534L41.5 11.8369L39.9814 13.6534L40.4548 11.3335L38.0878 11.2788L40.1966 10.2025L38.7636 8.31779L40.9199 9.29551L41.5 7Z" fill="#FFDA03"/>
<defs>
<linearGradient id="paint0_linear_1243_6" x1="50" y1="10" x2="1" y2="10" gradientUnits="userSpaceOnUse">
<stop stop-color="#5C96F8"/>
<stop offset="1" stop-color="#7DD5FE"/>
</linearGradient>
</defs>
</svg>
