<svg width="50" height="20" viewBox="0 0 50 20" fill="none" xmlns="http://www.w3.org/2000/svg">
<rect width="50" height="20" rx="4" fill="url(#paint0_linear_1243_18)"/>
<path d="M8.5 1L9.08005 3.29551L11.2364 2.31779L9.80336 4.20252L11.9122 5.27882L9.54522 5.33353L10.0186 7.65339L8.5 5.83688L6.98141 7.65339L7.45478 5.33353L5.08775 5.27882L7.19664 4.20252L5.76359 2.31779L7.91995 3.29551L8.5 1Z" fill="#FFDA03"/>
<path d="M23.5 7L24.0801 9.29551L26.2364 8.31779L24.8034 10.2025L26.9122 11.2788L24.5452 11.3335L25.0186 13.6534L23.5 11.8369L21.9814 13.6534L22.4548 11.3335L20.0878 11.2788L22.1966 10.2025L20.7636 8.31779L22.9199 9.29551L23.5 7Z" fill="#FFDA03"/>
<path d="M40.5 1L41.0801 3.29551L43.2364 2.31779L41.8034 4.20252L43.9122 5.27882L41.5452 5.33353L42.0186 7.65339L40.5 5.83688L38.9814 7.65339L39.4548 5.33353L37.0878 5.27882L39.1966 4.20252L37.7636 2.31779L39.9199 3.29551L40.5 1Z" fill="#FFDA03"/>
<path d="M8.5 12L9.08005 14.2955L11.2364 13.3178L9.80336 15.2025L11.9122 16.2788L9.54522 16.3335L10.0186 18.6534L8.5 16.8369L6.98141 18.6534L7.45478 16.3335L5.08775 16.2788L7.19664 15.2025L5.76359 13.3178L7.91995 14.2955L8.5 12Z" fill="#FFDA03"/>
<path d="M40.5 12L41.0801 14.2955L43.2364 13.3178L41.8034 15.2025L43.9122 16.2788L41.5452 16.3335L42.0186 18.6534L40.5 16.8369L38.9814 18.6534L39.4548 16.3335L37.0878 16.2788L39.1966 15.2025L37.7636 13.3178L39.9199 14.2955L40.5 12Z" fill="#FFDA03"/>
<defs>
<linearGradient id="paint0_linear_1243_18" x1="50" y1="10" x2="1" y2="10" gradientUnits="userSpaceOnUse">
<stop stop-color="#5C96F8"/>
<stop offset="1" stop-color="#7DD5FE"/>
</linearGradient>
</defs>
</svg>
