<svg width="50" height="20" viewBox="0 0 50 20" fill="none" xmlns="http://www.w3.org/2000/svg">
<rect width="50" height="20" rx="4" fill="url(#paint0_linear_1243_4)"/>
<path d="M32.5 7L33.0801 9.29551L35.2364 8.31779L33.8034 10.2025L35.9122 11.2788L33.5452 11.3335L34.0186 13.6534L32.5 11.8369L30.9814 13.6534L31.4548 11.3335L29.0878 11.2788L31.1966 10.2025L29.7636 8.31779L31.9199 9.29551L32.5 7Z" fill="#FFDA03"/>
<path d="M17.5 7L18.0801 9.29551L20.2364 8.31779L18.8034 10.2025L20.9122 11.2788L18.5452 11.3335L19.0186 13.6534L17.5 11.8369L15.9814 13.6534L16.4548 11.3335L14.0878 11.2788L16.1966 10.2025L14.7636 8.31779L16.9199 9.29551L17.5 7Z" fill="#FFDA03"/>
<defs>
<linearGradient id="paint0_linear_1243_4" x1="50" y1="10" x2="1" y2="10" gradientUnits="userSpaceOnUse">
<stop stop-color="#5C96F8"/>
<stop offset="1" stop-color="#7DD5FE"/>
</linearGradient>
</defs>
</svg>
