<svg width="50" height="50" viewBox="0 0 50 50" fill="none" xmlns="http://www.w3.org/2000/svg">
<g clip-path="url(#clip0_820_4)">
<path d="M40.625 0C43.2075 0 45.4156 0.916884 47.2493 2.75065C49.0831 4.58442 50 6.79253 50 9.375V40.625C50 43.2075 49.0831 45.4156 47.2493 47.2493C45.4156 49.0831 43.2075 50 40.625 50H34.5052V30.6315H40.9831L41.9596 23.0794H34.5052V18.2617C34.5052 17.0464 34.7602 16.135 35.2702 15.5273C35.7802 14.9197 36.773 14.6159 38.2487 14.6159L42.2201 14.5833V7.84505C40.8529 7.64974 38.9214 7.55208 36.4258 7.55208C33.4744 7.55208 31.1144 8.42014 29.3457 10.1562C27.577 11.8924 26.6927 14.3446 26.6927 17.513V23.0794H20.1823V30.6315H26.6927V50H9.375C6.79253 50 4.58442 49.0831 2.75065 47.2493C0.916884 45.4156 0 43.2075 0 40.625V9.375C0 6.79253 0.916884 4.58442 2.75065 2.75065C4.58442 0.916884 6.79253 0 9.375 0H40.625Z" fill="#009DFF"/>
</g>
<defs>
<clipPath id="clip0_820_4">
<rect width="50" height="50" fill="white"/>
</clipPath>
</defs>
</svg>
