<svg width="100" height="100" viewBox="0 0 100 100" fill="none" xmlns="http://www.w3.org/2000/svg">
<g clip-path="url(#clip0_1139_41)">
<path d="M16.6667 40C13.3011 39.9952 10.0136 41.0136 7.24 42.92C8.92298 32.7948 14.1443 23.5954 21.9746 16.9592C29.8048 10.323 39.7359 6.68079 50 6.68079C60.2641 6.68079 70.1952 10.323 78.0254 16.9592C85.8557 23.5954 91.077 32.7948 92.76 42.92C89.9868 41.0128 86.699 39.9944 83.3333 40C80.6812 40 78.1376 41.0536 76.2623 42.9289C74.3869 44.8043 73.3333 47.3478 73.3333 50V76.6667C73.3325 78.671 73.9339 80.6293 75.0597 82.2877C76.1854 83.946 77.7835 85.2277 79.6467 85.9667C79.0691 88.0825 77.8119 89.9498 76.0688 91.281C74.3257 92.6121 72.1933 93.3332 70 93.3333H53.3333V100H70C73.8909 100 77.6594 98.6396 80.6523 96.1533C83.6452 93.6669 85.6738 90.2117 86.3867 86.3867C90.2117 85.6738 93.6669 83.6452 96.1533 80.6523C98.6396 77.6594 100 73.8909 100 70V50C100 36.7392 94.7322 24.0215 85.3553 14.6447C75.9785 5.26784 63.2608 0 50 0C36.7392 0 24.0215 5.26784 14.6447 14.6447C5.26784 24.0215 0 36.7392 0 50L0 70C0 74.4203 1.75595 78.6595 4.88155 81.7851C8.00716 84.9107 12.2464 86.6667 16.6667 86.6667C19.3188 86.6667 21.8624 85.6131 23.7377 83.7377C25.6131 81.8624 26.6667 79.3188 26.6667 76.6667V50C26.6667 47.3478 25.6131 44.8043 23.7377 42.9289C21.8624 41.0536 19.3188 40 16.6667 40Z" fill="#FF8A00"/>
<path d="M40.0318 68.1614C37.286 68.1466 34.9768 70.4985 36.3517 72.8753C37.0221 74.0344 37.942 75.1037 39.0841 76.0298C41.6766 78.1319 45.2017 79.324 48.8839 79.3438C52.5661 79.3636 56.1037 78.2095 58.7187 76.1354C59.8707 75.2216 60.802 74.1623 61.4849 73.0105C62.8852 70.6486 60.6015 68.272 57.8557 68.2572L55.4858 68.2445C54.0488 68.2368 52.8437 69.5657 51.7179 70.4587V70.4587C50.9757 71.0473 49.9718 71.3749 48.9268 71.3693C47.8818 71.3636 46.8813 71.0253 46.1456 70.4287V70.4287C45.0294 69.5237 43.8387 68.1818 42.4017 68.1741L40.0318 68.1614Z" fill="#FF8A00"/>
</g>
<defs>
<clipPath id="clip0_1139_41">
<rect width="100" height="100" fill="white"/>
</clipPath>
</defs>
</svg>
