<svg width="100" height="100" viewBox="0 0 100 100" fill="none" xmlns="http://www.w3.org/2000/svg">
<path d="M100 50C100 77.6142 77.6142 100 50 100C22.3858 100 0 77.6142 0 50C0 22.3858 22.3858 0 50 0C77.6142 0 100 22.3858 100 50ZM8.2826 50C8.2826 73.0399 26.9601 91.7174 50 91.7174C73.0399 91.7174 91.7174 73.0399 91.7174 50C91.7174 26.9601 73.0399 8.2826 50 8.2826C26.9601 8.2826 8.2826 26.9601 8.2826 50Z" fill="#8B93B1"/>
<rect x="45" y="36" width="10" height="38" rx="5" fill="#55ACEE"/>
<rect x="45" y="25" width="9" height="9" rx="4.5" fill="#55ACEE"/>
</svg>
