<svg width="120" height="120" viewBox="0 0 120 120" fill="none" xmlns="http://www.w3.org/2000/svg">
<path d="M99.4999 52.8L97.5999 57.5C96.9999 59.1 96.9999 60.8 97.5999 62.4L99.4999 67.1C100.6 69.9 99.6999 73.1 97.1999 74.9L92.9999 77.8C91.5999 78.8 90.6999 80.3 90.2999 81.9L89.3999 86.9C88.7999 89.9 86.2999 92.1 83.2999 92.2L78.1999 92.4C76.4999 92.5 74.8999 93.2 73.6999 94.4L70.1999 98.1C68.0999 100.3 64.7999 100.8 62.1999 99.3L57.7999 96.7C56.2999 95.8 54.5999 95.6 52.8999 96L47.8999 97.2C44.9999 97.9 41.8999 96.5 40.4999 93.8L38.1999 89.2C37.3999 87.7 36.0999 86.5 34.4999 86L29.6999 84.4C26.7999 83.4 24.9999 80.6 25.2999 77.6L25.7999 72.5C25.9999 70.8 25.4999 69.1 24.3999 67.8L21.1999 63.8C19.2999 61.4 19.2999 58.1 21.1999 55.7L24.3999 51.7C25.4999 50.4 25.9999 48.7 25.7999 47L25.2999 41.9C24.9999 38.9 26.7999 36.1 29.6999 35.1L34.4999 33.5C36.0999 33 37.3999 31.8 38.1999 30.3L40.4999 25.7C41.8999 23 44.8999 21.6 47.8999 22.3L52.8999 23.5C54.4999 23.9 56.2999 23.7 57.7999 22.8L62.1999 20.2C64.7999 18.7 68.0999 19.1 70.1999 21.4L73.6999 25.1C74.8999 26.3 76.4999 27.1 78.1999 27.1L83.2999 27.3C86.2999 27.4 88.8999 29.6 89.3999 32.6L90.2999 37.6C90.5999 39.3 91.5999 40.8 92.9999 41.7L97.1999 44.6C99.6999 46.8 100.7 50 99.4999 52.8Z" fill="#00D566"/>
<g opacity="0.15">
<path d="M43.3999 93.5001L41.0999 88.9001C40.2999 87.4001 38.9999 86.2001 37.3999 85.7001L32.5999 84.1001C29.6999 83.1001 27.8999 80.3001 28.1999 77.3001L28.6999 72.2001C28.8999 70.5001 28.3999 68.8001 27.2999 67.5001L24.0999 63.5001C22.1999 61.1001 22.1999 57.8001 24.0999 55.4001L27.2999 51.4001C28.3999 50.1001 28.8999 48.4001 28.6999 46.7001L28.1999 41.6001C27.8999 38.6001 29.6999 35.8001 32.5999 34.8001L37.3999 33.2001C38.9999 32.7001 40.2999 31.5001 41.0999 30.0001L43.3999 25.4001C44.1999 23.8001 45.5999 22.7001 47.0999 22.2001C44.3999 21.8001 41.6999 23.2001 40.4999 25.7001L38.1999 30.3001C37.3999 31.8001 36.0999 33.0001 34.4999 33.5001L29.6999 35.1001C26.7999 36.1001 24.9999 38.9001 25.2999 41.9001L25.7999 47.0001C25.9999 48.7001 25.4999 50.4001 24.3999 51.7001L21.1999 55.7001C19.2999 58.1001 19.2999 61.4001 21.1999 63.8001L24.3999 67.8001C25.4999 69.1001 25.9999 70.8001 25.7999 72.5001L25.2999 77.6001C24.9999 80.6001 26.7999 83.4001 29.6999 84.4001L34.4999 86.0001C36.0999 86.5001 37.3999 87.7001 38.1999 89.2001L40.4999 93.8001C41.8999 96.5001 44.8999 97.9001 47.8999 97.2001L48.4999 97.1001C46.2999 96.7001 44.3999 95.5001 43.3999 93.5001Z" fill="black"/>
<path d="M60.6 22.5001L65 19.9001C65.4 19.7001 65.8 19.5001 66.2 19.4001C64.8 19.2001 63.3 19.5001 62.1 20.2001L57.7 22.8001C57.3 23.0001 56.9 23.2001 56.5 23.3001C57.9 23.5001 59.3 23.3001 60.6 22.5001Z" fill="black"/>
<path d="M81.0001 92C80.5001 92 80.0001 92.1 79.6001 92.2L83.2001 92C83.7001 92 84.1001 91.9 84.6001 91.8L81.0001 92Z" fill="black"/>
<path d="M65.0001 98.9L60.6001 96.3C59.1001 95.4 57.4001 95.2 55.7001 95.6L55.1001 95.7C56.0001 95.8 56.8001 96.1 57.6001 96.5L62.0001 99.1C63.7001 100.1 65.6001 100.2 67.4001 99.6C66.6001 99.6 65.8001 99.4 65.0001 98.9Z" fill="black"/>
</g>
<path d="M44 53.6L56.5 67.9001L82.1 47.3" fill="#00D566"/>
<path d="M53.4997 75.3001C52.0997 75.3001 50.6997 74.7001 49.6997 73.6001L37.1997 59.3001C35.3997 57.2001 35.5997 54.1001 37.5997 52.2001C39.6997 50.4001 42.7997 50.6001 44.6997 52.6001L54.0997 63.3001L75.9997 45.7001C78.0997 44.0001 81.2997 44.3001 82.9997 46.5001C84.6997 48.7001 84.3997 51.8001 82.1997 53.5001L56.5997 74.2001C55.6997 74.9001 54.5997 75.3001 53.4997 75.3001Z" fill="white"/>
</svg>
