<svg width="70" height="70" viewBox="0 0 70 70" fill="none" xmlns="http://www.w3.org/2000/svg">
<g clip-path="url(#clip0_1027_111)">
<path fill-rule="evenodd" clip-rule="evenodd" d="M10.7945 11.7949C12.0022 10.6463 13.4328 9.98047 15.3127 9.98047H54.6877C56.5676 9.98047 57.9982 10.6463 59.2058 11.7949C60.4133 12.9436 61.3598 14.6111 61.9968 16.5219C62.8017 18.9365 63.0841 21.726 62.9384 24.1933C61.669 24.0769 60.4665 24.2756 59.3899 24.7465C57.4273 25.6052 55.9121 27.2445 54.7336 29.1598C52.6686 32.5154 51.5635 36.7813 51.3213 40.1774C35.7219 38.2328 34.2784 38.2328 18.6792 40.1774C18.4368 36.7814 17.3317 32.5154 15.2667 29.1599C14.0881 27.2445 12.5731 25.6052 10.6105 24.7466C9.62928 24.3173 8.54415 24.1124 7.39844 24.1678C7.28612 24.1739 7.17394 24.1824 7.06198 24.1933C6.91624 21.726 7.1987 18.9365 8.00356 16.5219C8.64053 14.6113 9.58704 12.9436 10.7945 11.7949ZM7.50427 26.5975C7.60024 26.5929 7.69512 26.591 7.78891 26.5921C8.44516 26.5996 9.04727 26.749 9.62423 27.0015C10.9429 27.5784 12.1621 28.8102 13.1711 30.4496C15.1888 33.7285 16.2697 38.5547 16.2697 41.5625V42.9563L17.6529 42.7834C26.4029 41.6896 30.7015 41.1428 35.0002 41.1428C39.2988 41.1428 43.5975 41.6896 52.3475 42.7834L53.7307 42.9563V41.5625C53.7307 38.5547 54.8116 33.7285 56.8292 30.4495C57.8381 28.8102 59.0575 27.5784 60.3761 27.0014C61.6948 26.4245 63.1441 26.3854 65.0748 27.3507C68.2759 28.9513 68.6773 36.3314 63.0486 38.2076L62.4328 38.4129L58.1344 53.457H11.866L7.56757 38.4129L6.95165 38.2076C1.32307 36.3314 1.72448 28.9513 4.92548 27.3507C5.89098 26.868 6.73577 26.6364 7.50427 26.5975ZM8.26552 59.0995L11.4472 55.918H15.5093C15.33 56.2765 15.1489 56.6871 14.9692 57.0946C14.6645 57.7858 14.3636 58.468 14.0822 58.8718C12.8798 59.614 9.90532 59.5424 8.26552 59.0995ZM55.9182 58.8718C55.4417 58.532 54.6955 56.7406 54.4912 55.918H58.5531L61.7349 59.0995C60.0066 59.6612 57.7228 59.6187 55.9182 58.8718ZM33.9545 25.1364V29.8068H35.8636V25.1364H40.5341V23.2273H35.8636V18.5568H33.9545V23.2273H29.2841V25.1364H33.9545Z" fill="black"/>
</g>
<defs>
<clipPath id="clip0_1027_111">
<rect width="70" height="70" fill="white"/>
</clipPath>
</defs>
</svg>
