<svg width="100" height="100" viewBox="0 0 100 100" fill="none" xmlns="http://www.w3.org/2000/svg">
<path d="M100 50C100 77.6142 77.6142 100 50 100C22.3858 100 0 77.6142 0 50C0 22.3858 22.3858 0 50 0C77.6142 0 100 22.3858 100 50ZM9.16844 50C9.16844 72.5506 27.4494 90.8316 50 90.8316C72.5506 90.8316 90.8316 72.5506 90.8316 50C90.8316 27.4494 72.5506 9.16844 50 9.16844C27.4494 9.16844 9.16844 27.4494 9.16844 50Z" fill="#212529"/>
<rect x="45" y="36" width="10" height="38" rx="5" fill="#55ACEE"/>
<rect x="45" y="25" width="9" height="9" rx="4.5" fill="#55ACEE"/>
</svg>
