<svg width="60" height="60" viewBox="0 0 60 60" fill="none" xmlns="http://www.w3.org/2000/svg">
<g clip-path="url(#clip0_1027_2)">
<path d="M29.9998 0L20.769 30L29.9998 60C46.5683 60 59.9998 46.5686 59.9998 30C59.9998 13.4314 46.5683 0 29.9998 0Z" fill="#FF6638"/>
<path d="M0 30C0 46.5686 13.4314 60 30 60V0C13.4314 0 0 13.4314 0 30Z" fill="#FF883E"/>
<path d="M30.2847 3.9585V56.0411C44.5145 55.8894 56.0438 44.2653 56.0438 29.9998C56.0438 15.7343 44.5145 4.11014 30.2847 3.9585Z" fill="#FFAB58"/>
<path d="M30.2849 3.95875C42.3337 4.13934 52.088 15.7517 52.088 30C52.088 44.2484 42.3337 55.8607 30.2849 56.0413C30.19 56.0426 30.0951 56.044 30 56.044C15.6396 56.044 3.95605 44.3605 3.95605 30C3.95605 15.6395 15.6396 3.95605 30 3.95605C30.095 3.95605 30.1899 3.95734 30.2849 3.95875Z" fill="#FFCD71"/>
<path d="M32.5211 46.5151C31.5043 43.2985 30.9887 39.9392 30.9887 36.5302V29.7998H29.0107V36.5302C29.0107 40.1417 29.5573 43.7018 30.635 47.1113C30.7683 47.5329 31.1579 47.8025 31.5777 47.8025C31.6765 47.8025 31.777 47.7876 31.8762 47.7562C32.397 47.5916 32.6857 47.0359 32.5211 46.5151Z" fill="#FF6638"/>
<path d="M43.9364 39.5579C44.4005 38.896 44.6891 38.1646 44.8113 37.4164L30 29.7998L35.0627 39.0815C35.4371 39.7609 35.9666 40.3689 36.6457 40.8434C39.0139 42.5025 42.2773 41.9262 43.9364 39.5579Z" fill="#FF6638"/>
<path d="M44.6889 35.146C44.8944 35.8804 44.9387 36.6571 44.8112 37.4163C44.765 37.4738 44.7125 37.5291 44.6552 37.5827C43.4525 38.697 40.4598 38.5298 37.9692 37.2065C37.2554 36.8274 36.6619 36.3952 36.204 35.9452L30 29.7997L40.954 29.5767L44.6889 35.146Z" fill="#FF883E"/>
<path d="M44.6889 35.1462L30 29.7999L39.8443 25.944C40.5677 25.6642 41.3643 25.5387 42.1895 25.6117C45.0702 25.8632 47.1997 28.4022 46.9482 31.2829C46.8063 32.9068 45.9375 34.2915 44.6889 35.1462Z" fill="#FFAB58"/>
<path d="M16.0634 39.5579C15.5993 38.896 15.3107 38.1646 15.1885 37.4164L29.9998 29.7998L24.9371 39.0815C24.5627 39.7609 24.0332 40.3689 23.3541 40.8434C20.9859 42.5025 17.7225 41.9262 16.0634 39.5579Z" fill="#FF6638"/>
<path d="M15.311 35.1462C15.1055 35.8807 15.0612 36.6574 15.1887 37.4165C15.2349 37.4741 15.2874 37.5294 15.3447 37.5829C16.5474 38.6973 19.5401 38.53 22.0307 37.2068C22.7445 36.8277 23.338 36.3955 23.7959 35.9455L30.0002 29.8002L19.0462 29.5771L15.311 35.1462Z" fill="#FF883E"/>
<path d="M15.3113 35.1462L30.0001 29.7999L20.1558 25.944C19.4324 25.6642 18.6359 25.5387 17.8107 25.6117C14.93 25.8632 12.8004 28.4022 13.0519 31.2829C13.1938 32.9068 14.0626 34.2915 15.3113 35.1462Z" fill="#FFAB58"/>
<path d="M34.4031 13.3662C33.6224 13.1565 32.8365 13.1354 32.0914 13.2765L30 29.7996L36.9904 21.8678C37.5007 21.2836 37.8911 20.5781 38.1047 19.7776C38.8536 16.9847 37.196 14.1152 34.4031 13.3662Z" fill="#FF6638"/>
<path d="M30 14.1683C30.6198 13.7239 31.3345 13.4167 32.0914 13.2769C32.1612 13.3006 32.2312 13.3309 32.3011 13.3665C33.7596 14.1156 34.6259 16.985 34.2343 19.7779C34.1223 20.5783 33.9192 21.2839 33.6528 21.8681L30 29.7999L26.0439 19.5828L30 14.1683Z" fill="#FF883E"/>
<path d="M30 14.168V29.7997L23.0096 21.8678C22.4993 21.2836 22.1089 20.5782 21.8953 19.7777C21.1462 16.9847 22.8039 14.1153 25.5968 13.3662C27.1714 12.9442 28.7696 13.2871 30 14.168Z" fill="#FFAB58"/>
<path d="M29.9998 8.90098C30.546 8.90098 30.9889 8.45816 30.9889 7.91191C30.9889 7.36567 30.546 6.92285 29.9998 6.92285C29.4536 6.92285 29.0107 7.36567 29.0107 7.91191C29.0107 8.45816 29.4536 8.90098 29.9998 8.90098Z" fill="#FF883E"/>
<path d="M24.2835 9.65391C24.8297 9.65391 25.2726 9.21109 25.2726 8.66484C25.2726 8.1186 24.8297 7.67578 24.2835 7.67578C23.7373 7.67578 23.2944 8.1186 23.2944 8.66484C23.2944 9.21109 23.7373 9.65391 24.2835 9.65391Z" fill="#FF883E"/>
<path d="M18.9559 11.86C19.5021 11.86 19.9449 11.4171 19.9449 10.8709C19.9449 10.3247 19.5021 9.88184 18.9559 9.88184C18.4096 9.88184 17.9668 10.3247 17.9668 10.8709C17.9668 11.4171 18.4096 11.86 18.9559 11.86Z" fill="#FF883E"/>
<path d="M14.3812 15.3702C14.9274 15.3702 15.3702 14.9274 15.3702 14.3812C15.3702 13.8349 14.9274 13.3921 14.3812 13.3921C13.8349 13.3921 13.3921 13.8349 13.3921 14.3812C13.3921 14.9274 13.8349 15.3702 14.3812 15.3702Z" fill="#FF883E"/>
<path d="M10.8709 19.9449C11.4171 19.9449 11.86 19.5021 11.86 18.9559C11.86 18.4096 11.4171 17.9668 10.8709 17.9668C10.3247 17.9668 9.88184 18.4096 9.88184 18.9559C9.88184 19.5021 10.3247 19.9449 10.8709 19.9449Z" fill="#FF883E"/>
<path d="M8.66484 25.2726C9.21109 25.2726 9.65391 24.8297 9.65391 24.2835C9.65391 23.7373 9.21109 23.2944 8.66484 23.2944C8.1186 23.2944 7.67578 23.7373 7.67578 24.2835C7.67578 24.8297 8.1186 25.2726 8.66484 25.2726Z" fill="#FF883E"/>
<path d="M7.91191 30.9889C8.45816 30.9889 8.90098 30.546 8.90098 29.9998C8.90098 29.4536 8.45816 29.0107 7.91191 29.0107C7.36567 29.0107 6.92285 29.4536 6.92285 29.9998C6.92285 30.546 7.36567 30.9889 7.91191 30.9889Z" fill="#FF883E"/>
<path d="M8.66484 36.7057C9.21109 36.7057 9.65391 36.2628 9.65391 35.7166C9.65391 35.1704 9.21109 34.7275 8.66484 34.7275C8.1186 34.7275 7.67578 35.1704 7.67578 35.7166C7.67578 36.2628 8.1186 36.7057 8.66484 36.7057Z" fill="#FF883E"/>
<path d="M10.8709 42.0328C11.4171 42.0328 11.86 41.59 11.86 41.0438C11.86 40.4975 11.4171 40.0547 10.8709 40.0547C10.3247 40.0547 9.88184 40.4975 9.88184 41.0438C9.88184 41.59 10.3247 42.0328 10.8709 42.0328Z" fill="#FF883E"/>
<path d="M14.3812 46.6075C14.9274 46.6075 15.3702 46.1647 15.3702 45.6185C15.3702 45.0722 14.9274 44.6294 14.3812 44.6294C13.8349 44.6294 13.3921 45.0722 13.3921 45.6185C13.3921 46.1647 13.8349 46.6075 14.3812 46.6075Z" fill="#FF883E"/>
<path d="M18.9559 50.1178C19.5021 50.1178 19.9449 49.675 19.9449 49.1287C19.9449 48.5825 19.5021 48.1396 18.9559 48.1396C18.4096 48.1396 17.9668 48.5825 17.9668 49.1287C17.9668 49.675 18.4096 50.1178 18.9559 50.1178Z" fill="#FF883E"/>
<path d="M24.2835 52.3238C24.8297 52.3238 25.2726 51.881 25.2726 51.3348C25.2726 50.7885 24.8297 50.3457 24.2835 50.3457C23.7373 50.3457 23.2944 50.7885 23.2944 51.3348C23.2944 51.881 23.7373 52.3238 24.2835 52.3238Z" fill="#FF883E"/>
<path d="M29.9998 53.0768C30.546 53.0768 30.9889 52.6339 30.9889 52.0877C30.9889 51.5415 30.546 51.0986 29.9998 51.0986C29.4536 51.0986 29.0107 51.5415 29.0107 52.0877C29.0107 52.6339 29.4536 53.0768 29.9998 53.0768Z" fill="#FF883E"/>
<path d="M35.7166 52.3238C36.2628 52.3238 36.7057 51.881 36.7057 51.3348C36.7057 50.7885 36.2628 50.3457 35.7166 50.3457C35.1704 50.3457 34.7275 50.7885 34.7275 51.3348C34.7275 51.881 35.1704 52.3238 35.7166 52.3238Z" fill="#FF883E"/>
<path d="M41.0438 50.1178C41.59 50.1178 42.0328 49.675 42.0328 49.1287C42.0328 48.5825 41.59 48.1396 41.0438 48.1396C40.4975 48.1396 40.0547 48.5825 40.0547 49.1287C40.0547 49.675 40.4975 50.1178 41.0438 50.1178Z" fill="#FF883E"/>
<path d="M45.6185 46.6075C46.1647 46.6075 46.6075 46.1647 46.6075 45.6185C46.6075 45.0722 46.1647 44.6294 45.6185 44.6294C45.0722 44.6294 44.6294 45.0722 44.6294 45.6185C44.6294 46.1647 45.0722 46.6075 45.6185 46.6075Z" fill="#FF883E"/>
<path d="M49.1287 42.0328C49.675 42.0328 50.1178 41.59 50.1178 41.0438C50.1178 40.4975 49.675 40.0547 49.1287 40.0547C48.5825 40.0547 48.1396 40.4975 48.1396 41.0438C48.1396 41.59 48.5825 42.0328 49.1287 42.0328Z" fill="#FF883E"/>
<path d="M51.3348 36.7057C51.881 36.7057 52.3238 36.2628 52.3238 35.7166C52.3238 35.1704 51.881 34.7275 51.3348 34.7275C50.7885 34.7275 50.3457 35.1704 50.3457 35.7166C50.3457 36.2628 50.7885 36.7057 51.3348 36.7057Z" fill="#FF883E"/>
<path d="M52.0877 30.9889C52.6339 30.9889 53.0768 30.546 53.0768 29.9998C53.0768 29.4536 52.6339 29.0107 52.0877 29.0107C51.5415 29.0107 51.0986 29.4536 51.0986 29.9998C51.0986 30.546 51.5415 30.9889 52.0877 30.9889Z" fill="#FF883E"/>
<path d="M51.3348 25.2726C51.881 25.2726 52.3238 24.8297 52.3238 24.2835C52.3238 23.7373 51.881 23.2944 51.3348 23.2944C50.7885 23.2944 50.3457 23.7373 50.3457 24.2835C50.3457 24.8297 50.7885 25.2726 51.3348 25.2726Z" fill="#FF883E"/>
<path d="M49.1287 19.9449C49.675 19.9449 50.1178 19.5021 50.1178 18.9559C50.1178 18.4096 49.675 17.9668 49.1287 17.9668C48.5825 17.9668 48.1396 18.4096 48.1396 18.9559C48.1396 19.5021 48.5825 19.9449 49.1287 19.9449Z" fill="#FF883E"/>
<path d="M45.6185 15.3702C46.1647 15.3702 46.6075 14.9274 46.6075 14.3812C46.6075 13.8349 46.1647 13.3921 45.6185 13.3921C45.0722 13.3921 44.6294 13.8349 44.6294 14.3812C44.6294 14.9274 45.0722 15.3702 45.6185 15.3702Z" fill="#FF883E"/>
<path d="M41.0438 11.86C41.59 11.86 42.0328 11.4171 42.0328 10.8709C42.0328 10.3247 41.59 9.88184 41.0438 9.88184C40.4975 9.88184 40.0547 10.3247 40.0547 10.8709C40.0547 11.4171 40.4975 11.86 41.0438 11.86Z" fill="#FF883E"/>
<path d="M35.7166 9.65391C36.2628 9.65391 36.7057 9.21109 36.7057 8.66484C36.7057 8.1186 36.2628 7.67578 35.7166 7.67578C35.1704 7.67578 34.7275 8.1186 34.7275 8.66484C34.7275 9.21109 35.1704 9.65391 35.7166 9.65391Z" fill="#FF883E"/>
</g>
<defs>
<clipPath id="clip0_1027_2">
<rect width="60" height="60" fill="white"/>
</clipPath>
</defs>
</svg>
