<svg width="60" height="60" viewBox="0 0 60 60" fill="none" xmlns="http://www.w3.org/2000/svg">
<path d="M30 47.962C39.9201 47.962 47.9619 39.9201 47.9619 30C47.9619 20.0799 39.9201 12.0381 30 12.0381C20.0799 12.0381 12.038 20.0799 12.038 30C12.038 39.9201 20.0799 47.962 30 47.962Z" fill="#FFC500"/>
<path d="M31.2732 45.4188C21.3512 45.4188 13.3112 37.3758 13.3112 27.4568C13.3088 25.1522 13.75 22.8687 14.6107 20.731C12.9222 23.5276 12.0324 26.7334 12.0381 30.0002C12.0381 39.9192 20.081 47.9622 30 47.9622C37.5424 47.9622 43.999 43.3144 46.6595 36.7261C43.5161 41.9358 37.8 45.4188 31.2732 45.4188Z" fill="#FF9F1E"/>
<path d="M30 12.0381C26.1515 12.0311 22.4036 13.2671 19.3141 15.562C23.5548 13.9256 28.2164 13.7312 32.5785 15.0088C32.541 15.0549 32.5086 15.105 32.482 15.1581C31.9493 16.1503 33.0351 17.7659 34.9024 18.7669C36.7698 19.7679 38.719 19.7796 39.2517 18.7903C39.3025 18.6936 39.3389 18.5901 39.36 18.483C44.1951 22.2293 47.318 28.0859 47.3473 34.6713C47.7565 33.148 47.9632 31.5774 47.962 30.0001C47.962 20.081 39.919 12.0381 30 12.0381Z" fill="#FFE059"/>
<path d="M40.6906 20.7253C40.7856 20.2366 40.1834 19.7084 39.3456 19.5456C38.5078 19.3827 37.7516 19.6469 37.6566 20.1356C37.5616 20.6243 38.1638 21.1525 39.0016 21.3154C39.8394 21.4782 40.5956 21.2141 40.6906 20.7253Z" fill="#FFE059"/>
<path d="M36.7819 21.4017C36.9209 21.1609 36.7499 20.8019 36.3999 20.5999C36.0499 20.3978 35.6535 20.4292 35.5145 20.67C35.3755 20.9108 35.5465 21.2698 35.8965 21.4718C36.2465 21.6739 36.6429 21.6425 36.7819 21.4017Z" fill="#FFE059"/>
<path d="M25.7318 27.3391C25.8087 25.5772 24.9652 24.1094 23.8477 24.0606C22.7301 24.0118 21.7619 25.4005 21.6849 27.1624C21.608 28.9243 22.4516 30.3921 23.5691 30.4409C24.6866 30.4897 25.6549 29.101 25.7318 27.3391Z" fill="#00305F"/>
<path d="M24.8225 27.849C25.1312 27.849 25.3815 27.5987 25.3815 27.29C25.3815 26.9812 25.1312 26.731 24.8225 26.731C24.5137 26.731 24.2634 26.9812 24.2634 27.29C24.2634 27.5987 24.5137 27.849 24.8225 27.849Z" fill="white"/>
<path d="M33.3278 27.6762C33.1885 27.6755 33.0512 27.6424 32.9269 27.5796C32.8242 27.527 32.7329 27.4546 32.6583 27.3667C32.5836 27.2788 32.5269 27.177 32.4916 27.0672C32.4563 26.9574 32.4429 26.8417 32.4523 26.7267C32.4617 26.6117 32.4937 26.4998 32.5464 26.3971C33.3132 24.8957 34.402 24.0703 35.6108 24.0703C36.8195 24.0703 37.9083 24.8957 38.6752 26.3971C38.7815 26.6044 38.8012 26.8454 38.7298 27.0672C38.6584 27.2889 38.5019 27.4732 38.2947 27.5796C38.0874 27.6859 37.8464 27.7056 37.6246 27.6342C37.4029 27.5629 37.2186 27.4063 37.1122 27.1991C36.6732 26.3386 36.1112 25.8264 35.6108 25.8264C35.1103 25.8264 34.5483 26.3386 34.1093 27.1991C34.0355 27.3428 33.9235 27.4634 33.7857 27.5475C33.6478 27.6317 33.4894 27.6762 33.3278 27.6762Z" fill="#00305F"/>
<path d="M30.2634 37.5661C30.0058 37.5661 29.7395 37.5573 29.4644 37.5369C28.6954 37.4825 27.9331 37.3571 27.1873 37.1622C26.968 37.0946 26.7838 36.9438 26.6743 36.7421C26.5648 36.5404 26.5386 36.3038 26.6013 36.0831C26.6641 35.8623 26.8108 35.6749 27.01 35.5609C27.2093 35.447 27.4452 35.4156 27.6673 35.4734C28.3093 35.6361 28.9646 35.741 29.6253 35.7866C30.5649 35.851 31.8819 35.8042 32.8068 35.2159C33.439 34.8149 33.8136 34.2003 33.9571 33.3456C33.9738 33.2301 34.0133 33.1191 34.0734 33.0191C34.1335 32.9191 34.2129 32.832 34.3071 32.7631C34.4012 32.6941 34.5081 32.6446 34.6216 32.6174C34.7351 32.5902 34.8529 32.5859 34.968 32.6048C35.0832 32.6237 35.1934 32.6653 35.2923 32.7273C35.3912 32.7893 35.4767 32.8703 35.5439 32.9657C35.6111 33.0611 35.6586 33.169 35.6837 33.2829C35.7087 33.3969 35.7108 33.5148 35.6897 33.6295C35.4644 34.9905 34.8117 36.0237 33.7434 36.6998C32.8361 37.2764 31.6683 37.5661 30.2634 37.5661Z" fill="#00305F"/>
</svg>
