<?xml version="1.0" encoding="UTF-8"?>
<!-- Uploaded to: SVG Find, www.svgrepo.com, Generator: SVG Find Mixer Tools -->
<svg fill="#000000" width="800px" height="800px" version="1.1" viewBox="144 144 512 512" xmlns="http://www.w3.org/2000/svg">
 <g>
  <path d="m577.64 381.43c-1.5312-17.234-16.184-30.738-33.348-30.738h-0.078125c3.5117-12.871 5.3516-26.176 5.3516-39.727 0-66.738-44.41-126.27-108-144.77-4.1992-1.2383-8.5391 1.1875-9.7539 5.3594-1.2148 4.1758 1.1836 8.543 5.3594 9.7539 56.91 16.562 96.656 69.875 96.656 129.66 0 13.598-1.9922 26.934-5.9258 39.727h-74.684c-6.8047 0-13.367 2.5156-18.535 7.1406-4.8828 4.4648-8.0352 10.477-8.8711 16.898-0.60156 4.4609-4.2969 8.0898-8.25 8.0898h-35.117c-3.9531 0-7.6484-3.6289-8.25-8.0586-0.83984-6.4492-3.9883-12.461-8.9336-16.984-5.1055-4.5703-11.668-7.0859-18.473-7.0859h-23.969c-6.168-12.176-9.4102-25.812-9.4102-39.727 0-48.152 38.844-87.324 86.594-87.324 33.762 0 64.676 19.996 78.75 50.938 1.793 3.9531 6.4258 5.7148 10.426 3.9062 3.9609-1.8008 5.7031-6.4648 3.9062-10.426-16.625-36.543-53.164-60.16-93.082-60.16-56.426 0-102.34 46.238-102.34 103.07 0 13.73 2.707 27.242 7.8633 39.727h-49.82c-17.168 0-31.82 13.504-33.348 30.734l-19.055 214.05c-0.90625 10.477 2.6445 20.914 9.7344 28.637 7.0195 7.6523 16.973 12.043 27.312 12.043 27.16 0 52.883-8.7695 74.406-25.367 21.609-16.742 36.676-39.465 43.688-66.207l6.457-33.336c0.92969-4.8906 5.1953-8.4414 10.141-8.4414h49.906c4.9414 0 9.2109 3.5508 10.148 8.4609l6.5664 33.824c6.8945 26.238 21.965 48.957 43.59 65.715 21.508 16.59 47.23 25.355 74.391 25.355 10.34 0 20.297-4.3906 27.312-12.043 7.0898-7.7227 10.641-18.16 9.7305-28.66zm-2.2812 232.04c-4.1055 4.4766-9.6875 6.9414-15.715 6.9414-23.648 0-46.047-7.6328-64.766-22.07-18.844-14.602-31.98-34.402-37.875-56.754l-6.4414-33.297c-2.3516-12.305-13.121-21.234-25.605-21.234h-49.906c-12.484 0-23.254 8.9297-25.598 21.215l-6.3359 32.809c-6.0117 22.859-19.148 42.656-37.977 57.25-18.734 14.449-41.137 22.082-64.781 22.082-6.0273 0-11.609-2.4648-15.715-6.9414-4.1758-4.5469-6.1797-10.457-5.6484-16.617l19.051-214.04c0.81641-9.1875 8.5781-16.387 17.664-16.387h91.082c2.9297 0 5.7578 1.0898 7.9102 3.0117 1.5156 1.3867 3.4219 3.7891 3.8906 7.3789 1.668 12.391 11.922 21.738 23.855 21.738h35.117c11.93 0 22.188-9.3438 23.855-21.766 0.46875-3.5586 2.375-5.9609 3.8281-7.293 2.2148-1.9805 5.043-3.0703 7.9727-3.0703h91.082c9.0859 0 16.852 7.1992 17.664 16.391l19.051 214.01c0.51953 6.1836-1.4883 12.094-5.6602 16.641z"/>
  <path d="m533.82 430.03h-23.617v-23.859c0-4.3477-3.5195-7.8711-7.8711-7.8711-4.3516 0-7.8711 3.5234-7.8711 7.8711v23.859h-23.617c-4.3516 0-7.8711 3.5234-7.8711 7.8711 0 4.3477 3.5195 7.8711 7.8711 7.8711h23.617v23.863c0 4.3477 3.5195 7.8711 7.8711 7.8711 4.3516 0 7.8711-3.5234 7.8711-7.8711v-23.863h23.617c4.3516 0 7.8711-3.5234 7.8711-7.8711 0-4.3477-3.5195-7.8711-7.8711-7.8711z"/>
  <path d="m344.05 437.1c-0.003906-0.011718 0-0.023437-0.003906-0.035156-0.53906-2.9219-1.3633-5.7227-2.3945-8.4102-0.10547-0.26953-0.26172-0.50781-0.37109-0.77734-0.99219-2.4492-2.1523-4.7969-3.5117-7.0117-0.058593-0.089843-0.12891-0.16797-0.1875-0.26172-4.4961-7.207-10.84-12.992-18.309-16.883-0.13672-0.070312-0.28516-0.12891-0.42188-0.19922-2.2852-1.1602-4.6562-2.1406-7.125-2.918-0.48828-0.15625-0.98828-0.26562-1.4805-0.40234-2.1133-0.58984-4.2578-1.0625-6.4727-1.3516-0.86719-0.11719-1.7383-0.16406-2.6133-0.23438-1.168-0.09375-2.3047-0.31641-3.4961-0.31641-1.2305 0-2.4609 0.085937-3.6836 0.17969-24.426 1.9102-43.551 22.711-43.551 47.355 0 26.211 21.188 47.535 47.23 47.535 26.047 0 47.23-21.324 47.23-47.535 0-2.9727-0.28516-5.9375-0.83984-8.7227 0.003907-0.003906 0.003907-0.007813 0-0.011719zm-46.387 40.527c-17.367 0-31.488-14.262-31.488-31.793 0-16.477 12.754-30.387 29.043-31.656 0.8125-0.066406 1.6289-0.13672 2.4453-0.13672 1.8945 0 3.7539 0.17188 5.5664 0.49609 12.676 2.293 22.934 12.293 25.363 25.516 0.37109 1.8828 0.55469 3.8281 0.55469 5.7812 0 17.531-14.121 31.793-31.484 31.793z"/>
  <path d="m415.74 453.83h-31.488c-4.3516 0-7.8711 3.5234-7.8711 7.8711 0 4.3477 3.5195 7.8711 7.8711 7.8711h31.488c4.3516 0 7.8711-3.5234 7.8711-7.8711 0-4.3477-3.5195-7.8711-7.8711-7.8711z"/>
  <path d="m372.05 248.41c-2.4531-1.2305-5.3438-1.1016-7.6719 0.32812-2.3281 1.4297-3.7461 3.9688-3.7461 6.7031v79.332c0 2.7344 1.4141 5.2695 3.7422 6.7031 1.2656 0.77344 2.6953 1.168 4.1328 1.168 1.2148 0 2.4297-0.28125 3.543-0.83984l78.719-39.668c2.6523-1.3398 4.3281-4.0625 4.3281-7.0352 0-2.9727-1.6758-5.6914-4.3281-7.0312zm4.3281 73.582v-53.773l53.352 26.883z"/>
  <path d="m260.09 286.92c0.58594 0.12891 1.1602 0.19141 1.7383 0.19141 3.5977 0 6.8477-2.4844 7.6719-6.1406 11.332-50.297 50.883-90.168 100.77-101.58 4.2422-0.96875 6.8867-5.1875 5.918-9.4297-0.96875-4.2422-5.2578-6.9141-9.4258-5.9141-55.766 12.754-99.969 57.293-112.62 113.46-0.95312 4.2344 1.707 8.4492 5.9492 9.4062z"/>
 </g>
</svg>