<svg width="100" height="100" viewBox="0 0 100 100" fill="none" xmlns="http://www.w3.org/2000/svg">
<path d="M70.6798 21.2656C55.5548 21.2656 50.0001 36.7188 50.0001 36.7188C50.0001 36.7188 44.5157 21.2656 29.2813 21.2656C17.836 21.2656 4.78135 30.3359 9.60947 50.9531C14.4298 71.5703 50.0392 97.2656 50.0392 97.2656C50.0392 97.2656 85.5157 71.5781 90.3438 50.9609C95.1563 30.3359 83.047 21.2656 70.6798 21.2656Z" fill="#EF5592"/>
<path d="M26.9453 22.8047C38.8203 22.8047 44.7188 35.5703 46.6172 40.7422C46.8906 41.4766 47.9141 41.5078 48.2266 40.7813L49.9688 36.7188C47.5156 28.8906 40.7813 21.2656 29.2813 21.2656C24.5234 21.2656 19.4844 22.8438 15.5703 26.1563C19.0313 23.8906 23.0859 22.8047 26.9453 22.8047ZM70.6797 21.2656C67.0234 21.2656 63.6953 22.0625 61.1016 23.6641C62.9219 22.9609 65.1797 22.8125 67.4141 22.8125C78.6016 22.8125 88.6172 31.2969 84.1016 50.9141C80.2188 67.75 57.5469 88.1797 50.625 95.9766C50.1875 96.4687 50.0313 97.2734 50.0313 97.2734C50.0313 97.2734 85.5078 71.5859 90.3359 50.9687C95.1563 30.3359 83.0625 21.2656 70.6797 21.2656Z" fill="#DA2E75"/>
<path d="M17.5547 32.2109C20.1407 28.9765 24.7657 26.3125 28.6875 29.3828C30.8047 31.0468 29.8829 34.4609 27.9844 35.8984C25.2188 37.9921 22.8204 39.2656 21.1407 42.5468C20.1329 44.5234 19.5235 46.6796 19.2188 48.8828C19.0938 49.75 17.961 49.9609 17.5235 49.2031C14.6094 44.0312 13.7813 36.9218 17.5547 32.2109ZM59.0625 39C57.8516 39 56.9922 37.8281 57.4375 36.6953C58.2657 34.6171 59.3204 32.5937 60.6016 30.7968C62.4922 28.1484 66.0938 26.6015 68.3672 28.2031C70.7032 29.8515 70.3985 33.1328 68.7579 34.7187C65.2344 38.1328 60.8047 39 59.0625 39Z" fill="#F386AB"/>
<path d="M66.7656 16.5312C69.6953 14.4375 79.875 11.8359 87.8438 17.2734C95.8125 22.7109 96.4844 33.3828 95.7422 36.8671L95.4297 36.8984C95.0156 33.5546 92.9688 25.4687 84.8281 19.8046C77.8125 14.9218 67.6719 16.6406 66.8516 16.8281L66.7656 16.5312Z" fill="#DA2E75"/>
<path d="M73.4297 8.62496C75.9375 7.05465 83.7344 4.17965 90.7812 8.47652C97.8281 12.7734 99.1953 20.8515 98.9453 23.789L98.6484 23.8828C98.2578 21.8203 94.9922 14.7812 88.3984 11.3593C81.8047 7.93746 73.4922 8.92965 73.4922 8.92965L73.4297 8.62496Z" fill="#F48FB1"/>
<path d="M33.2345 16.5312C30.3048 14.4375 20.1251 11.8359 12.1563 17.2734C4.18758 22.7109 3.5157 33.3828 4.25789 36.8671L4.57039 36.8984C4.98445 33.5546 7.03133 25.4687 15.172 19.8046C22.1876 14.9218 32.3282 16.6406 33.1485 16.8281L33.2345 16.5312Z" fill="#DA2E75"/>
<path d="M26.5703 8.62496C24.0625 7.05465 16.2656 4.17965 9.21875 8.47652C2.17187 12.7734 0.804683 20.8515 1.05468 23.789L1.35156 23.8828C1.74218 21.8203 5.00781 14.7812 11.6016 11.3593C18.1953 7.93746 26.5078 8.92965 26.5078 8.92965L26.5703 8.62496Z" fill="#F48FB1"/>
<path d="M31.9375 90.1641C28.5703 89.7422 25.5312 88.3906 22.7734 86.7031C20.0234 84.9844 17.5469 82.875 15.3984 80.4766C13.25 78.0859 11.4063 75.4141 9.96875 72.5156C8.5625 69.6094 7.49219 66.4844 7.32031 63.1094L7.67187 62.9375L8.78906 64.9453C9.1875 65.6016 9.57031 66.2656 9.98437 66.9063C10.7899 68.2089 11.6367 69.4856 12.5234 70.7344C14.2969 73.2266 16.2266 75.6094 18.2891 77.8672C20.3203 80.1484 22.4922 82.3203 24.8047 84.3281L26.5625 85.8047L28.375 87.2109L30.2266 88.5703L32.1328 89.8438L31.9375 90.1641Z" fill="#DA2E75"/>
<path d="M22.0233 92.7734C19.4843 92.3516 17.2421 91.4297 15.1015 90.2656C12.9843 89.0781 10.9843 87.5625 9.28897 85.6797C7.58584 83.8125 6.24209 81.5938 5.36709 79.2734C4.51553 76.9375 3.99991 74.5313 4.10928 71.9609L4.39834 71.8359C5.36709 73.9453 6.38272 76.0313 7.53897 78.0234C8.69522 80.0234 10.0546 81.8984 11.6171 83.5859C13.1483 85.3047 14.8671 86.8516 16.6718 88.3047C17.5702 89.0391 18.4921 89.7344 19.4218 90.4297C20.3437 91.1406 21.2733 91.8203 22.2108 92.5156L22.0233 92.7734Z" fill="#F48FB1"/>
<path d="M92.6719 63.1172C92.5078 66.5 91.4453 69.625 90.0312 72.5312C88.5932 75.4179 86.7663 78.0938 84.6016 80.4844C82.4453 82.8672 79.9687 84.9844 77.2187 86.7031C74.4531 88.3906 71.4219 89.7422 68.0547 90.1719L67.8516 89.8359L69.7578 88.5625L71.6094 87.2031L73.4219 85.7969L75.1797 84.3203C77.4874 82.3081 79.6638 80.1501 81.6953 77.8594C83.7578 75.6016 85.6875 73.2187 87.4609 70.7266C88.3516 69.4766 89.1953 68.2031 90 66.8984C90.4141 66.2578 90.7969 65.5937 91.1953 64.9375L92.3125 62.9297L92.6719 63.1172Z" fill="#DA2E75"/>
<path d="M95.8906 71.9531C96 74.5312 95.4922 76.9375 94.6328 79.2734C93.7394 81.6379 92.4059 83.8117 90.7031 85.6797C89 87.5547 87.0078 89.0781 84.8906 90.2578C82.75 91.4219 80.5156 92.3437 77.9766 92.7656L77.7969 92.5078C78.7344 91.8203 79.6641 91.1328 80.5859 90.4219C81.5156 89.7266 82.4375 89.0312 83.3359 88.2969C85.1328 86.8437 86.8594 85.2969 88.3906 83.5781C89.9531 81.8906 91.3047 80.0156 92.4687 78.0156C93.0469 77.0156 93.5937 76 94.1016 74.9609C94.625 73.9297 95.1172 72.8828 95.6016 71.8281L95.8906 71.9531Z" fill="#F48FB1"/>
</svg>
