<svg width="100" height="100" viewBox="0 0 100 100" fill="none" xmlns="http://www.w3.org/2000/svg">
<path d="M7.66701 91.4204V91.4105V8.58966C7.66701 8.06058 8.08704 7.66675 8.56493 7.66675H91.4378C91.9126 7.66675 92.3337 8.0595 92.3337 8.58966L92.3337 91.4105L92.3337 91.4204C92.334 91.54 92.3108 91.6584 92.2654 91.769C92.2199 91.8796 92.1532 91.9802 92.0689 92.0649C91.9846 92.1497 91.8844 92.2171 91.7741 92.2631C91.6647 92.3088 91.5476 92.3326 91.4291 92.3334H8.57156C8.45312 92.3326 8.33595 92.3088 8.22663 92.2631C8.1163 92.2171 8.01612 92.1497 7.93183 92.0649C7.84753 91.9802 7.78075 91.8796 7.73531 91.769C7.68987 91.6584 7.66666 91.54 7.66701 91.4204ZM4.16701 91.4105V8.58966C4.16701 6.14592 6.13576 4.16675 8.56493 4.16675H91.4378C93.8649 4.16675 95.8337 6.14592 95.8337 8.58966V91.4105C95.8353 91.9897 95.7229 92.5635 95.5027 93.0992C95.2826 93.635 94.9591 94.1221 94.5507 94.5328C94.1423 94.9435 93.6571 95.2698 93.1226 95.4929C92.5881 95.7161 92.0149 95.8318 91.4358 95.8334H8.56493L4.16701 91.4105Z" stroke="#212529" stroke-width="7" stroke-linecap="round" stroke-linejoin="round"/>
<path fill-rule="evenodd" clip-rule="evenodd" d="M80.5465 37.2647H70.4028C69.0526 37.2652 67.7578 37.8019 66.8031 38.7566C65.8483 39.7114 65.3117 41.0061 65.3111 42.3564V52.5439H80.5465L78.3153 67.8189H65.3111V95.8334H48.557V67.8189H34.7236V52.5459H48.3778L48.557 38.048L48.507 32.8522C48.4902 31.097 48.8213 29.356 49.4814 27.7295C50.1414 26.1031 51.1171 24.6236 52.3522 23.3765C53.5873 22.1293 55.0573 21.1393 56.6773 20.4636C58.2973 19.7879 60.0351 19.4399 61.7903 19.4397H80.5465V37.2647Z" fill="#55ACEE"/>
</svg>
