<?xml version="1.0" encoding="UTF-8"?>
<!-- Uploaded to: SVG Find, www.svgrepo.com, Generator: SVG Find Mixer Tools -->
<svg fill="#000000" width="800px" height="800px" version="1.1" viewBox="144 144 512 512" xmlns="http://www.w3.org/2000/svg">
 <path d="m628.69 466.92c-4.2969-0.23828-8.0469 3.1133-8.2695 7.457-4.6055 110.14-133.85 172.64-223.12 108.36 28.035-14.785 50.812-38.332 64.719-66.766 32.859 11.73 69.305-14.043 68.734-49.062 0.042969-9.332-5.2578-37.441-19.031-30.266-3.6641 2.3359-4.7305 7.2109-2.3867 10.871 18.16 27.707-9.5898 64.141-41.129 53.852 8.0742-25.012 14.531-53.648 8.1211-79.512-0.015625-0.058594-0.042969-0.10938-0.058594-0.16406-0.011719-0.046875-0.019531-0.09375-0.046875-0.13281-4.3633-15.676-17.812-25.777-26.816-38.562 103.45-32.816 165.9 106.02 72.863 161.55-3.7969 2.1211-5.1523 6.918-3.0312 10.715 2.1328 3.8242 6.9883 5.1289 10.711 3.0273 111.92-67.5 32.438-233.33-90.426-188.38-7.4492-10.031-14.328-20.535-20.613-31.348 67.602-32.789 154.27-2.9531 186.78 65.012 4.7266 9.1328 18.586 2.3086 14.078-7.0508-36.293-75.957-133.54-108.98-208.73-71.609-41.168-75.652-46.258-141.26-46.305-141.93-0.23047-6.1016-7.9883-9.5898-12.695-5.668-109.51 85.434-113.69 188.96-109.87 231.86-17.766-23.059-18.141-70.059-16.293-89.496 1.0273-8.0195-10.59-11.965-14.574-4.8203-41.156 68.09-55.645 127.12-43.062 175.44 20.008 82.914 133.29 133.84 212.79 99.734 98.117 79.812 249.76 11.602 255.12-114.83 0.22266-4.3438-3.1133-8.043-7.457-8.2734zm-380.53 97.457c-84.078-49.531-83.633-125.43-38.41-214.6 1.5156 29.914 9.3086 72 39.988 84.801 2.7617 1.1602 5.9258 0.63672 8.1836-1.3164 2.2578-1.9531 3.2188-5.0117 2.4766-7.9023-0.32812-1.2695-30.141-124.39 90.379-226.73 3.832 25.18 15.578 79.812 50.129 140.62 9.082 15.883 19.109 31.422 30.215 45.871 9.2031 14.398 24.305 24.984 30.195 41.441 5.0703 22.961-1.0898 52.262-10.492 76.008-10.902 25.887-29.598 47.645-53.688 62.035 1.0039-55.906-33.473-112.69-69.379-151.87-1.5625-1.5898-3.7422-2.5078-5.9531-2.3438-2.2305 0.10156-4.3086 1.1367-5.7266 2.8594-8.6875 10.598-16.406 21.152-23.551 32.57-24.117 37.535-38.289 84.898-23.598 128.48-7.0078-2.75-13.953-6.0703-20.77-9.9375zm40.129 16.07c-24.09-51.324 1.4688-108.79 34.227-150.06 32.863 39.539 63.266 89.535 58.117 142.94-0.33594 0.13672-0.66016 0.30859-0.99609 0.4375-0.11719 0.050781-0.22656 0.089843-0.34766 0.13672-27.961 11.984-60.133 14.285-91 6.5469z"/>
</svg>