<?xml version="1.0" encoding="UTF-8"?>
<!-- Uploaded to: SVG Find, www.svgrepo.com, Generator: SVG Find Mixer Tools -->
<svg fill="#000000" width="800px" height="800px" version="1.1" viewBox="144 144 512 512" xmlns="http://www.w3.org/2000/svg">
 <g>
  <path d="m458.31 440.14c23.988-33.125 11.684-83.586-24.492-102.38-8.1836-4.5039-41.066-16.746-41.691-0.74219-0.003906 4.3477 3.5234 7.8711 7.8711 7.8711 54.785 0.33203 75.719 72.098 29.465 101.59-35.461 23.535-85.355-3.8945-84.566-46.488-0.003907-4.3438-3.5273-7.8711-7.875-7.8711-4.3477 0-7.8711 3.5234-7.8711 7.8711 0.27344 69.246 89.801 96.922 129.16 40.145z"/>
  <path d="m400 431.49c41.613-1.3242 41.602-61.66 0-62.977-41.613 1.3203-41.605 61.656 0 62.977zm0-47.234c20.762 0.54297 20.758 30.949 0 31.488-20.762-0.54297-20.758-30.949 0-31.488z"/>
  <path d="m266.43 277.57c3.0742 3.0742 8.0547 3.0742 11.133 0 28.816-28.82 66.945-46.617 107.36-50.105 10.266-1.0039 8.9766-16.504-1.3516-15.684-44.102 3.8047-85.703 23.219-117.14 54.66-3.0781 3.0742-3.0781 8.0586-0.003906 11.129z"/>
  <path d="m522.43 277.57c3.0742 3.0742 8.0547 3.0742 11.133 0 3.0742-3.0703 3.0742-8.0547 0-11.133-21.859-21.867-48.957-38.172-78.359-47.16-9.9219-2.8438-14.469 11.848-4.6055 15.059 26.949 8.2383 51.789 23.188 71.832 43.234z"/>
  <path d="m567.02 232.98c-59.457-60.52-150.82-83.734-232.16-60.055-9.8438 2.9961-5.7227 17.828 4.3281 15.137 75.922-22.094 161.2-0.4375 216.7 56.051 7.2266 7.2227 18.43-3.8008 11.133-11.133z"/>
  <path d="m280.61 205.18c-2.4023-3.625-7.2852-4.6328-10.91-2.2148-13.184 8.7383-25.539 18.836-36.715 30.016-3.0742 3.0742-3.0742 8.0586 0 11.133s8.0625 3.0742 11.133 0c10.438-10.441 21.973-19.867 34.277-28.023 3.625-2.3984 4.6172-7.2852 2.2148-10.91z"/>
  <path d="m518.08 305.54c-3.8125 0-7.5742 0.62109-11.125 1.6836-84.945-98.645-248.73-37.449-248.65 92.781-0.003907 60.359 37.375 113.03 93.605 133.23l-6.1211 50.652h-8.7656c-4.3477 0-7.8711 3.5234-7.8711 7.8711l-0.003906 36.531c0 4.3477 3.5234 7.8711 7.8711 7.8711h125.95c4.3477 0 7.8711-3.5234 7.8711-7.8711v-36.527c0-4.3477-3.5234-7.8711-7.8711-7.8711h-8.7656l-6.1211-50.652c63.395-22.129 103.1-88.855 91.707-155.58 32.23-21.176 16.996-72.168-21.715-72.125zm-62.977 314.88h-110.21v-20.785h110.21zm-93.457-36.527 5.5586-45.988c21.516 4.9688 44.074 4.9688 65.59 0l5.5586 45.988zm75.555-63.488c-78.887 25.707-164.92-36.996-163.15-120.4-0.14844-113.99 141.99-169.45 218.56-84.996-30.266 25.504-6.9648 75.578 32.176 68.617 8.4531 60.492-29.156 119.21-87.586 136.78zm90.668-154.05c-28.395 12.246-47.598-28.949-19.809-42.75 28.562-12.785 48 29.062 19.809 42.75z"/>
 </g>
</svg>