<svg width="44" height="45" viewBox="0 0 44 45" fill="none" xmlns="http://www.w3.org/2000/svg">
<g clip-path="url(#clip0_960_2)">
<path d="M43.9489 22.9211C43.9489 21.0774 43.7993 19.7321 43.4755 18.3369H22.4231V26.6581H34.7804C34.5314 28.7261 33.186 31.8403 30.1962 33.933L30.1543 34.2116L36.8107 39.3682L37.2719 39.4143C41.5072 35.5027 43.9489 29.7475 43.9489 22.9211Z" fill="#4285F4"/>
<path d="M22.4229 44.8454C28.4769 44.8454 33.5593 42.8522 37.2717 39.4141L30.196 33.9329C28.3026 35.2534 25.7613 36.1752 22.4229 36.1752C16.4933 36.1752 11.4607 32.2638 9.66673 26.8574L9.40377 26.8798L2.48236 32.2363L2.39185 32.4879C6.0791 39.8126 13.653 44.8454 22.4229 44.8454Z" fill="#34A853"/>
<path d="M9.66683 26.8572C9.19347 25.4621 8.91952 23.9671 8.91952 22.4225C8.91952 20.8777 9.19347 19.383 9.64192 17.9878L9.62939 17.6906L2.62124 12.248L2.39194 12.3571C0.872248 15.3967 0.000244141 18.81 0.000244141 22.4225C0.000244141 26.0351 0.872248 29.4482 2.39194 32.4877L9.66683 26.8572Z" fill="#FBBC05"/>
<path d="M22.4229 8.67006C26.6333 8.67006 29.4734 10.4888 31.0929 12.0086L37.4211 5.8299C33.5346 2.21737 28.4769 0 22.4229 0C13.653 0 6.0791 5.03261 2.39185 12.3573L9.64183 17.988C11.4607 12.5816 16.4933 8.67006 22.4229 8.67006Z" fill="#EB4335"/>
</g>
<defs>
<clipPath id="clip0_960_2">
<rect width="43.97" height="45" fill="white"/>
</clipPath>
</defs>
</svg>
