<svg width="100" height="100" viewBox="0 0 100 100" fill="none" xmlns="http://www.w3.org/2000/svg">
<path d="M84.375 15.625H15.625C13.9674 15.625 12.3777 16.2835 11.2056 17.4556C10.0335 18.6277 9.375 20.2174 9.375 21.875V71.875C9.375 73.5326 10.0335 75.1223 11.2056 76.2944C12.3777 77.4665 13.9674 78.125 15.625 78.125L38.8672 78.1484L44.6406 87.5898C45.1946 88.5139 45.978 89.2791 46.9148 89.8111C47.8517 90.3431 48.9101 90.6239 49.9875 90.6263C51.0649 90.6287 52.1246 90.3525 53.0638 89.8246C54.0029 89.2966 54.7897 88.5349 55.3477 87.6133L61.1445 78.125H84.375C86.0326 78.125 87.6223 77.4665 88.7944 76.2944C89.9665 75.1223 90.625 73.5326 90.625 71.875V21.875C90.625 20.2174 89.9665 18.6277 88.7944 17.4556C87.6223 16.2835 86.0326 15.625 84.375 15.625ZM32.8125 51.5625C31.8854 51.5625 30.9791 51.2876 30.2083 50.7725C29.4374 50.2574 28.8366 49.5254 28.4818 48.6688C28.127 47.8123 28.0342 46.8698 28.2151 45.9605C28.3959 45.0512 28.8424 44.216 29.4979 43.5604C30.1535 42.9049 30.9887 42.4584 31.898 42.2776C32.8073 42.0967 33.7498 42.1895 34.6063 42.5443C35.4629 42.8991 36.1949 43.4999 36.71 44.2708C37.2251 45.0416 37.5 45.9479 37.5 46.875C37.5 48.1182 37.0061 49.3105 36.1271 50.1896C35.248 51.0686 34.0557 51.5625 32.8125 51.5625ZM50 51.5625C49.0729 51.5625 48.1666 51.2876 47.3958 50.7725C46.6249 50.2574 46.0241 49.5254 45.6693 48.6688C45.3145 47.8123 45.2217 46.8698 45.4026 45.9605C45.5834 45.0512 46.0299 44.216 46.6854 43.5604C47.341 42.9049 48.1762 42.4584 49.0855 42.2776C49.9948 42.0967 50.9373 42.1895 51.7938 42.5443C52.6504 42.8991 53.3824 43.4999 53.8975 44.2708C54.4126 45.0416 54.6875 45.9479 54.6875 46.875C54.6875 48.1182 54.1936 49.3105 53.3146 50.1896C52.4355 51.0686 51.2432 51.5625 50 51.5625ZM67.1875 51.5625C66.2604 51.5625 65.3541 51.2876 64.5833 50.7725C63.8124 50.2574 63.2116 49.5254 62.8568 48.6688C62.502 47.8123 62.4092 46.8698 62.5901 45.9605C62.7709 45.0512 63.2174 44.216 63.8729 43.5604C64.5285 42.9049 65.3637 42.4584 66.273 42.2776C67.1823 42.0967 68.1248 42.1895 68.9813 42.5443C69.8379 42.8991 70.5699 43.4999 71.085 44.2708C71.6001 45.0416 71.875 45.9479 71.875 46.875C71.875 48.1182 71.3811 49.3105 70.5021 50.1896C69.623 51.0686 68.4307 51.5625 67.1875 51.5625Z" fill="#0081FF"/>
</svg>
