<svg width="100" height="100" viewBox="0 0 100 100" fill="none" xmlns="http://www.w3.org/2000/svg">
<path d="M83.3333 85.4168H16.6666C12.0833 85.4168 8.33331 81.6668 8.33331 77.0835V22.9168C8.33331 18.3335 12.0833 14.5835 16.6666 14.5835H83.3333C87.9166 14.5835 91.6666 18.3335 91.6666 22.9168V77.0835C91.6666 81.6668 87.9166 85.4168 83.3333 85.4168Z" fill="#8CBCD6"/>
<path d="M72.9167 39.5835C76.3685 39.5835 79.1667 36.7853 79.1667 33.3335C79.1667 29.8817 76.3685 27.0835 72.9167 27.0835C69.4649 27.0835 66.6667 29.8817 66.6667 33.3335C66.6667 36.7853 69.4649 39.5835 72.9167 39.5835Z" fill="#B3DDF5"/>
<path d="M44.1388 36.9293C42.9467 35.1954 40.3866 35.1954 39.1945 36.9293L21.981 61.9672C20.6125 63.9578 22.0376 66.6668 24.4531 66.6668H58.8802C61.2958 66.6668 62.7208 63.9577 61.3524 61.9672L44.1388 36.9293Z" fill="#9AC9E3"/>
<path d="M66.1451 47.7857C65.3444 46.7849 63.8223 46.7849 63.0216 47.7857L50.5162 63.4174C49.4686 64.727 50.4009 66.6668 52.0779 66.6668H77.0888C78.7658 66.6668 79.6981 64.727 78.6505 63.4174L66.1451 47.7857Z" fill="#B3DDF5"/>
</svg>
