<svg width="100" height="100" viewBox="0 0 100 100" fill="none" xmlns="http://www.w3.org/2000/svg">
<g clip-path="url(#clip0_308_104)">
<path d="M98.4371 27.7564L54.6873 3.49102C51.8285 1.91152 48.3588 1.91152 45.4998 3.49102L1.5625 27.7564C0.601367 28.3113 0.00683594 29.3342 0 30.4439C0.0853516 31.4689 0.669727 32.3863 1.5625 32.8971L45.3123 57.5375C48.165 59.141 51.6473 59.141 54.4998 57.5375L98.4371 32.8971C99.3299 32.3863 99.9143 31.4689 99.9996 30.4439C99.9928 29.3344 99.3982 28.3115 98.4371 27.7564Z" fill="#B06328"/>
<path d="M95.3121 30.2096V26.0533L90.6246 23.4127V34.5844L52.4998 51.225C50.9102 51.9162 49.1051 51.9162 47.5154 51.225L0 30.5692C0.123828 31.5485 0.70332 32.4115 1.5625 32.8973L45.3123 57.5377C48.165 59.1412 51.6473 59.1412 54.4998 57.5377L90.6246 37.2877L95.3121 34.6471L98.4371 32.9127C99.2963 32.4272 99.8758 31.5639 99.9996 30.5846L97.5621 31.6471C96.7873 32.027 95.8512 31.7069 95.4715 30.9321C95.3613 30.7074 95.3066 30.4596 95.3121 30.2096Z" fill="#A35425"/>
<path d="M15.4219 50.7565C13.8486 50.7914 12.5428 49.5485 12.5 47.9752V16.0377C12.5426 14.4645 13.8484 13.2215 15.4219 13.2565H84.5779C86.1512 13.2215 87.457 14.4645 87.4998 16.0377V47.9752C87.4572 49.5485 86.1514 50.7914 84.5779 50.7565H15.4219Z" fill="#3CB54A"/>
<path d="M37.4995 32.0065C37.4995 40.6315 43.0933 47.6315 49.9993 47.6315C56.9054 47.6315 62.4991 40.6317 62.4991 32.0065C62.4991 23.3813 56.9054 16.3815 49.9993 16.3815C43.0933 16.3815 37.4995 23.4129 37.4995 32.0065ZM59.3745 32.0065C59.3745 38.8971 55.1714 44.5063 49.9997 44.5063C44.828 44.5063 40.6247 38.9125 40.6247 32.0065C40.6247 25.1004 44.8278 19.5067 49.9997 19.5067C55.1716 19.5067 59.3745 25.1002 59.3745 32.0065Z" fill="#0E9347"/>
<path d="M29.6863 36.6932C32.2751 36.6932 34.3736 34.5946 34.3736 32.0059C34.3736 29.4172 32.2751 27.3186 29.6863 27.3186C27.0976 27.3186 24.999 29.4172 24.999 32.0059C24.999 34.5946 27.0976 36.6932 29.6863 36.6932Z" fill="#0E9347"/>
<path d="M70.3128 36.6932C72.9015 36.6932 75.0001 34.5946 75.0001 32.0059C75.0001 29.4172 72.9015 27.3186 70.3128 27.3186C67.7241 27.3186 65.6255 29.4172 65.6255 32.0059C65.6255 34.5946 67.7241 36.6932 70.3128 36.6932Z" fill="#0E9347"/>
<path d="M59.3748 32.0064C59.3748 38.897 55.1717 44.5062 50 44.5062C44.8283 44.5062 40.625 38.9124 40.625 32.0064C40.625 25.1003 44.8281 19.5066 50 19.5066C55.1719 19.5066 59.3748 25.1001 59.3748 32.0064Z" fill="#89C763"/>
<path d="M85.9375 10.1316H14.0625C11.4736 10.1316 9.375 12.2302 9.375 14.8191V49.1939C9.375 51.7828 11.4736 53.8814 14.0625 53.8814H85.9371C88.526 53.8814 90.6246 51.7828 90.6246 49.1939V14.8191C90.6248 12.2302 88.5262 10.1316 85.9375 10.1316ZM85.4373 40.8189C81.8764 42.2482 79.0541 45.0705 77.6248 48.6314C77.1775 49.8687 76.0029 50.6933 74.6873 50.6937H25.3752C24.0596 50.6931 22.885 49.8685 22.4377 48.6314C21.0084 45.0705 18.1861 42.2482 14.6252 40.8189C13.3633 40.3927 12.51 39.2134 12.5002 37.8814V26.1314C12.5008 24.8158 13.3254 23.6412 14.5627 23.1939C18.1236 21.7646 20.9459 18.9423 22.3752 15.3814C22.8086 14.0974 24.0203 13.2394 25.3752 13.2564H74.625C75.9406 13.257 77.1152 14.0816 77.5625 15.3189C78.9918 18.8798 81.8141 21.7021 85.375 23.1314C86.659 23.5648 87.517 24.7765 87.5 26.1314V37.8814C87.4992 39.1972 86.6748 40.3714 85.4373 40.8189Z" fill="#0E9347"/>
<path d="M85.9375 53.8813H14.0625C11.4736 53.8813 9.375 51.7827 9.375 49.1938V52.3188C9.375 54.9077 11.4736 57.0063 14.0625 57.0063H85.9371C88.526 57.0063 90.6246 54.9077 90.6246 52.3188V49.1938C90.6248 51.7827 88.5262 53.8813 85.9375 53.8813Z" fill="#0E9347"/>
<path d="M85.9375 53.8815H14.0625C11.4736 53.8815 9.375 51.7828 9.375 49.194V50.7565C9.375 53.3453 11.4736 55.444 14.0625 55.444H85.9371C88.526 55.444 90.6246 53.3453 90.6246 50.7565V49.194C90.6248 51.7828 88.5262 53.8815 85.9375 53.8815Z" fill="#04803D"/>
<path d="M85.9375 57.0065H14.0625C11.4736 57.0065 9.375 54.9078 9.375 52.319V55.444C9.375 58.0328 11.4736 60.1315 14.0625 60.1315H85.9371C88.526 60.1315 90.6246 58.0328 90.6246 55.444V52.319C90.6248 54.9076 88.5262 57.0065 85.9375 57.0065Z" fill="#0E9347"/>
<path d="M51.5625 30.444H48.4375C47.5746 30.444 46.875 29.7444 46.875 28.8815C46.875 28.0186 47.5746 27.319 48.4375 27.319H53.125C53.9879 27.319 54.6875 26.6194 54.6875 25.7565C54.6875 24.8936 53.9879 24.194 53.125 24.194H51.5625V22.6315C51.5625 21.7686 50.8629 21.069 50 21.069C49.1371 21.069 48.4375 21.7686 48.4375 22.6315V24.194C45.8486 24.194 43.75 26.2926 43.75 28.8815C43.75 31.4703 45.8486 33.569 48.4375 33.569H51.5625C52.4254 33.569 53.125 34.2686 53.125 35.1315C53.125 35.9944 52.4254 36.694 51.5625 36.694H46.875C46.0121 36.694 45.3125 37.3936 45.3125 38.2565C45.3125 39.1194 46.0121 39.819 46.875 39.819H48.4375V41.3815C48.4375 42.2444 49.1371 42.944 50 42.944C50.8629 42.944 51.5625 42.2444 51.5625 41.3815V39.819C54.1514 39.819 56.25 37.7203 56.25 35.1315C56.25 32.5426 54.1514 30.444 51.5625 30.444Z" fill="#0E9347"/>
<path d="M85.9375 57.0065H14.0625C11.4736 57.0065 9.375 54.9078 9.375 52.319V53.8815C9.375 56.4703 11.4736 58.569 14.0625 58.569H85.9371C88.526 58.569 90.6246 56.4703 90.6246 53.8815V52.319C90.6248 54.9076 88.5262 57.0065 85.9375 57.0065Z" fill="#04803D"/>
<path d="M99.9996 30.444C99.9143 31.469 99.3299 32.3864 98.4371 32.8971L54.6873 57.5377C51.8346 59.1412 48.3523 59.1412 45.4998 57.5377L1.5625 32.8973C0.669727 32.3865 0.0853516 31.4692 0 30.4442V93.2094C0 95.6514 1.97969 97.6313 4.42187 97.6313H95.5779C98.0199 97.6313 99.9998 95.6516 99.9998 93.2094V30.444H99.9996Z" fill="#FFCB5B"/>
<path d="M99.9996 30.4438C99.9143 31.4688 99.3299 32.3862 98.4371 32.897L54.6873 57.5376C51.8346 59.1411 48.3523 59.1411 45.4998 57.5376L1.56251 32.8972C1.33458 32.7688 1.12462 32.611 0.937506 32.4284C0.823053 32.3067 0.718561 32.1761 0.625006 32.0378L0.468756 31.8347C0.369537 31.6403 0.291022 31.436 0.234381 31.2253V31.1315C0.137116 30.9472 0.0587953 30.7534 6.21186e-06 30.5534C6.21186e-06 30.5534 6.21186e-06 30.5534 6.21186e-06 30.444V33.569C-0.00214223 34.6487 0.553131 35.653 1.46876 36.2253L45.0311 63.4439L45.5311 63.7564C48.34 65.4812 50.0365 68.5542 49.9998 71.8501V81.9595C49.9998 87.1976 45.7535 91.4439 40.5154 91.4439H14.0623C10.6106 91.4439 7.81231 94.2421 7.81231 97.6939H95.5775C98.0195 97.694 99.9996 95.7146 99.9998 93.2724C99.9998 93.2515 99.9996 93.2304 99.9994 93.2095L99.9996 30.4438Z" fill="#F7B84E"/>
</g>
<defs>
<clipPath id="clip0_308_104">
<rect width="100" height="100" fill="white"/>
</clipPath>
</defs>
</svg>
