<svg width="48" height="50" viewBox="0 0 48 50" fill="none" xmlns="http://www.w3.org/2000/svg">
<g clip-path="url(#clip0_1049_30)">
<path d="M25.74 6.08008H11.82C6.06234 6.08008 1.38 10.8431 1.38 16.7001V39.7101C1.38 40.1795 1.56333 40.6297 1.88964 40.9617C2.21595 41.2936 2.65853 41.4801 3.12 41.4801H25.74C31.4977 41.4801 36.18 36.717 36.18 30.8601V16.7001C36.18 10.8431 31.4977 6.08008 25.74 6.08008ZM22.26 29.0901H10.08V25.5501H22.26V29.0901ZM27.48 22.0101H10.08V18.4701H27.48V22.0101Z" fill="white"/>
<g clip-path="url(#clip1_1049_30)">
<path d="M28.5613 25.8996L28.5615 25.8995C32.4164 22.7322 38.4235 22.4857 42.6163 25.3365L42.6253 25.3429L42.888 25.5276C46.7235 28.3128 47.7175 32.9626 45.4373 36.6928L45.416 36.7263L45.1576 37.1335L45.3153 37.5892L46.6546 41.4593L46.6581 41.4704L46.6614 41.4875L46.6619 41.5019L46.661 41.5129L46.6553 41.5329L46.6545 41.5349L46.6401 41.5594L46.6278 41.5728L46.6192 41.5804L46.589 41.6011L46.5889 41.6011L46.5582 41.6142L46.5442 41.6185L46.5205 41.6227L46.4906 41.6237L46.4616 41.6214L46.4349 41.617L41.3418 40.5733L41.0392 40.5113L40.7544 40.6307L40.4905 40.7413C35.8669 42.5935 30.354 41.3801 27.3406 37.8607L28.5613 25.8996ZM28.5613 25.8996C24.6912 29.0776 24.1973 34.1884 27.3405 37.8606L28.5613 25.8996Z" fill="white" stroke="#D067F9" stroke-width="2"/>
<path d="M36.121 38.7098L35.4095 38.0883C32.8825 35.8895 31.2142 34.4346 31.2142 32.6595C31.2142 31.2046 32.4017 30.0698 33.9129 30.0698C34.7667 30.0698 35.5861 30.4512 36.121 31.0492C36.6558 30.4512 37.4752 30.0698 38.329 30.0698C39.8403 30.0698 41.0277 31.2046 41.0277 32.6595C41.0277 34.4346 39.3594 35.8895 36.8324 38.0883L36.121 38.7098Z" fill="#D067F9"/>
</g>
</g>
<defs>
<clipPath id="clip0_1049_30">
<rect width="48" height="50" fill="white"/>
</clipPath>
<clipPath id="clip1_1049_30">
<rect width="28.0385" height="27" fill="white" transform="matrix(-1 0 0 1 50 19)"/>
</clipPath>
</defs>
</svg>
