<svg width="100" height="100" viewBox="0 0 100 100" fill="none" xmlns="http://www.w3.org/2000/svg">
<path d="M50 91.6668C73.0125 91.6668 91.6666 73.0127 91.6666 50.0002C91.6666 26.9877 73.0125 8.3335 50 8.3335C26.9875 8.3335 8.33331 26.9877 8.33331 50.0002C8.33331 73.0127 26.9875 91.6668 50 91.6668Z" stroke="#212529" stroke-width="8.33333" stroke-linejoin="round"/>
<path fill-rule="evenodd" clip-rule="evenodd" d="M31.25 39.5837C32.6313 39.5837 33.9561 39.0349 34.9328 38.0582C35.9096 37.0814 36.4583 35.7567 36.4583 34.3753C36.4583 32.994 35.9096 31.6692 34.9328 30.6925C33.9561 29.7157 32.6313 29.167 31.25 29.167C29.8686 29.167 28.5439 29.7157 27.5671 30.6925C26.5904 31.6692 26.0416 32.994 26.0416 34.3753C26.0416 35.7567 26.5904 37.0814 27.5671 38.0582C28.5439 39.0349 29.8686 39.5837 31.25 39.5837ZM31.25 56.2503C32.6313 56.2503 33.9561 55.7016 34.9328 54.7248C35.9096 53.7481 36.4583 52.4233 36.4583 51.042C36.4583 49.6607 35.9096 48.3359 34.9328 47.3591C33.9561 46.3824 32.6313 45.8337 31.25 45.8337C29.8686 45.8337 28.5439 46.3824 27.5671 47.3591C26.5904 48.3359 26.0416 49.6607 26.0416 51.042C26.0416 52.4233 26.5904 53.7481 27.5671 54.7248C28.5439 55.7016 29.8686 56.2503 31.25 56.2503ZM50 39.5837C51.3813 39.5837 52.7061 39.0349 53.6828 38.0582C54.6596 37.0814 55.2083 35.7567 55.2083 34.3753C55.2083 32.994 54.6596 31.6692 53.6828 30.6925C52.7061 29.7157 51.3813 29.167 50 29.167C48.6186 29.167 47.2939 29.7157 46.3171 30.6925C45.3404 31.6692 44.7916 32.994 44.7916 34.3753C44.7916 35.7567 45.3404 37.0814 46.3171 38.0582C47.2939 39.0349 48.6186 39.5837 50 39.5837ZM50 56.2503C51.3813 56.2503 52.7061 55.7016 53.6828 54.7248C54.6596 53.7481 55.2083 52.4233 55.2083 51.042C55.2083 49.6607 54.6596 48.3359 53.6828 47.3591C52.7061 46.3824 51.3813 45.8337 50 45.8337C48.6186 45.8337 47.2939 46.3824 46.3171 47.3591C45.3404 48.3359 44.7916 49.6607 44.7916 51.042C44.7916 52.4233 45.3404 53.7481 46.3171 54.7248C47.2939 55.7016 48.6186 56.2503 50 56.2503ZM68.75 39.5837C70.1313 39.5837 71.4561 39.0349 72.4328 38.0582C73.4096 37.0814 73.9583 35.7567 73.9583 34.3753C73.9583 32.994 73.4096 31.6692 72.4328 30.6925C71.4561 29.7157 70.1313 29.167 68.75 29.167C67.3686 29.167 66.0439 29.7157 65.0671 30.6925C64.0904 31.6692 63.5416 32.994 63.5416 34.3753C63.5416 35.7567 64.0904 37.0814 65.0671 38.0582C66.0439 39.0349 67.3686 39.5837 68.75 39.5837ZM68.75 56.2503C70.1313 56.2503 71.4561 55.7016 72.4328 54.7248C73.4096 53.7481 73.9583 52.4233 73.9583 51.042C73.9583 49.6607 73.4096 48.3359 72.4328 47.3591C71.4561 46.3824 70.1313 45.8337 68.75 45.8337C67.3686 45.8337 66.0439 46.3824 65.0671 47.3591C64.0904 48.3359 63.5416 49.6607 63.5416 51.042C63.5416 52.4233 64.0904 53.7481 65.0671 54.7248C66.0439 55.7016 67.3686 56.2503 68.75 56.2503Z" fill="#212529"/>
<path d="M35.4166 68.75H64.5833" stroke="#212529" stroke-width="8.33333" stroke-linecap="round" stroke-linejoin="round"/>
</svg>
