<svg width="32" height="32" viewBox="0 0 32 32" fill="none" xmlns="http://www.w3.org/2000/svg">
<g filter="url(#filter0_i_594_37)">
<path d="M10.9531 14.14V8.57897C10.9717 7.26104 11.5083 6.0034 12.4469 5.07799C13.3855 4.15258 14.6506 3.63379 15.9686 3.63379C17.2867 3.63379 18.5518 4.15258 19.4903 5.07799C20.4289 6.0034 20.9655 7.26104 20.9841 8.57897V14.142" stroke="#C2C2C6" stroke-width="2.75"/>
</g>
<path d="M10.9531 14.14V8.57897C10.9717 7.26104 11.5083 6.0034 12.4469 5.07799C13.3855 4.15258 14.6506 3.63379 15.9686 3.63379C17.2867 3.63379 18.5518 4.15258 19.4903 5.07799C20.4289 6.0034 20.9655 7.26104 20.9841 8.57897V14.142" stroke="url(#paint0_radial_594_37)" stroke-width="2.75"/>
<g filter="url(#filter1_f_594_37)">
<path d="M11.3438 14.14V8.38001C11.3438 5.51301 13.6377 3.18701 16.4688 3.18701C19.2998 3.18701 21.5938 5.51301 21.5938 8.38101V14.141" stroke="url(#paint1_radial_594_37)"/>
<path d="M11.3438 14.14V8.38001C11.3438 5.51301 13.6377 3.18701 16.4688 3.18701C19.2998 3.18701 21.5938 5.51301 21.5938 8.38101V14.141" stroke="url(#paint2_radial_594_37)"/>
</g>
<g filter="url(#filter2_iiii_594_37)">
<path d="M23.9692 11.125H8.03125C6.3744 11.125 5.03125 12.4681 5.03125 14.125V26.969C5.03125 28.6259 6.3744 29.969 8.03125 29.969H23.9692C25.6261 29.969 26.9692 28.6259 26.9692 26.969V14.125C26.9692 12.4681 25.6261 11.125 23.9692 11.125Z" fill="url(#paint3_linear_594_37)"/>
</g>
<path d="M23.9692 11.125H8.03125C6.3744 11.125 5.03125 12.4681 5.03125 14.125V26.969C5.03125 28.6259 6.3744 29.969 8.03125 29.969H23.9692C25.6261 29.969 26.9692 28.6259 26.9692 26.969V14.125C26.9692 12.4681 25.6261 11.125 23.9692 11.125Z" fill="url(#paint4_radial_594_37)"/>
<path d="M23.9692 11.125H8.03125C6.3744 11.125 5.03125 12.4681 5.03125 14.125V26.969C5.03125 28.6259 6.3744 29.969 8.03125 29.969H23.9692C25.6261 29.969 26.9692 28.6259 26.9692 26.969V14.125C26.9692 12.4681 25.6261 11.125 23.9692 11.125Z" fill="url(#paint5_linear_594_37)"/>
<path d="M23.9692 11.125H8.03125C6.3744 11.125 5.03125 12.4681 5.03125 14.125V26.969C5.03125 28.6259 6.3744 29.969 8.03125 29.969H23.9692C25.6261 29.969 26.9692 28.6259 26.9692 26.969V14.125C26.9692 12.4681 25.6261 11.125 23.9692 11.125Z" fill="url(#paint6_radial_594_37)"/>
<g filter="url(#filter3_f_594_37)">
<path d="M17.3978 20.4622C17.8722 20.1565 18.2347 19.7051 18.4307 19.1759C18.6267 18.6466 18.6456 18.0681 18.4847 17.5271C18.3237 16.9862 17.9916 16.5121 17.5381 16.176C17.0847 15.84 16.5344 15.6602 15.9701 15.6636C15.4057 15.6671 14.8577 15.8535 14.4084 16.1951C13.959 16.5366 13.6327 17.0147 13.4783 17.5575C13.3239 18.1004 13.3499 18.6787 13.5523 19.2055C13.7547 19.7324 14.1226 20.1793 14.6008 20.4792V23.7732C14.6008 24.1441 14.7481 24.4998 15.0104 24.7621C15.2727 25.0243 15.6284 25.1717 15.9993 25.1717C16.3702 25.1717 16.7259 25.0243 16.9882 24.7621C17.2504 24.4998 17.3978 24.1441 17.3978 23.7732V20.4622Z" stroke="url(#paint7_linear_594_37)" stroke-width="1.75"/>
<path d="M17.3978 20.4622C17.8722 20.1565 18.2347 19.7051 18.4307 19.1759C18.6267 18.6466 18.6456 18.0681 18.4847 17.5271C18.3237 16.9862 17.9916 16.5121 17.5381 16.176C17.0847 15.84 16.5344 15.6602 15.9701 15.6636C15.4057 15.6671 14.8577 15.8535 14.4084 16.1951C13.959 16.5366 13.6327 17.0147 13.4783 17.5575C13.3239 18.1004 13.3499 18.6787 13.5523 19.2055C13.7547 19.7324 14.1226 20.1793 14.6008 20.4792V23.7732C14.6008 24.1441 14.7481 24.4998 15.0104 24.7621C15.2727 25.0243 15.6284 25.1717 15.9993 25.1717C16.3702 25.1717 16.7259 25.0243 16.9882 24.7621C17.2504 24.4998 17.3978 24.1441 17.3978 23.7732V20.4622Z" stroke="url(#paint8_linear_594_37)" stroke-width="1.75"/>
</g>
<path d="M17.3978 20.4622C17.8722 20.1565 18.2347 19.7051 18.4307 19.1759C18.6267 18.6466 18.6456 18.0681 18.4847 17.5271C18.3237 16.9862 17.9916 16.5121 17.5381 16.176C17.0847 15.84 16.5344 15.6602 15.9701 15.6636C15.4057 15.6671 14.8577 15.8535 14.4084 16.1951C13.959 16.5366 13.6327 17.0147 13.4783 17.5575C13.3239 18.1004 13.3499 18.6787 13.5523 19.2055C13.7547 19.7324 14.1226 20.1793 14.6008 20.4792V23.7732C14.6008 24.1441 14.7481 24.4998 15.0104 24.7621C15.2727 25.0243 15.6284 25.1717 15.9993 25.1717C16.3702 25.1717 16.7259 25.0243 16.9882 24.7621C17.2504 24.4998 17.3978 24.1441 17.3978 23.7732V20.4622Z" fill="url(#paint9_radial_594_37)"/>
<defs>
<filter id="filter0_i_594_37" x="9.57812" y="2.25879" width="13.7812" height="11.8833" filterUnits="userSpaceOnUse" color-interpolation-filters="sRGB">
<feFlood flood-opacity="0" result="BackgroundImageFix"/>
<feBlend mode="normal" in="SourceGraphic" in2="BackgroundImageFix" result="shape"/>
<feColorMatrix in="SourceAlpha" type="matrix" values="0 0 0 0 0 0 0 0 0 0 0 0 0 0 0 0 0 0 127 0" result="hardAlpha"/>
<feOffset dx="1"/>
<feGaussianBlur stdDeviation="0.5"/>
<feComposite in2="hardAlpha" operator="arithmetic" k2="-1" k3="1"/>
<feColorMatrix type="matrix" values="0 0 0 0 0.560784 0 0 0 0 0.556863 0 0 0 0 0.576471 0 0 0 1 0"/>
<feBlend mode="normal" in2="shape" result="effect1_innerShadow_594_37"/>
</filter>
<filter id="filter1_f_594_37" x="10.0938" y="1.93701" width="12.75" height="12.9541" filterUnits="userSpaceOnUse" color-interpolation-filters="sRGB">
<feFlood flood-opacity="0" result="BackgroundImageFix"/>
<feBlend mode="normal" in="SourceGraphic" in2="BackgroundImageFix" result="shape"/>
<feGaussianBlur stdDeviation="0.375" result="effect1_foregroundBlur_594_37"/>
</filter>
<filter id="filter2_iiii_594_37" x="4.28125" y="10.375" width="23.4375" height="20.3442" filterUnits="userSpaceOnUse" color-interpolation-filters="sRGB">
<feFlood flood-opacity="0" result="BackgroundImageFix"/>
<feBlend mode="normal" in="SourceGraphic" in2="BackgroundImageFix" result="shape"/>
<feColorMatrix in="SourceAlpha" type="matrix" values="0 0 0 0 0 0 0 0 0 0 0 0 0 0 0 0 0 0 127 0" result="hardAlpha"/>
<feOffset dy="-0.75"/>
<feGaussianBlur stdDeviation="0.375"/>
<feComposite in2="hardAlpha" operator="arithmetic" k2="-1" k3="1"/>
<feColorMatrix type="matrix" values="0 0 0 0 0.898039 0 0 0 0 0.364706 0 0 0 0 0.423529 0 0 0 1 0"/>
<feBlend mode="normal" in2="shape" result="effect1_innerShadow_594_37"/>
<feColorMatrix in="SourceAlpha" type="matrix" values="0 0 0 0 0 0 0 0 0 0 0 0 0 0 0 0 0 0 127 0" result="hardAlpha"/>
<feOffset dx="-1"/>
<feGaussianBlur stdDeviation="0.375"/>
<feComposite in2="hardAlpha" operator="arithmetic" k2="-1" k3="1"/>
<feColorMatrix type="matrix" values="0 0 0 0 1 0 0 0 0 0.772549 0 0 0 0 0.364706 0 0 0 1 0"/>
<feBlend mode="normal" in2="effect1_innerShadow_594_37" result="effect2_innerShadow_594_37"/>
<feColorMatrix in="SourceAlpha" type="matrix" values="0 0 0 0 0 0 0 0 0 0 0 0 0 0 0 0 0 0 127 0" result="hardAlpha"/>
<feOffset dy="1"/>
<feGaussianBlur stdDeviation="0.375"/>
<feComposite in2="hardAlpha" operator="arithmetic" k2="-1" k3="1"/>
<feColorMatrix type="matrix" values="0 0 0 0 1 0 0 0 0 0.843137 0 0 0 0 0.266667 0 0 0 1 0"/>
<feBlend mode="normal" in2="effect2_innerShadow_594_37" result="effect3_innerShadow_594_37"/>
<feColorMatrix in="SourceAlpha" type="matrix" values="0 0 0 0 0 0 0 0 0 0 0 0 0 0 0 0 0 0 127 0" result="hardAlpha"/>
<feOffset dx="0.75"/>
<feGaussianBlur stdDeviation="0.375"/>
<feComposite in2="hardAlpha" operator="arithmetic" k2="-1" k3="1"/>
<feColorMatrix type="matrix" values="0 0 0 0 0.729412 0 0 0 0 0.478431 0 0 0 0 0.207843 0 0 0 1 0"/>
<feBlend mode="normal" in2="effect3_innerShadow_594_37" result="effect4_innerShadow_594_37"/>
</filter>
<filter id="filter3_f_594_37" x="12.0039" y="14.2886" width="7.96484" height="12.2583" filterUnits="userSpaceOnUse" color-interpolation-filters="sRGB">
<feFlood flood-opacity="0" result="BackgroundImageFix"/>
<feBlend mode="normal" in="SourceGraphic" in2="BackgroundImageFix" result="shape"/>
<feGaussianBlur stdDeviation="0.25" result="effect1_foregroundBlur_594_37"/>
</filter>
<radialGradient id="paint0_radial_594_37" cx="0" cy="0" r="1" gradientUnits="userSpaceOnUse" gradientTransform="translate(15.9691 7.65597) rotate(-90) scale(4.84375 5.28858)">
<stop offset="0.531" stop-color="#AB83C0"/>
<stop offset="1" stop-color="#CBBBDC" stop-opacity="0"/>
</radialGradient>
<radialGradient id="paint1_radial_594_37" cx="0" cy="0" r="1" gradientUnits="userSpaceOnUse" gradientTransform="translate(21.8997 4.59401) rotate(136.74) scale(5.24397 7.20331)">
<stop offset="0.216" stop-color="#EDECF3"/>
<stop offset="1" stop-color="#EDECF3" stop-opacity="0"/>
</radialGradient>
<radialGradient id="paint2_radial_594_37" cx="0" cy="0" r="1" gradientUnits="userSpaceOnUse" gradientTransform="translate(12.5498 12.656) rotate(-90) scale(7.125 5.16319)">
<stop stop-color="#EDECF3"/>
<stop offset="1" stop-color="#EDECF3" stop-opacity="0"/>
</radialGradient>
<linearGradient id="paint3_linear_594_37" x1="10.1563" y1="14.188" x2="17.0943" y2="29.969" gradientUnits="userSpaceOnUse">
<stop stop-color="#FFC74E"/>
<stop offset="1" stop-color="#F7864E"/>
</linearGradient>
<radialGradient id="paint4_radial_594_37" cx="0" cy="0" r="1" gradientUnits="userSpaceOnUse" gradientTransform="translate(26.4062 29.969) rotate(-132.274) scale(3.25195 7.57598)">
<stop stop-color="#FF8650"/>
<stop offset="1" stop-color="#FF8650" stop-opacity="0"/>
</radialGradient>
<linearGradient id="paint5_linear_594_37" x1="16.0002" y1="10.813" x2="16.0002" y2="12.313" gradientUnits="userSpaceOnUse">
<stop stop-color="#F3D04E"/>
<stop offset="1" stop-color="#F3D04E" stop-opacity="0"/>
</linearGradient>
<radialGradient id="paint6_radial_594_37" cx="0" cy="0" r="1" gradientUnits="userSpaceOnUse" gradientTransform="translate(26.6572 11.124) rotate(126.254) scale(2.32513 5.25171)">
<stop stop-color="#FFF760"/>
<stop offset="1" stop-color="#FFF760" stop-opacity="0"/>
</radialGradient>
<linearGradient id="paint7_linear_594_37" x1="19.1248" y1="21.7502" x2="15.2498" y2="21.7502" gradientUnits="userSpaceOnUse">
<stop offset="0.331" stop-color="#D98A40"/>
<stop offset="1" stop-color="#D98A40" stop-opacity="0"/>
</linearGradient>
<linearGradient id="paint8_linear_594_37" x1="12.8748" y1="20.8132" x2="15.5938" y2="20.8132" gradientUnits="userSpaceOnUse">
<stop stop-color="#FFCD63"/>
<stop offset="1" stop-color="#FFCD63" stop-opacity="0"/>
</linearGradient>
<radialGradient id="paint9_radial_594_37" cx="0" cy="0" r="1" gradientUnits="userSpaceOnUse" gradientTransform="translate(13.3784 18.6879) rotate(34.061) scale(5.69121 7.82719)">
<stop offset="0.217" stop-color="#564F80"/>
<stop offset="1" stop-color="#473154"/>
</radialGradient>
</defs>
</svg>
