<svg width="100" height="100" viewBox="0 0 100 100" fill="none" xmlns="http://www.w3.org/2000/svg">
<path d="M90.0374 56.5083L90.9958 46.3583C91.7458 38.3916 92.1208 34.4041 90.7541 32.7583C90.4105 32.3292 89.9848 31.9729 89.5019 31.7103C89.019 31.4478 88.4885 31.2841 87.9416 31.2291C85.9583 31.0541 83.4707 33.8874 78.4916 39.5541C75.9166 42.4874 74.6291 43.9499 73.1957 44.1791C72.3952 44.3039 71.5756 44.1726 70.8541 43.8041C69.5249 43.1374 68.6457 41.3249 66.8749 37.7041L57.5541 18.6041C54.2124 11.7583 52.5416 8.33325 49.9999 8.33325C47.4583 8.33325 45.7874 11.7583 42.4458 18.6041L33.1249 37.7041C31.3583 41.3291 30.4749 43.1374 29.1458 43.8041C28.424 44.1721 27.6047 44.3033 26.8041 44.1791C25.3708 43.9499 24.0833 42.4874 21.5083 39.5541C16.5291 33.8874 14.0416 31.0541 12.0583 31.2291C11.5113 31.2841 10.9809 31.4478 10.4979 31.7103C10.015 31.9729 9.58932 32.3292 9.24576 32.7583C7.88326 34.4041 8.25825 38.3916 9.00825 46.3583L9.96242 56.5083C11.5374 73.2249 12.3208 81.5874 17.2541 86.6249C22.1749 91.6666 29.5583 91.6666 44.3333 91.6666H55.6624C70.4333 91.6666 77.8166 91.6666 82.7457 86.6249C87.6749 81.5833 88.4624 73.2249 90.0374 56.5083Z" stroke="#8B93B1" stroke-width="6.25"/>
<path d="M37.5 75H62.5" stroke="#55ACEE" stroke-width="6.25" stroke-linecap="round"/>
</svg>
