<svg width="24" height="24" viewBox="0 0 24 24" fill="none" xmlns="http://www.w3.org/2000/svg">
<path d="M12 2C9.25 2 7 4.25 7 7V9H9V7C9 5.35 10.35 4 12 4C13.65 4 15 5.35 15 7V9H17V7C17 4.25 14.75 2 12 2Z" fill="#424242"/>
<path d="M18 22H6C4.9 22 4 21.1 4 20V11C4 9.9 4.9 9 6 9H18C19.1 9 20 9.9 20 11V20C20 21.1 19.1 22 18 22Z" fill="#FB8C00"/>
<path d="M12 18.5C13.6569 18.5 15 17.1569 15 15.5C15 13.8431 13.6569 12.5 12 12.5C10.3431 12.5 9 13.8431 9 15.5C9 17.1569 10.3431 18.5 12 18.5Z" fill="#EFEBE9"/>
<path d="M12 17C12.8284 17 13.5 16.3284 13.5 15.5C13.5 14.6716 12.8284 14 12 14C11.1716 14 10.5 14.6716 10.5 15.5C10.5 16.3284 11.1716 17 12 17Z" fill="#1E88E5"/>
<path d="M13 15C13.2761 15 13.5 14.7761 13.5 14.5C13.5 14.2239 13.2761 14 13 14C12.7239 14 12.5 14.2239 12.5 14.5C12.5 14.7761 12.7239 15 13 15Z" fill="white"/>
</svg>
