<svg width="100" height="100" viewBox="0 0 100 100" fill="none" xmlns="http://www.w3.org/2000/svg">
<path d="M73.0781 15.3047L26.9297 17.1562L14.3047 60.9453L49.6719 91.9297L88.7422 61.2813L73.0781 15.3047Z" fill="#C54C0F"/>
<path d="M69.7891 12.3283C69.1016 13.0939 67.6485 22.9611 68.5313 23.672C69.4141 24.3829 79.6875 20.9923 80.2188 20.0158C80.75 19.047 80.4844 10.1173 79.6016 9.14857C78.711 8.172 70.586 11.4454 69.7891 12.3283ZM20.5625 9.05482C19.3828 9.96107 19.3281 20.1017 20.0313 20.7189C20.7344 21.3361 29.8438 25.2267 31.1719 23.9064C32.5 22.5861 31.2578 12.6798 30.6407 11.9767C30.0235 11.2658 21.6719 8.21107 20.5625 9.05482ZM2.46877 65.7892C2.94534 66.797 11.1797 68.4767 12.7891 67.8204C15.1719 66.8517 20.2422 59.9064 19.9766 58.9376C19.711 57.9689 8.99221 56.1564 8.1094 56.7736C7.22659 57.3908 1.78909 64.3517 2.46877 65.7892ZM50.2578 81.0158C49.375 80.9454 44.5078 89.672 44.5078 91.0001C44.5078 92.3283 49.6407 98.5548 50.4297 98.6095C51.3516 98.672 56.7813 92.0548 56.5235 91.0001C56.25 89.9376 51.4063 81.1017 50.2578 81.0158ZM80.3047 59.3439C79.9922 60.2814 85.6094 67.6486 86.8438 67.9142C88.0782 68.1798 97.1797 66.5861 97.625 64.7345C98.0703 62.8829 91.6172 56.2501 90.5547 55.7189C89.4922 55.1876 80.7422 58.0158 80.3047 59.3439Z" fill="#A62714"/>
<path d="M45.7657 44.9764L57.0625 43.2577C57.0625 43.2577 58.1094 34.7498 61.6172 30.1561C65.125 25.5623 70.4453 21.9295 70.4453 15.3358C70.4453 8.74204 66.086 3.47641 61.336 3.28891C56.586 3.10141 53.5469 5.86704 49.6563 5.67954C45.7657 5.49204 42.0625 3.38266 36.9375 4.14829C31.8125 4.91391 27.4453 12.2733 29.7188 18.492C32 24.7108 38.125 28.0311 40.0703 32.0702C41.211 34.4373 43.586 44.6952 43.586 44.6952L45.7657 44.9764Z" fill="#FE6111"/>
<path d="M54.8359 40.7733C54.8359 40.7733 62.5312 38.3358 66.1875 30.9218C69.8437 23.5077 71.7266 20.2265 77.1641 19.1015C82.6016 17.9765 87.1094 20.5077 89.6406 23.703C92.1719 26.8905 90.8594 35.5233 91.4219 37.4061C91.9844 39.289 97.4297 44.0702 96.9609 48.5702C96.4922 53.0702 91.7031 59.2655 85.6094 58.9843C79.5078 58.703 75.8516 55.3358 71.8203 54.2108C67.7891 53.0858 61.1641 53.9608 61.1641 53.9608L52.2109 44.1561L54.8359 40.7733ZM44.9844 41.3358C44.9844 41.3358 37.9141 35.9999 35.625 33.6483C32.4141 30.3515 30.125 20.203 21.1562 18.7265C13.9375 17.539 9.99218 22.289 8.96093 26.703C7.92968 31.1171 8.77343 34.2108 8.39843 35.6171C8.02343 37.0233 3.70312 42.8436 3.04687 46.5936C2.39062 50.3436 4.17187 57.8515 11.0234 58.9765C17.875 60.1015 20.7812 56.914 22.8437 55.6952C24.9062 54.4765 28.6641 52.6015 31.7578 52.8827C34.8516 53.164 39.3594 52.6952 39.3594 52.6952L44.9844 41.3358ZM37.3828 54.1952C37.3828 54.1952 31.7812 57.0233 28.3437 58.2655C24.3672 59.703 18.2422 58.4218 13.7344 64.1405C9.22656 69.8593 9.32812 76.2421 13.1719 79.9061C17.0156 83.5702 21.7109 82.9999 23.9609 85.164C26.2109 87.3202 29.9687 93.8905 34.5625 94.7343C39.1562 95.578 46.2891 93.6093 47.6953 86.8515C49.1016 80.0936 46.6641 74.1874 47.8828 70.0546C49.1016 65.9296 52.4453 61.5624 52.4453 61.5624L37.3828 54.1952Z" fill="#FE6111"/>
<path d="M61.3359 51.6641L48.7422 63.3906C48.7422 63.3906 51.6484 68.2734 52.2109 71.6484C52.7734 75.0234 49.9609 87.6953 55.4922 92.1953C61.0312 96.6953 67.3906 95.3828 70.6719 90.9688C73.9531 86.5625 75.5 84.6953 77.2812 83.2891C79.0625 81.8828 88.2422 78.2266 88.9922 73.5313C89.7422 68.8359 88.6094 66.4844 84.1094 63.0078C79.6094 59.5391 73.9766 60.4766 69.9375 58.7891C67.2891 57.6797 61.3359 51.6641 61.3359 51.6641Z" fill="#FE6111"/>
<path d="M51.9296 42.2733C51.9296 42.2733 58.2109 32.8983 58.3124 26.6952C58.4062 20.6874 54.5624 17.2187 50.1484 17.4062C44.9843 17.6249 41.9843 22.1015 42.7343 27.8202C43.4843 33.539 48.9062 42.9452 48.9062 42.9452L51.9296 42.2733ZM55.3984 45.8437C55.3984 45.8437 63.0937 38.0546 68.2499 35.4296C73.414 32.8046 78.4765 34.5858 80.3515 39.7421C82.2265 44.8983 77.6327 49.6874 72.8437 50.2499C68.0546 50.8124 56.5155 50.6249 56.5155 50.6249L55.3984 45.8437ZM41.9843 45.2812C41.9843 45.2812 36.7265 37.6796 31.0077 34.5858C25.289 31.4921 19.3749 33.3671 18.2499 38.1483C17.1249 42.9374 19.539 47.8358 26.4921 49.0468C32.9609 50.1718 41.6093 46.8749 41.6093 46.8749L41.9843 45.2812ZM46.3515 54.1483C46.3515 54.1483 37.7577 56.8202 35.414 58.1327C33.0702 59.4452 27.8593 62.5155 27.6718 68.2421C27.4843 73.9687 31.1405 76.414 36.2968 75.8515C41.4609 75.289 44.4218 69.0155 44.9843 65.7265C45.5468 62.453 46.3515 54.1483 46.3515 54.1483ZM52.1171 55.3202C52.1171 55.3202 52.1484 64.9999 54.3359 69.8124C56.6874 74.9921 62.914 78.2265 67.1249 75.2108C71.0624 72.3983 70.7812 65.9218 66.5624 61.3202C62.3437 56.7187 53.6171 53.9999 53.6171 53.9999L52.1171 55.3202Z" fill="#FFA624"/>
<path d="M50.1016 41.5158C50.1016 41.5158 49.4922 38.1252 51.5078 35.8596C53.8985 33.1642 57.211 33.5783 59.6094 35.1721C62 36.758 63.2031 40.3517 60.7344 43.383C58.6484 45.9533 55.6485 45.8517 55.6485 45.8517L50.1016 41.5158ZM55.9531 47.6096C55.9531 47.6096 57.7031 45.9299 60.7969 46.3283C63.7969 46.7189 66.5313 49.6799 65.6406 53.1877C64.6953 56.8908 62.2735 58.8361 58.1719 57.6252C54.1719 56.4455 53.7969 52.9846 53.7969 52.9846L55.9531 47.6096ZM45.1953 55.0392C45.1953 55.0392 42.5078 57.3908 43.1094 61.2971C43.6406 64.7111 45.7969 66.2736 49.2969 66.4767C52.7969 66.6799 55.4844 63.7189 55.2188 60.2189C54.9531 56.7189 51.0469 53.4221 51.0469 53.4221L45.1953 55.0392ZM42.0938 47.4064C42.0938 47.4064 38.1172 45.4377 35.3672 47.0705C32.5391 48.7502 31.8672 52.5861 32.8125 54.6721C33.7578 56.758 35.5235 58.8049 39 58.2346C42.7031 57.633 44.4453 53.7267 44.4453 53.7267L42.0938 47.4064ZM48.5547 42.0236C48.5547 42.0236 49.3594 38.7971 46.7422 35.8986C44.1172 33.008 40.0156 33.6096 38.0625 35.8283C36.1094 38.0471 35.3047 41.6799 37.9297 44.2346C40.2813 46.5236 44.3203 45.9142 44.3203 45.9142L48.5547 42.0236Z" fill="#FFFEFF"/>
<path d="M43.4375 42.9688C40.3281 45.9063 39.3985 51.6485 42.9688 55.0079C46.5313 58.3751 52.2344 58.047 54.9922 55.5548C57.75 53.0626 58.7813 48.3517 56.086 44.1798C53.3985 40.0079 47.0703 39.5392 43.4375 42.9688Z" fill="#FCC318"/>
</svg>
