<svg width="660" height="896" viewBox="0 0 660 896" fill="none" xmlns="http://www.w3.org/2000/svg">
<path d="M330 560C423.9 560 500 484.8 500 392V168C500 75.2 423.9 0 330 0C236.1 0 160 75.2 160 168V392C160 484.8 236.1 560 330 560ZM660 390C660 385.6 656.4 382 652 382H592C587.6 382 584 385.6 584 390C584 530.3 470.3 644 330 644C189.7 644 76 530.3 76 390C76 385.6 72.4 382 68 382H8C3.6 382 0 385.6 0 390C0 558.7 126.6 697.9 290 717.6V820H144.7C131 820 120 834.3 120 852V888C120 892.4 122.8 896 126.2 896H533.8C537.2 896 540 892.4 540 888V852C540 834.3 529 820 515.3 820H366V718.1C531.3 700.1 660 560.1 660 390Z" fill="#8B93B1"/>
</svg>
