<svg width="100" height="100" viewBox="0 0 100 100" fill="none" xmlns="http://www.w3.org/2000/svg">
<g clip-path="url(#clip0_308_14)">
<path d="M82.1653 48.3268L91.87 40.9646L82.1653 33.5827L87.7362 22.7362L75.7874 20.3346L76.1023 8.12992L64.311 11.1417L59.311 0L50 7.87402L40.6889 0L35.6889 11.1417L23.8976 8.11024L24.2126 20.3346L12.2637 22.7362L17.8346 33.5827L8.12988 40.9646L17.8346 48.3268L12.2637 59.1929L24.2126 61.5945L23.8976 73.7992L35.6889 70.7874L40.6889 81.9291L50 74.0551L59.311 81.9291L64.311 70.7874L76.1023 73.7992L75.7874 61.5945L87.7362 59.1929L82.1653 48.3268Z" fill="#FFD15C"/>
<path d="M35.6891 70.7875L23.8977 73.7993L24.1733 62.756L21.8505 66.8898L9.11426 89.4292L23.6615 85.3938L27.6969 100L38.1103 81.5946L39.4489 79.193L35.6891 70.7875Z" fill="#FF7058"/>
<path d="M78.1302 66.1614L75.8074 62.0276L76.1027 73.7992L64.3114 70.7874L60.709 78.7992L62.0673 81.2008L72.6972 100L76.7326 85.3937L91.2799 89.4292L78.1302 66.1614Z" fill="#FF7058"/>
<path d="M39.4491 79.193L38.1105 81.5946L34.4294 73.4056L21.5947 76.693L21.8506 66.8898L24.1735 62.756L23.8979 73.7993L35.6892 70.7875L39.4491 79.193Z" fill="#F1543F"/>
<path d="M78.4058 76.6929L65.5712 73.4055L62.0673 81.2008L60.709 78.7992L64.3114 70.7874L76.1027 73.7992L75.8074 62.0276L78.1302 66.1614L78.4058 76.6929Z" fill="#F1543F"/>
<path d="M50 67.0472C64.3616 67.0472 76.004 55.3696 76.004 40.9645C76.004 26.5594 64.3616 14.8818 50 14.8818C35.6385 14.8818 23.9961 26.5594 23.9961 40.9645C23.9961 55.3696 35.6385 67.0472 50 67.0472Z" fill="#F8B64C"/>
<path d="M43.7994 54.3897L33.9766 44.5472L38.5238 39.9803L43.7994 45.2756L61.4766 27.5197L66.0238 32.0866L43.7994 54.3897Z" fill="#F2F2F2"/>
</g>
<defs>
<clipPath id="clip0_308_14">
<rect width="100" height="100" fill="white"/>
</clipPath>
</defs>
</svg>
