<svg width="150" height="150" viewBox="0 0 150 150" fill="none" xmlns="http://www.w3.org/2000/svg">
<g clip-path="url(#clip0_1192_137)">
<path d="M75 0C33.5813 0 0 31.0875 0 69.4438C0.0922326 79.978 2.64886 90.3445 7.46532 99.7137C12.2818 109.083 19.2243 117.195 27.7375 123.4L27.9312 123.531V150L53.4813 135.987C59.925 137.831 67.325 138.888 74.975 138.888H75C116.419 138.888 150 107.794 150 69.45C150 31.1063 116.419 0 75 0ZM82.4437 93.5188L63.35 73.125L26.0812 93.5L67.075 50L86.6437 70.3687L123.45 50L82.4437 93.5188Z" fill="black"/>
</g>
<defs>
<clipPath id="clip0_1192_137">
<rect width="150" height="150" fill="white"/>
</clipPath>
</defs>
</svg>
