<svg width="100" height="100" viewBox="0 0 100 100" fill="none" xmlns="http://www.w3.org/2000/svg">
<path d="M49.9999 8.3335C44.5282 8.3335 39.11 9.41124 34.0548 11.5052C28.9996 13.5991 24.4063 16.6683 20.5371 20.5374C12.7231 28.3514 8.33326 38.9495 8.33326 50.0002C8.29684 59.6216 11.6282 68.9524 17.7499 76.3752L9.4166 84.7085C8.83844 85.2944 8.44679 86.0385 8.29106 86.8468C8.13534 87.6551 8.22252 88.4914 8.5416 89.2502C8.88767 89.9999 9.4487 90.6298 10.1535 91.0601C10.8582 91.4904 11.6749 91.7016 12.4999 91.6668H49.9999C61.0506 91.6668 71.6487 87.277 79.4627 79.4629C87.2767 71.6489 91.6666 61.0508 91.6666 50.0002C91.6666 38.9495 87.2767 28.3514 79.4627 20.5374C71.6487 12.7234 61.0506 8.3335 49.9999 8.3335ZM49.9999 83.3335H22.5416L26.4166 79.4585C27.1926 78.6778 27.6282 77.6218 27.6282 76.521C27.6282 75.4202 27.1926 74.3642 26.4166 73.5835C20.9607 68.1337 17.5632 60.9607 16.8028 53.2868C16.0425 45.6129 17.9664 37.9127 22.2467 31.4982C26.5271 25.0837 32.8991 20.3517 40.2771 18.1084C47.6551 15.8651 55.5827 16.2493 62.7092 19.1956C69.8356 22.1419 75.7201 27.468 79.3601 34.2664C83 41.0648 84.1702 48.9149 82.6713 56.4794C81.1724 64.0438 77.097 70.8545 71.1397 75.7512C65.1823 80.6478 57.7114 83.3274 49.9999 83.3335Z" fill="#8B93B1"/>
</svg>
