<svg width="100" height="100" viewBox="0 0 100 100" fill="none" xmlns="http://www.w3.org/2000/svg">
<path d="M66.4064 9.375V3.125C66.4064 2.5034 66.6533 1.90726 67.0929 1.46772C67.5324 1.02818 68.1286 0.78125 68.7502 0.78125C69.3718 0.78125 69.9679 1.02818 70.4074 1.46772C70.847 1.90726 71.0939 2.5034 71.0939 3.125V9.375C71.0939 9.9966 70.847 10.5927 70.4074 11.0323C69.9679 11.4718 69.3718 11.7188 68.7502 11.7188C68.1286 11.7188 67.5324 11.4718 67.0929 11.0323C66.6533 10.5927 66.4064 9.9966 66.4064 9.375ZM80.0275 15.332C80.2904 15.4925 80.5823 15.5995 80.8865 15.6471C81.1908 15.6947 81.5014 15.6818 81.8007 15.6092C82.1 15.5367 82.3821 15.4059 82.6308 15.2243C82.8795 15.0426 83.0899 14.8138 83.2502 14.5508L86.3752 9.42969C86.5442 9.16691 86.6589 8.873 86.7127 8.56523C86.7665 8.25746 86.7582 7.94204 86.6883 7.63753C86.6184 7.33302 86.4883 7.04555 86.3057 6.79204C86.1231 6.53852 85.8916 6.32408 85.625 6.16131C85.3583 5.99854 85.0617 5.89073 84.7528 5.84422C84.4438 5.79771 84.1287 5.81345 83.8259 5.8905C83.5231 5.96755 83.2388 6.10436 82.9897 6.29288C82.7405 6.4814 82.5316 6.71784 82.3752 6.98828L79.2502 12.1094C79.0895 12.372 78.9822 12.6637 78.9344 12.9678C78.8865 13.2719 78.8991 13.5825 78.9712 13.8817C79.0434 14.181 79.1739 14.4631 79.3551 14.712C79.5363 14.9608 79.7648 15.1715 80.0275 15.332ZM97.4103 21.1602C97.3163 20.8669 97.1654 20.5951 96.9663 20.3602C96.7671 20.1253 96.5237 19.932 96.2498 19.7912C95.9759 19.6504 95.6769 19.565 95.37 19.5399C95.0631 19.5147 94.7543 19.5503 94.4611 19.6445L88.6017 21.5391C88.0673 21.7083 87.6113 22.0634 87.3163 22.54C87.0213 23.0167 86.9069 23.5832 86.9939 24.137C87.0808 24.6907 87.3633 25.195 87.7902 25.5583C88.217 25.9216 88.7599 26.1199 89.3205 26.1172C89.5647 26.1164 89.8073 26.0768 90.0392 26L95.8986 24.1094C96.4901 23.9187 96.9816 23.5009 97.2651 22.9478C97.5486 22.3947 97.6008 21.7517 97.4103 21.1602ZM85.758 36.9102C89.1431 42.733 90.4955 49.5162 89.6023 56.192C88.7091 62.8678 85.6211 69.057 80.8244 73.7852C79.2162 79.5667 75.9366 84.7446 71.3969 88.6694C66.8572 92.5941 61.2596 95.0909 55.3063 95.8465C49.353 96.602 43.3092 95.5828 37.9329 92.9166C32.5567 90.2503 28.0876 86.0559 25.0861 80.8594L11.4142 57.1758C10.5913 55.7504 10.1581 54.1336 10.1582 52.4878C10.1583 50.8419 10.5917 49.2251 11.4147 47.7999C12.2378 46.3746 13.4216 45.1912 14.8471 44.3685C16.2725 43.5458 17.8895 43.1129 19.5353 43.1133L17.3439 39.3125C16.5462 37.926 16.1166 36.3584 16.0958 34.7589C16.0751 33.1594 16.464 31.5812 17.2255 30.1744C17.987 28.7677 19.0958 27.5792 20.4464 26.722C21.797 25.8649 23.3445 25.3675 24.9416 25.2773C23.9401 23.2316 23.7177 20.8912 24.3159 18.6934C24.9141 16.4956 26.2919 14.5908 28.192 13.3348C30.0921 12.0787 32.3845 11.5574 34.6409 11.8681C36.8973 12.1789 38.9635 13.3005 40.4533 15.0234C41.2541 13.568 42.4274 12.3515 43.8528 11.4984C45.2783 10.6454 46.9049 10.1864 48.566 10.1685C50.2272 10.1506 51.8632 10.5745 53.3067 11.3966C54.7503 12.2188 55.9494 13.4098 56.7814 14.8477L62.1095 24.0586C62.9326 22.6343 64.116 21.4516 65.5408 20.6293C66.9656 19.8071 68.5817 19.3742 70.2267 19.3742C71.8718 19.3742 73.4879 19.8071 74.9127 20.6293C76.3375 21.4516 77.5208 22.6343 78.3439 24.0586L85.758 36.9102ZM44.6017 21.875L46.9806 26C47.7378 26.6718 48.3791 27.4636 48.8791 28.3437L54.2033 37.5469C54.9756 36.1991 56.0713 35.0649 57.3916 34.2466C58.7119 33.4282 60.2152 32.9515 61.7658 32.8594L52.7345 17.1875C52.1129 16.1106 51.089 15.3247 49.8879 15.0027C48.6869 14.6808 47.4072 14.8491 46.3302 15.4707C45.2533 16.0923 44.4674 17.1163 44.1455 18.3173C43.8235 19.5183 43.9918 20.7981 44.6134 21.875H44.6017ZM29.297 23.4961L31.6798 27.6211C31.99 27.8993 32.281 28.1982 32.5509 28.5156C33.3125 27.1192 34.4179 25.9403 35.7626 25.0907C37.1072 24.241 38.6464 23.7486 40.2345 23.6602L37.4181 18.8086C37.1103 18.2754 36.7005 17.808 36.2121 17.4331C35.7237 17.0582 35.1662 16.7832 34.5715 16.6238C33.9768 16.4644 33.3566 16.4237 32.7461 16.504C32.1357 16.5843 31.5471 16.784 31.0138 17.0918C29.9369 17.7134 29.151 18.7373 28.8291 19.9384C28.5071 21.1394 28.6754 22.4192 29.297 23.4961ZM76.3752 72.3008C77.2602 69.0311 77.4884 65.6183 77.0466 62.2599C76.6047 58.9015 75.5016 55.6639 73.8009 52.7344L66.3791 39.8789C65.7679 38.8372 64.7781 38.0715 63.6162 37.7417C62.4543 37.4118 61.21 37.5432 60.1426 38.1084C59.0751 38.6736 58.2671 39.6289 57.8869 40.7753C57.5067 41.9218 57.5836 43.1707 58.1017 44.2617L62.5548 51.957C62.7154 52.2238 62.8213 52.5199 62.8662 52.828C62.9111 53.1361 62.8941 53.4501 62.8163 53.7516C62.7385 54.0531 62.6014 54.3361 62.413 54.584C62.2246 54.832 61.9886 55.0398 61.719 55.1956C61.4493 55.3513 61.1514 55.4517 60.8425 55.491C60.5336 55.5302 60.2199 55.5076 59.9199 55.4242C59.6199 55.3409 59.3395 55.1987 59.095 55.0058C58.8506 54.8129 58.647 54.5732 58.4962 54.3008L44.8244 30.668C44.5194 30.1332 44.1121 29.6637 43.6257 29.2864C43.1393 28.909 42.5833 28.6311 41.9895 28.4686C41.3958 28.3061 40.7758 28.2622 40.165 28.3393C39.5542 28.4164 38.9646 28.613 38.4298 28.918C37.3498 29.5339 36.5587 30.5536 36.2305 31.7528C35.9023 32.952 36.0639 34.2325 36.6798 35.3125L46.3009 51.9531C46.4615 52.2199 46.5674 52.516 46.6123 52.8241C46.6572 53.1322 46.6402 53.4462 46.5624 53.7477C46.4846 54.0492 46.3475 54.3322 46.1591 54.5801C45.9707 54.828 45.7347 55.0359 45.4651 55.1917C45.1954 55.3474 44.8975 55.4478 44.5886 55.4871C44.2797 55.5263 43.966 55.5036 43.666 55.4203C43.366 55.337 43.0855 55.1948 42.8411 55.0019C42.5967 54.809 42.3931 54.5693 42.2423 54.2969L29.5197 32.2891C28.8861 31.2367 27.8647 30.4751 26.6753 30.1681C25.4859 29.8611 24.2235 30.0333 23.1597 30.6476C22.0959 31.2619 21.3158 32.2692 20.9872 33.4528C20.6586 34.6364 20.8077 35.9018 21.4025 36.9766L35.465 61.3359C35.7624 61.8733 35.837 62.506 35.6726 63.0978C35.5083 63.6896 35.1183 64.1933 34.5864 64.5004C34.0545 64.8076 33.4233 64.8937 32.8286 64.7402C32.2339 64.5867 31.7232 64.2059 31.4064 63.6797L23.5939 50.1484C22.9723 49.0715 21.9484 48.2856 20.7473 47.9637C19.5463 47.6417 18.2665 47.81 17.1896 48.4316C16.1127 49.0532 15.3268 50.0772 15.0048 51.2782C14.6829 52.4793 14.8512 53.759 15.4728 54.8359L29.1447 78.5195C31.6942 82.9356 35.496 86.4964 40.0693 88.7517C44.6427 91.007 49.7821 91.8555 54.8376 91.1898C59.8931 90.5242 64.6378 88.3743 68.4714 85.0121C72.3051 81.6498 75.0556 77.2263 76.3752 72.3008ZM81.6994 39.2539L74.2775 26.3984C73.6559 25.3215 72.6319 24.5356 71.4309 24.2137C70.2299 23.8917 68.9501 24.06 67.8732 24.6816C66.7963 25.3032 66.0104 26.3272 65.6884 27.5282C65.3665 28.7293 65.5348 30.009 66.1564 31.0859L68.5392 35.2148C69.2924 35.8814 69.9334 36.6649 70.4377 37.5352L77.8595 50.3906C80.3778 54.7339 81.7791 59.6343 81.9377 64.6523C84.1012 60.7608 85.2168 56.374 85.175 51.9216C85.1332 47.4693 83.9356 43.1042 81.6994 39.2539Z" fill="#8B93B1"/>
</svg>
