<svg width="100" height="100" viewBox="0 0 100 100" fill="none" xmlns="http://www.w3.org/2000/svg">
<path d="M98.984 9.11477C98.3254 8.45207 97.4109 8.10754 96.4765 8.10754H66.994C65.7332 8.10754 64.5727 8.79368 63.9649 9.89817L51.0098 33.4434C50.5719 34.2393 49.4284 34.2393 48.9905 33.4434L36.0351 9.89817C35.4272 8.79368 34.2665 8.10754 33.006 8.10754H3.52359C2.58941 8.10754 1.67477 8.45207 1.01618 9.11477C-0.0982755 10.2361 -0.298861 11.9101 0.428286 13.2316L26.9023 61.3438C28.3335 63.9455 32.1562 63.6455 33.1765 60.8694C35.5683 54.3606 41.5716 49.7803 48.4862 49.1993C49.4624 49.1127 50.5376 49.1127 51.529 49.2006C58.3999 49.7782 64.3823 54.3233 66.7938 60.7893C67.8807 63.7041 71.6821 63.9166 73.0977 61.3438L99.5715 13.2318C100.299 11.9101 100.098 10.2361 98.984 9.11477Z" fill="#51B3DA"/>
<path d="M98.9839 9.11477C98.3253 8.45207 97.4108 8.10754 96.4765 8.10754H66.9939C65.7332 8.10754 64.5724 8.79368 63.9648 9.89817L51.0098 33.4434C50.7908 33.8415 50.3955 34.0403 50 34.0403V49.1348C50.5154 49.135 51.0328 49.1569 51.5291 49.2008C58.4 49.7784 64.3824 54.3235 66.7939 60.7895C67.8808 63.7039 71.6818 63.917 73.0978 61.344L99.5716 13.2319C100.299 11.9101 100.098 10.2361 98.9839 9.11477Z" fill="#238CC5"/>
<path d="M49.9997 91.8924C36.3054 91.8924 25.1646 80.7504 25.1646 67.0549C25.1646 54.0182 35.2196 43.3755 47.8915 42.3105C49.2655 42.1888 50.7338 42.1888 52.1233 42.3118C64.6932 43.3685 74.835 53.9395 74.835 67.0549C74.835 80.7504 63.694 91.8924 49.9997 91.8924Z" fill="#FFDA79"/>
<path d="M52.1094 42.3119C51.4185 42.2503 50.7082 42.2195 50 42.2195V91.8924C63.6033 91.8924 74.6703 80.7505 74.6703 67.055C74.6703 53.9409 64.5974 43.3685 52.1094 42.3119Z" fill="#FFD155"/>
<path d="M54.2213 78.0766L49.9998 75.8571L45.7784 78.0765C43.7098 79.1639 41.2831 77.4028 41.6784 75.0975L42.4846 70.397L39.0694 67.0681C37.3958 65.4366 38.3212 62.5847 40.6354 62.2484L45.3551 61.5626L47.4657 57.2859C48.5 55.19 51.4985 55.1888 52.5334 57.2859L54.6442 61.5626L59.3639 62.2484C61.6768 62.5845 62.6043 65.4355 60.9299 67.0681L57.5147 70.397L58.3209 75.0975C58.7195 77.4202 56.2737 79.1555 54.2213 78.0766Z" fill="#FFC72D"/>
<path d="M32.1951 30.296L19.9861 8.10754H12.0938L26.1367 33.6294C27.0576 35.3028 29.1599 35.912 30.8324 34.9919C32.5054 34.0714 33.1154 31.9688 32.1951 30.296Z" fill="#80D0E1"/>
<path d="M73.8631 33.6296L87.906 8.10754H80.0137L67.8049 30.296C66.8844 31.9688 67.4943 34.0712 69.1674 34.9917C70.8396 35.912 72.9424 35.3028 73.8631 33.6296Z" fill="#51B3DA"/>
<path d="M59.3642 62.2487L54.6445 61.5629L52.5338 57.2862C52.0164 56.2377 51.0082 55.7137 50 55.7141V75.8574L54.2215 78.0768C56.2738 79.1557 58.7197 77.4203 58.3215 75.0983L57.5152 70.3977L60.9304 67.0688C62.6047 65.4358 61.6769 62.5846 59.3642 62.2487Z" fill="#FFBE00"/>
</svg>
