<svg width="100" height="100" viewBox="0 0 100 100" fill="none" xmlns="http://www.w3.org/2000/svg">
<path d="M75.8751 46.3672C77.6095 44.9375 87.6251 38.7422 93.1095 33.5234C97.3908 29.4453 99.047 18.7969 92.4611 13.6172C83.8986 6.89061 75.6798 13.9531 75.6798 13.9531C75.6798 13.9531 74.9611 9.96092 69.9611 7.61717C63.6642 4.66405 55.6876 3.56248 48.3517 3.65623C41.2423 3.74217 34.6955 4.60155 28.883 7.45311C23.6798 10.0078 23.3673 13.6484 23.3673 13.6484C23.3673 13.6484 16.5392 7.12498 8.17201 12.4219C-0.187364 17.7265 2.21107 28.3515 6.23451 32.8125C11.4767 38.625 17.7736 41.5859 20.633 43.7265C23.4845 45.8672 26.2189 47.9062 26.2189 49.7422C26.2189 51.5781 25.4064 51.9844 25.0939 51.8828C24.7892 51.7812 24.2501 49.9922 22.8517 50.7578C20.9455 51.8125 21.5236 56.0625 25.5001 56.4687C29.3517 56.8672 30.0861 52.7969 30.0861 52.7969L30.6955 48.8203L37.0158 53.2031L43.9455 58.914L43.7423 63.8047C43.7423 63.8047 43.4376 67.5781 41.6017 70.8437C39.7658 74.1094 36.8126 77.3672 36.8126 77.3672L36.7189 80.3203L62.4142 79.7109L61.6017 76.8594C61.6017 76.8594 58.2892 73.2187 56.297 69.3125C54.8751 66.5156 54.6486 63.6953 54.6486 63.6953L54.5861 56.6797L67.922 48.5078C67.922 48.5078 69.3517 49.6328 69.1486 50.039C68.9455 50.4453 68.8986 54.6094 72.1017 56.1562C75.2658 57.6875 77.8126 55.75 77.508 53.0937C77.2033 50.4453 75.5705 51.3594 75.0626 51.7656C74.5548 52.1719 73.4298 52.2734 73.1251 50.7422C72.8126 49.2265 74.1408 47.7969 75.8751 46.3672ZM10.2267 31.9453L7.17201 22.6484L10.8673 17.8125L15.0079 16.6015C15.0079 16.6015 20.297 20.5469 20.4845 20.8672C20.672 21.1875 23.8595 27.7422 23.8595 27.7422L28.0626 42.9609L10.2267 31.9453ZM70.2736 44.1719C70.3361 43.8515 74.2189 27.8672 74.2189 27.8672C74.2189 27.6797 76.9533 26.4062 76.9533 26.1484C76.9533 25.8906 81.922 17.8047 81.922 17.8047L90.2033 18.125L91.922 26.3359L87.7814 33.1484C87.7892 33.1562 70.2111 44.4844 70.2736 44.1719Z" fill="#FEC417"/>
<path d="M93.6877 23.9375C93.0784 16.6562 85.8752 14.9141 82.9143 15.9688C79.9534 17.0234 78.0315 19 77.3752 21.8125C76.844 24.0859 76.3127 25.6016 75.7034 25.8359C75.0315 26.0859 74.4143 25.9844 74.4143 25.9844C74.4143 25.9844 74.3049 21.0625 74.3362 19.0781C74.4143 14.9844 75.6643 13.9375 75.6643 13.9375C75.6643 13.9375 75.3987 12.5547 74.8674 11.7891C74.3362 11.0313 73.3518 10.0469 73.3518 10.0469C73.3518 10.0469 73.5784 12.0156 72.594 12.4766C71.6096 12.9375 70.5471 12.25 70.5471 12.25L71.5315 16.3438C71.5315 16.3438 69.9377 36.75 69.7893 37.2031C69.6409 37.6562 63.6487 48.0469 63.6487 48.0469C63.6487 48.0469 60.1565 51.3125 58.4924 52.0703C56.8205 52.8281 55.383 54.8047 48.9377 54.875C42.4924 54.9531 36.9534 49.8672 36.9534 49.8672L31.4143 44.5547L27.3205 32.4922L26.7112 20.2031L26.969 15.7344L27.1487 13.8672L26.8596 12.9219C26.8596 12.9219 26.3284 13.4531 25.344 13.2266C24.3596 13 23.9768 11.7109 23.9768 11.7109C23.9768 11.7109 23.594 12.3203 23.5237 12.625C23.4455 12.9297 23.3674 13.6328 23.3674 13.6328C23.3674 13.6328 24.4299 14.75 24.6565 16.3438C24.883 17.9375 24.5784 24.5391 23.4455 24.3828C22.3049 24.2344 22.6799 18.6953 18.3596 16.5703C14.6174 14.7266 9.03149 15.2812 6.75024 19.9062C4.4768 24.5312 6.14086 29.9922 13.2737 35.0781C20.4065 40.1641 28.0002 44.4375 29.2034 48.5156C30.6409 53.3672 27.383 56.25 27.383 56.25C27.383 56.25 29.7502 55.9219 30.9143 53.3828C31.2893 52.5625 31.4299 51.3672 31.4846 50.6562C34.1799 54.1719 37.7659 57.1484 42.5159 58.5859C44.3127 59.2031 46.3362 59.5156 49.1487 59.5156C49.5549 59.5156 49.9534 59.5 50.3518 59.4844C53.6409 59.3672 56.4534 58.75 59.1799 57.3984C62.8596 55.6953 65.7112 53.0937 67.9143 50.1406C67.8518 50.8437 68.2815 52.5937 69.1018 53.9766C70.5393 56.4062 72.969 56.5547 72.969 56.5547C72.969 56.5547 69.633 54.5859 70.3127 49.8828C70.9924 45.1797 74.1018 43.5078 78.8049 40.4766C83.5237 37.4375 94.2893 31.2187 93.6877 23.9375ZM16.6174 34.2578C14.5002 32.7656 10.7893 30.7734 9.25805 27.7344C7.21899 23.6797 8.87524 18.7813 12.7502 18.1797C20.7971 16.9141 20.9455 26.9063 21.4768 28.1172C22.008 29.3281 23.5237 29.4062 23.5237 29.4062C23.5237 29.4062 23.5784 30.0781 23.7971 31.375C23.8049 31.4141 23.8127 31.4453 23.8127 31.4844L23.8362 31.6016C23.9846 32.4844 24.1955 33.5859 24.4924 34.8437L24.5159 34.9375C24.6799 35.6484 24.8518 36.3203 25.0315 36.9375C25.3909 38.2344 25.8284 39.6328 26.3674 41.0703C25.5862 40.5391 21.1096 37.4375 16.6174 34.2578ZM89.5159 28.6406C87.8362 31.3594 84.4377 33.3828 81.9299 35.0859C78.6955 37.2812 73.883 40.5781 72.5237 41.5C72.8362 40.6719 73.1096 39.8516 73.3596 39.0469C73.7659 37.9844 74.1955 36.6875 74.4924 35.2891C75.2737 31.6172 75.4065 28.4062 75.4065 28.4062C75.4065 28.4062 77.0002 28.8594 77.9846 27.7969C78.969 26.7344 79.3362 23.4375 80.258 21.8828C81.6955 19.4531 84.5784 16.9531 88.9065 19.9844C91.4065 21.7422 91.5002 25.4219 89.5159 28.6406Z" fill="#FFA828"/>
<path d="M47.281 61.961L51.6951 61.9063C51.6951 61.9063 51.8123 66.7266 52.5076 70.3204C53.2029 73.9219 54.1326 77.9219 54.1326 77.9219C54.1326 77.9219 45.1404 80.9375 45.1951 77.6875C45.2498 74.4375 46.5857 68.1094 46.5857 68.1094C46.5857 68.1094 47.3982 60.5703 47.281 61.961Z" fill="#FFA828"/>
<path d="M39.875 11.8672C39.875 11.8672 44.7891 11.3126 49.3594 11.3829C53.9297 11.4532 58.6328 12.3516 58.6328 12.3516C58.6328 12.3516 58.3594 27.6485 57.5234 36.2344C56.6953 44.8204 53.4453 51.2501 52.5781 53.0704C51.7422 54.836 51.1328 55.7813 51.1328 55.7813L46.7266 55.2657L39.1094 39.9688L39.875 11.8672Z" fill="#FFA828"/>
<path d="M33.9922 14.1563C33.9922 14.1563 35.375 13.4609 37.3828 12.7031C39.2032 12.0156 40.8438 11.8047 40.8438 11.8047C40.8438 11.8047 40.8907 21.9453 41.0547 29.1797C41.1953 35.3437 43.4766 45.4453 44.586 48.1484C45.6953 50.8516 47.6953 54.9766 47.6953 54.9766C47.6953 54.9766 43.6719 54.3984 41.1953 51.2578C39.8907 49.6016 33.7891 36.7891 33.5782 28.3437C33.3672 19.8984 34.1953 13.9453 33.9922 14.1563Z" fill="#FFEFAB"/>
<path d="M31.7029 15.3281C31.5623 15.7422 30.4608 24.4688 32.1873 32.5625C33.9139 40.6563 36.4686 46.1953 38.1561 48.3906C39.6561 50.3359 40.6326 51.2578 41.1873 51.2578C41.742 51.2578 38.9061 44.5469 37.5858 39.2812C36.2733 34.0234 35.5779 27.7188 35.4373 24.6094C35.2967 21.4922 35.1639 13.4609 35.1639 13.4609C35.1639 13.4609 33.6404 14.1562 33.2967 14.3594C32.9529 14.5703 31.7029 15.3281 31.7029 15.3281Z" fill="#FFFCFD"/>
<path d="M41.6719 77.3516C41.6719 77.3516 44.6484 72.5078 45.2734 68.8359C45.8984 65.1641 46.2422 61.9141 46.2422 61.9141L48.0859 61.9922C48.0859 61.9922 47.9062 67.3125 47.6953 70.9141C47.4844 74.5156 46.8672 78.0469 46.8672 78.0469L41.6719 77.3516Z" fill="#FFEFAB"/>
<path d="M43.9609 58.9141C43.9609 58.9141 45.3438 57.5625 49.1484 57.5625C52.9531 57.5625 54.5859 59.0234 54.5859 59.0234L54.6875 63.7187C54.6875 63.7187 52.1563 62.9297 49.0781 62.8906C46.5156 62.8594 43.7578 63.8125 43.7578 63.8125L43.9609 58.9141Z" fill="#D1701C"/>
<path d="M27.3436 12.2813C27.9842 11.6875 34.1248 7.07816 48.6639 6.95316C64.3045 6.81253 70.1717 11.3438 70.5389 11.5938C70.9529 11.8672 71.4373 13.1172 71.2342 13.6719C71.0233 14.2266 70.6092 14.4297 69.4373 13.9453C68.2576 13.461 62.4451 9.21878 48.4608 9.65628C35.0311 10.0703 29.3358 14.1563 28.7342 14.5C28.2498 14.7735 27.3514 14.8438 26.9373 14.2891C26.5154 13.7422 26.9295 12.6719 27.3436 12.2813Z" fill="#D1701C"/>
<path d="M71.2342 15.5391C69.4374 15.6797 70.6796 30.1485 66.8749 39.211C62.7967 48.9063 57.5936 51.6719 57.8046 52.2266C58.0155 52.7813 63.1092 51.2422 66.3202 46.6875C69.2967 42.4688 71.0936 38.7266 71.9296 33.7422C72.7499 28.7578 73.2342 15.3828 71.2342 15.5391Z" fill="#D1701C"/>
<path d="M26.9607 17.1954C26.5076 17.1719 26.9686 24.3907 26.2342 27.5626C25.9529 28.7813 25.2654 29.0313 25.1951 29.3047C25.1248 29.5782 26.7029 38.8672 29.3514 42.9454C31.9139 46.8907 36.9686 51.8047 37.7967 50.9766C38.6248 50.1485 34.1248 47.3751 31.0858 41.3516C29.3358 37.8985 27.5545 32.6954 27.4842 26.7422C27.4373 22.8047 27.9295 17.2501 26.9607 17.1954Z" fill="#D1701C"/>
<path d="M67.7891 88.0547L67.7813 76.8906H31.9453C32.0547 76.8906 31.9688 85.9688 31.9531 88.0938H26.8594V96.1797H72.3672V88.0938L67.7891 88.0547Z" fill="#865C50"/>
<path d="M43.4297 82.7577C42.5469 82.7187 41.5312 82.8984 41.4922 83.9921C41.4531 85.0859 41.4531 88.2499 41.4531 88.8515C41.4531 89.4531 41.9453 89.9765 43.1797 90.0156C44.4141 90.0546 56 90.0156 56.8125 90.0156C57.625 90.0156 58.0469 89.3124 58.0781 88.6093C58.1172 87.9062 58.0391 84.9452 58.0391 84.1406C58.0391 82.8046 56.8437 82.8046 56.0312 82.8046C55.1562 82.789 43.4297 82.7577 43.4297 82.7577Z" fill="#FCC219"/>
</svg>
