<svg width="100" height="100" viewBox="0 0 100 100" fill="none" xmlns="http://www.w3.org/2000/svg">
<g clip-path="url(#clip0_1245_9)">
<path d="M18.677 38.7529C31.1831 29.8819 49.0567 30.607 60.6195 40.4726C72.3845 50.5051 73.9919 66.9029 64.3155 78.6422C55.1975 89.7013 38.7612 93.3459 25.0744 87.6415L24.3301 87.3175L10.2936 90.3044L10.053 90.3461L9.70009 90.375L9.33755 90.3622L9.19639 90.3461L8.84347 90.282L8.50659 90.1729L8.18576 90.0317L7.94193 89.897L7.59543 89.6499L7.33555 89.4125L7.10134 89.1462L6.9313 88.9056L6.72276 88.5367L6.58801 88.1966L6.48855 87.834L6.44684 87.5934L6.41797 87.2405L6.4308 86.8779L6.44684 86.7368L6.51101 86.3839L6.58159 86.1529L10.2712 75.0809L10.2006 74.9654C3.11018 62.9438 6.32172 48.0411 17.9359 39.2952L18.6738 38.7562L18.677 38.7529Z" fill="white" fill-opacity="0.59"/>
<path d="M30.9208 31.0472C47.1625 19.5263 70.375 20.468 85.3917 33.2805C100.671 46.3097 102.758 67.6055 90.1917 82.8513C78.35 97.2138 57.0042 101.947 39.2292 94.5388L38.2625 94.118L20.0333 97.9972L19.7208 98.0513L19.2625 98.0888L18.7917 98.0722L18.6083 98.0513L18.15 97.968L17.7125 97.8263L17.2958 97.643L16.9792 97.468L16.5292 97.1472L16.1917 96.8388L15.8875 96.493L15.6667 96.1805L15.3958 95.7013L15.2208 95.2596L15.0917 94.7888L15.0375 94.4763L15 94.018L15.0167 93.5471L15.0375 93.3638L15.1208 92.9055L15.2125 92.6055L20.0042 78.2263L19.9125 78.0763C10.7042 62.4638 14.875 43.1097 29.9583 31.7513L30.9167 31.0513L30.9208 31.0472Z" fill="white"/>
<mask id="path-3-inside-1_1245_9" fill="white">
<path d="M68.2614 71.7994C68.7334 71.8084 69.1125 72.1993 69.0632 72.6688C68.8248 74.9381 67.8156 77.0675 66.1903 78.6934C64.3628 80.5216 61.8983 81.5711 59.3138 81.6217C56.7294 81.6723 54.2257 80.7202 52.3279 78.965C50.6402 77.404 49.5484 75.3158 49.2213 73.0576C49.1536 72.5904 49.5171 72.185 49.9884 72.1574V72.1574C50.4597 72.1298 50.8597 72.4909 50.9356 72.9569C51.2315 74.7735 52.1258 76.4491 53.4889 77.7098C55.0621 79.1649 57.1377 79.9542 59.2803 79.9123C61.4229 79.8703 63.4661 79.0002 64.9811 77.4846C66.2938 76.1715 67.1217 74.4621 67.3462 72.6353C67.4038 72.1667 67.7893 71.7903 68.2614 71.7994V71.7994Z"/>
</mask>
<path d="M68.2614 71.7994C68.7334 71.8084 69.1125 72.1993 69.0632 72.6688C68.8248 74.9381 67.8156 77.0675 66.1903 78.6934C64.3628 80.5216 61.8983 81.5711 59.3138 81.6217C56.7294 81.6723 54.2257 80.7202 52.3279 78.965C50.6402 77.404 49.5484 75.3158 49.2213 73.0576C49.1536 72.5904 49.5171 72.185 49.9884 72.1574V72.1574C50.4597 72.1298 50.8597 72.4909 50.9356 72.9569C51.2315 74.7735 52.1258 76.4491 53.4889 77.7098C55.0621 79.1649 57.1377 79.9542 59.2803 79.9123C61.4229 79.8703 63.4661 79.0002 64.9811 77.4846C66.2938 76.1715 67.1217 74.4621 67.3462 72.6353C67.4038 72.1667 67.7893 71.7903 68.2614 71.7994V71.7994Z" stroke="#656BF9" stroke-width="2" mask="url(#path-3-inside-1_1245_9)"/>
</g>
<defs>
<clipPath id="clip0_1245_9">
<rect width="100" height="100" fill="white"/>
</clipPath>
</defs>
</svg>
