<svg width="100" height="100" viewBox="0 0 100 100" fill="none" xmlns="http://www.w3.org/2000/svg">
<g clip-path="url(#clip0_308_49)">
<path d="M77.4999 95.8333H22.4999C20.7272 95.835 18.9744 95.4597 17.3579 94.7322C15.7413 94.0047 14.298 92.9416 13.1237 91.6137C11.9495 90.2857 11.0711 88.7232 10.5468 87.0297C10.0226 85.3363 9.8646 83.5508 10.0832 81.7916L11.7082 68.75L15.2916 40.125C15.6763 37.1016 17.1489 34.3217 19.434 32.305C21.7191 30.2882 24.6604 29.1726 27.7082 29.1666H72.2916C75.3393 29.1726 78.2807 30.2882 80.5658 32.305C82.8509 34.3217 84.3235 37.1016 84.7082 40.125L88.2916 68.75L89.9166 81.7916C90.1352 83.5508 89.9772 85.3363 89.4529 87.0297C88.9287 88.7232 88.0503 90.2857 86.876 91.6137C85.7018 92.9416 84.2584 94.0047 82.6419 94.7322C81.0254 95.4597 79.2726 95.835 77.4999 95.8333Z" fill="#F19B5F"/>
<path d="M88.2914 68.75C87.2049 70.6521 85.634 72.2325 83.7384 73.3303C81.8428 74.4282 79.6902 75.0042 77.4997 75H22.4997C20.3091 75.0042 18.1566 74.4282 16.261 73.3303C14.3654 72.2325 12.7944 70.6521 11.708 68.75L15.2913 40.125C15.6761 37.1016 17.1487 34.3217 19.4338 32.305C21.7189 30.2882 24.6602 29.1726 27.708 29.1666H72.2913C75.3391 29.1726 78.2804 30.2882 80.5656 32.305C82.8507 34.3217 84.3233 37.1016 84.708 40.125L88.2914 68.75Z" fill="#FFCE69"/>
<path d="M22.5 100H77.5C79.8644 99.9996 82.2016 99.4962 84.3565 98.5232C86.5114 97.5501 88.4345 96.1297 89.9983 94.3563C91.562 92.5829 92.7305 90.4971 93.4263 88.2374C94.122 85.9777 94.3289 83.5958 94.0334 81.25L88.825 39.5833C88.3136 35.5594 86.3539 31.8595 83.3126 29.1755C80.2712 26.4915 76.3563 25.0071 72.3 25H70.8334V20.8333C70.8334 15.308 68.6384 10.0089 64.7314 6.10194C60.8244 2.19493 55.5254 0 50 0C44.4747 0 39.1756 2.19493 35.2686 6.10194C31.3616 10.0089 29.1667 15.308 29.1667 20.8333V25H27.7C23.6423 25.0051 19.7254 26.4885 16.6823 29.1727C13.6392 31.8569 11.6783 35.558 11.1667 39.5833L5.95836 81.25C5.66272 83.5965 5.86989 85.9791 6.56608 88.2394C7.26227 90.4997 8.43154 92.5859 9.9962 94.3594C11.5609 96.133 13.485 97.5532 15.6409 98.5257C17.7968 99.4983 20.135 100.001 22.5 100ZM37.5 20.8333C37.5 17.5181 38.817 14.3387 41.1612 11.9945C43.5054 9.65029 46.6848 8.33333 50 8.33333C53.3152 8.33333 56.4947 9.65029 58.8389 11.9945C61.1831 14.3387 62.5 17.5181 62.5 20.8333V25H37.5V20.8333ZM14.225 82.3L19.4334 40.6333C19.6852 38.6182 20.6642 36.7644 22.1864 35.4202C23.7086 34.076 25.6693 33.3339 27.7 33.3333H29.1667V41.6667C29.1667 42.7717 29.6057 43.8315 30.3871 44.6129C31.1685 45.3943 32.2283 45.8333 33.3334 45.8333C34.4384 45.8333 35.4982 45.3943 36.2796 44.6129C37.061 43.8315 37.5 42.7717 37.5 41.6667V33.3333H62.5V41.6667C62.5 42.7717 62.939 43.8315 63.7204 44.6129C64.5018 45.3943 65.5616 45.8333 66.6667 45.8333C67.7718 45.8333 68.8316 45.3943 69.613 44.6129C70.3944 43.8315 70.8334 42.7717 70.8334 41.6667V33.3333H72.3C74.3308 33.3339 76.2915 34.076 77.8137 35.4202C79.3359 36.7644 80.3149 38.6182 80.5667 40.6333L85.775 82.3C85.9216 83.473 85.817 84.6637 85.468 85.7931C85.1191 86.9225 84.5339 87.9648 83.7512 88.8507C82.9686 89.7366 82.0064 90.4459 80.9287 90.9314C79.8509 91.4169 78.6821 91.6675 77.5 91.6667H22.5C21.3186 91.6663 20.1508 91.4148 19.074 90.9288C17.9973 90.4428 17.0361 89.7333 16.2544 88.8476C15.4726 87.9618 14.8882 86.92 14.5397 85.7911C14.1913 84.6623 14.0869 83.4723 14.2334 82.3H14.225Z" fill="#6C2E7C"/>
</g>
<defs>
<clipPath id="clip0_308_49">
<rect width="100" height="100" fill="white"/>
</clipPath>
</defs>
</svg>
