<svg width="100" height="100" viewBox="0 0 100 100" fill="none" xmlns="http://www.w3.org/2000/svg">
<path d="M41.6666 75.0002C47.8774 74.9989 53.9378 73.2527 59.1706 69.995C60.8866 68.9267 63.1451 69.0411 64.5744 70.4704L77.559 83.4551C79.1211 85.0172 81.6538 85.0172 83.2159 83.4551L83.4507 83.2203C85.0128 81.6582 85.0128 79.1255 83.4507 77.5634L70.4665 64.5792C69.037 63.1497 68.9229 60.8908 69.9916 59.1748C73.2511 53.9412 74.9985 47.8792 75 41.6668C75 23.2877 60.0458 8.3335 41.6666 8.3335C23.2875 8.3335 8.33331 23.2877 8.33331 41.6668C8.33331 60.046 23.2875 75.0002 41.6666 75.0002ZM41.6666 16.6668C55.4541 16.6668 66.6666 27.8793 66.6666 41.6668C66.6666 55.4543 55.4541 66.6668 41.6666 66.6668C27.8791 66.6668 16.6666 55.4543 16.6666 41.6668C16.6666 27.8793 27.8791 16.6668 41.6666 16.6668Z" fill="white"/>
<path d="M33.0707 43.3953C32.9536 42.1909 33.0914 41.0029 33.4652 39.8948C33.9949 38.3249 33.876 36.4346 32.5952 35.3835L30.7876 33.9001C29.5083 32.8503 27.5925 33.0254 26.7873 34.4712C26.2118 35.5045 25.7472 36.5989 25.4032 37.7365C24.7692 39.8326 24.557 42.0336 24.7788 44.2122C25.5589 52.0774 32.2926 58.4231 39.9908 59.155C41.6389 59.3118 42.854 57.8167 42.694 56.1689L42.4683 53.8448C42.3082 52.1956 40.801 51.0375 39.2085 50.5798C35.9992 49.6572 33.4118 46.8114 33.0707 43.3953Z" fill="#4B86C0"/>
</svg>
