<svg width="100" height="100" viewBox="0 0 100 100" fill="none" xmlns="http://www.w3.org/2000/svg">
<path d="M18.75 26.5625C18.75 22.0041 20.5608 17.6324 23.7841 14.4091C27.0074 11.1858 31.3791 9.375 35.9375 9.375C40.4959 9.375 44.8676 11.1858 48.0909 14.4091C51.3142 17.6324 53.125 22.0041 53.125 26.5625C53.125 31.1209 51.3142 35.4926 48.0909 38.7159C44.8676 41.9392 40.4959 43.75 35.9375 43.75C31.3791 43.75 27.0074 41.9392 23.7841 38.7159C20.5608 35.4926 18.75 31.1209 18.75 26.5625ZM59.375 35.9375C59.375 34.0908 59.7387 32.2622 60.4454 30.556C61.1521 28.8499 62.188 27.2996 63.4938 25.9938C64.7996 24.688 66.3499 23.6522 68.056 22.9454C69.7621 22.2387 71.5908 21.875 73.4375 21.875C75.2842 21.875 77.1128 22.2387 78.819 22.9454C80.5251 23.6522 82.0754 24.688 83.3812 25.9938C84.687 27.2996 85.7228 28.8499 86.4296 30.556C87.1363 32.2622 87.5 34.0908 87.5 35.9375C87.5 39.6671 86.0184 43.244 83.3812 45.8812C80.744 48.5184 77.1671 50 73.4375 50C69.7079 50 66.131 48.5184 63.4938 45.8812C60.8566 43.244 59.375 39.6671 59.375 35.9375ZM6.25 79.6875C6.25 71.8139 9.37778 64.2628 14.9453 58.6953C20.5128 53.1278 28.0639 50 35.9375 50C43.8111 50 51.3622 53.1278 56.9297 58.6953C62.4972 64.2628 65.625 71.8139 65.625 79.6875V79.7L65.6208 80.1958C65.612 80.7257 65.4685 81.2447 65.204 81.7039C64.9394 82.1631 64.5623 82.5474 64.1083 82.8208C55.605 87.9415 45.8636 90.6402 35.9375 90.625C25.6375 90.625 15.9958 87.775 7.77083 82.8208C7.31605 82.5479 6.9382 82.1638 6.67286 81.7046C6.40753 81.2453 6.26344 80.7261 6.25417 80.1958L6.25 79.6875ZM71.875 79.7L71.8708 80.3C71.8475 81.6888 71.5159 83.055 70.9 84.3C78.1738 84.7486 85.4392 83.2984 91.9833 80.0917C92.4894 79.8443 92.9192 79.4647 93.2273 78.9931C93.5353 78.5215 93.7102 77.9753 93.7333 77.4125C93.8804 73.9177 93.1225 70.4441 91.533 67.3281C89.9435 64.2122 87.5763 61.5595 84.6606 59.6271C81.7449 57.6946 78.3797 56.5478 74.8907 56.2978C71.4017 56.0478 67.9072 56.703 64.7458 58.2C69.3841 64.4024 71.8844 71.9426 71.8708 79.6875L71.875 79.7Z" fill="white"/>
</svg>
