<svg width="32" height="32" viewBox="0 0 32 32" fill="none" xmlns="http://www.w3.org/2000/svg">
<g filter="url(#filter0_i_594_19)">
<path d="M19.4453 14.0702V8.50819C19.4453 5.73819 21.6523 3.49219 24.3753 3.49219C27.0983 3.49219 29.3053 5.73819 29.3053 8.50819V9.59419" stroke="#C2C2C6" stroke-width="2.75" stroke-linecap="round"/>
</g>
<path d="M19.4453 14.0702V8.50819C19.4453 5.73819 21.6523 3.49219 24.3753 3.49219C27.0983 3.49219 29.3053 5.73819 29.3053 8.50819V9.59419" stroke="url(#paint0_radial_594_19)" stroke-width="2.75" stroke-linecap="round"/>
<path d="M19.4453 14.0702V8.50819C19.4453 5.73819 21.6523 3.49219 24.3753 3.49219C27.0983 3.49219 29.3053 5.73819 29.3053 8.50819V9.59419" stroke="url(#paint1_radial_594_19)" stroke-width="2.75" stroke-linecap="round"/>
<g filter="url(#filter1_f_594_19)">
<path d="M19.8828 13.7582V8.19518C19.8828 5.42518 22.0898 3.18018 24.8128 3.18018C27.5358 3.18018 29.7428 5.42518 29.7428 8.19518V9.28118" stroke="url(#paint2_radial_594_19)" stroke-linecap="round"/>
<path d="M19.8828 13.7582V8.19518C19.8828 5.42518 22.0898 3.18018 24.8128 3.18018C27.5358 3.18018 29.7428 5.42518 29.7428 8.19518V9.28118" stroke="url(#paint3_radial_594_19)" stroke-linecap="round"/>
</g>
<g filter="url(#filter2_iiii_594_19)">
<path d="M21.3755 11.0552H5.4375C3.78065 11.0552 2.4375 12.3983 2.4375 14.0552V26.8992C2.4375 28.556 3.78065 29.8992 5.4375 29.8992H21.3755C23.0324 29.8992 24.3755 28.556 24.3755 26.8992V14.0552C24.3755 12.3983 23.0324 11.0552 21.3755 11.0552Z" fill="url(#paint4_linear_594_19)"/>
</g>
<path d="M21.3755 11.0552H5.4375C3.78065 11.0552 2.4375 12.3983 2.4375 14.0552V26.8992C2.4375 28.556 3.78065 29.8992 5.4375 29.8992H21.3755C23.0324 29.8992 24.3755 28.556 24.3755 26.8992V14.0552C24.3755 12.3983 23.0324 11.0552 21.3755 11.0552Z" fill="url(#paint5_radial_594_19)"/>
<path d="M21.3755 11.0552H5.4375C3.78065 11.0552 2.4375 12.3983 2.4375 14.0552V26.8992C2.4375 28.556 3.78065 29.8992 5.4375 29.8992H21.3755C23.0324 29.8992 24.3755 28.556 24.3755 26.8992V14.0552C24.3755 12.3983 23.0324 11.0552 21.3755 11.0552Z" fill="url(#paint6_linear_594_19)"/>
<path d="M21.3755 11.0552H5.4375C3.78065 11.0552 2.4375 12.3983 2.4375 14.0552V26.8992C2.4375 28.556 3.78065 29.8992 5.4375 29.8992H21.3755C23.0324 29.8992 24.3755 28.556 24.3755 26.8992V14.0552C24.3755 12.3983 23.0324 11.0552 21.3755 11.0552Z" fill="url(#paint7_radial_594_19)"/>
<g filter="url(#filter3_f_594_19)">
<path d="M14.804 20.3923C15.2785 20.0867 15.6409 19.6353 15.8369 19.1061C16.0329 18.5768 16.0518 17.9982 15.8909 17.4573C15.73 16.9163 15.3978 16.4422 14.9444 16.1062C14.4909 15.7702 13.9407 15.5904 13.3763 15.5938C12.8119 15.5972 12.2639 15.7837 11.8146 16.1252C11.3653 16.4668 11.0389 16.9449 10.8846 17.4877C10.7302 18.0306 10.7562 18.6089 10.9586 19.1357C11.161 19.6626 11.5289 20.1095 12.007 20.4093V23.7033C12.007 24.0742 12.1544 24.43 12.4166 24.6922C12.6789 24.9545 13.0346 25.1018 13.4055 25.1018C13.7764 25.1018 14.1321 24.9545 14.3944 24.6922C14.6567 24.43 14.804 24.0742 14.804 23.7033V20.3923Z" stroke="url(#paint8_linear_594_19)" stroke-width="1.75"/>
<path d="M14.804 20.3923C15.2785 20.0867 15.6409 19.6353 15.8369 19.1061C16.0329 18.5768 16.0518 17.9982 15.8909 17.4573C15.73 16.9163 15.3978 16.4422 14.9444 16.1062C14.4909 15.7702 13.9407 15.5904 13.3763 15.5938C12.8119 15.5972 12.2639 15.7837 11.8146 16.1252C11.3653 16.4668 11.0389 16.9449 10.8846 17.4877C10.7302 18.0306 10.7562 18.6089 10.9586 19.1357C11.161 19.6626 11.5289 20.1095 12.007 20.4093V23.7033C12.007 24.0742 12.1544 24.43 12.4166 24.6922C12.6789 24.9545 13.0346 25.1018 13.4055 25.1018C13.7764 25.1018 14.1321 24.9545 14.3944 24.6922C14.6567 24.43 14.804 24.0742 14.804 23.7033V20.3923Z" stroke="url(#paint9_linear_594_19)" stroke-width="1.75"/>
</g>
<path d="M14.804 20.3923C15.2785 20.0867 15.6409 19.6353 15.8369 19.1061C16.0329 18.5768 16.0518 17.9982 15.8909 17.4573C15.73 16.9163 15.3978 16.4422 14.9444 16.1062C14.4909 15.7702 13.9407 15.5904 13.3763 15.5938C12.8119 15.5972 12.2639 15.7837 11.8146 16.1252C11.3653 16.4668 11.0389 16.9449 10.8846 17.4877C10.7302 18.0306 10.7562 18.6089 10.9586 19.1357C11.161 19.6626 11.5289 20.1095 12.007 20.4093V23.7033C12.007 24.0742 12.1544 24.43 12.4166 24.6922C12.6789 24.9545 13.0346 25.1018 13.4055 25.1018C13.7764 25.1018 14.1321 24.9545 14.3944 24.6922C14.6567 24.43 14.804 24.0742 14.804 23.7033V20.3923Z" fill="url(#paint10_radial_594_19)"/>
<defs>
<filter id="filter0_i_594_19" x="18.0703" y="2.11719" width="13.6094" height="13.3281" filterUnits="userSpaceOnUse" color-interpolation-filters="sRGB">
<feFlood flood-opacity="0" result="BackgroundImageFix"/>
<feBlend mode="normal" in="SourceGraphic" in2="BackgroundImageFix" result="shape"/>
<feColorMatrix in="SourceAlpha" type="matrix" values="0 0 0 0 0 0 0 0 0 0 0 0 0 0 0 0 0 0 127 0" result="hardAlpha"/>
<feOffset dx="1"/>
<feGaussianBlur stdDeviation="0.5"/>
<feComposite in2="hardAlpha" operator="arithmetic" k2="-1" k3="1"/>
<feColorMatrix type="matrix" values="0 0 0 0 0.560784 0 0 0 0 0.556863 0 0 0 0 0.576471 0 0 0 1 0"/>
<feBlend mode="normal" in2="shape" result="effect1_innerShadow_594_19"/>
</filter>
<filter id="filter1_f_594_19" x="18.6328" y="1.93018" width="12.3594" height="13.0781" filterUnits="userSpaceOnUse" color-interpolation-filters="sRGB">
<feFlood flood-opacity="0" result="BackgroundImageFix"/>
<feBlend mode="normal" in="SourceGraphic" in2="BackgroundImageFix" result="shape"/>
<feGaussianBlur stdDeviation="0.375" result="effect1_foregroundBlur_594_19"/>
</filter>
<filter id="filter2_iiii_594_19" x="1.6875" y="10.3052" width="23.4375" height="20.3442" filterUnits="userSpaceOnUse" color-interpolation-filters="sRGB">
<feFlood flood-opacity="0" result="BackgroundImageFix"/>
<feBlend mode="normal" in="SourceGraphic" in2="BackgroundImageFix" result="shape"/>
<feColorMatrix in="SourceAlpha" type="matrix" values="0 0 0 0 0 0 0 0 0 0 0 0 0 0 0 0 0 0 127 0" result="hardAlpha"/>
<feOffset dy="-0.75"/>
<feGaussianBlur stdDeviation="0.375"/>
<feComposite in2="hardAlpha" operator="arithmetic" k2="-1" k3="1"/>
<feColorMatrix type="matrix" values="0 0 0 0 0.898039 0 0 0 0 0.364706 0 0 0 0 0.423529 0 0 0 1 0"/>
<feBlend mode="normal" in2="shape" result="effect1_innerShadow_594_19"/>
<feColorMatrix in="SourceAlpha" type="matrix" values="0 0 0 0 0 0 0 0 0 0 0 0 0 0 0 0 0 0 127 0" result="hardAlpha"/>
<feOffset dx="-1"/>
<feGaussianBlur stdDeviation="0.375"/>
<feComposite in2="hardAlpha" operator="arithmetic" k2="-1" k3="1"/>
<feColorMatrix type="matrix" values="0 0 0 0 1 0 0 0 0 0.772549 0 0 0 0 0.364706 0 0 0 1 0"/>
<feBlend mode="normal" in2="effect1_innerShadow_594_19" result="effect2_innerShadow_594_19"/>
<feColorMatrix in="SourceAlpha" type="matrix" values="0 0 0 0 0 0 0 0 0 0 0 0 0 0 0 0 0 0 127 0" result="hardAlpha"/>
<feOffset dy="1"/>
<feGaussianBlur stdDeviation="0.375"/>
<feComposite in2="hardAlpha" operator="arithmetic" k2="-1" k3="1"/>
<feColorMatrix type="matrix" values="0 0 0 0 1 0 0 0 0 0.843137 0 0 0 0 0.266667 0 0 0 1 0"/>
<feBlend mode="normal" in2="effect2_innerShadow_594_19" result="effect3_innerShadow_594_19"/>
<feColorMatrix in="SourceAlpha" type="matrix" values="0 0 0 0 0 0 0 0 0 0 0 0 0 0 0 0 0 0 127 0" result="hardAlpha"/>
<feOffset dx="0.75"/>
<feGaussianBlur stdDeviation="0.375"/>
<feComposite in2="hardAlpha" operator="arithmetic" k2="-1" k3="1"/>
<feColorMatrix type="matrix" values="0 0 0 0 0.729412 0 0 0 0 0.478431 0 0 0 0 0.207843 0 0 0 1 0"/>
<feBlend mode="normal" in2="effect3_innerShadow_594_19" result="effect4_innerShadow_594_19"/>
</filter>
<filter id="filter3_f_594_19" x="9.41016" y="14.2188" width="7.96484" height="12.2583" filterUnits="userSpaceOnUse" color-interpolation-filters="sRGB">
<feFlood flood-opacity="0" result="BackgroundImageFix"/>
<feBlend mode="normal" in="SourceGraphic" in2="BackgroundImageFix" result="shape"/>
<feGaussianBlur stdDeviation="0.25" result="effect1_foregroundBlur_594_19"/>
</filter>
<radialGradient id="paint0_radial_594_19" cx="0" cy="0" r="1" gradientUnits="userSpaceOnUse" gradientTransform="translate(24.5313 8.15619) rotate(-91.6531) scale(5.41625 5.81234)">
<stop offset="0.556" stop-color="#AB83C0"/>
<stop offset="1" stop-color="#CBBBDC" stop-opacity="0"/>
</radialGradient>
<radialGradient id="paint1_radial_594_19" cx="0" cy="0" r="1" gradientUnits="userSpaceOnUse" gradientTransform="translate(29.3053 11.4062) rotate(-90) scale(2.21875 8.81238)">
<stop offset="0.111" stop-color="#B57FD6"/>
<stop offset="1" stop-color="#B57FD6" stop-opacity="0"/>
</radialGradient>
<radialGradient id="paint2_radial_594_19" cx="0" cy="0" r="1" gradientUnits="userSpaceOnUse" gradientTransform="translate(30.0358 4.53818) rotate(136.625) scale(5.05367 6.94355)">
<stop offset="0.216" stop-color="#EDECF3"/>
<stop offset="1" stop-color="#EDECF3" stop-opacity="0"/>
</radialGradient>
<radialGradient id="paint3_radial_594_19" cx="0" cy="0" r="1" gradientUnits="userSpaceOnUse" gradientTransform="translate(18.7193 16.8129) rotate(-80.102) scale(9.45321 6.82288)">
<stop stop-color="#EDECF3"/>
<stop offset="1" stop-color="#EDECF3" stop-opacity="0"/>
</radialGradient>
<linearGradient id="paint4_linear_594_19" x1="7.5625" y1="14.1172" x2="14.4995" y2="29.8982" gradientUnits="userSpaceOnUse">
<stop stop-color="#FFC74E"/>
<stop offset="1" stop-color="#F7864E"/>
</linearGradient>
<radialGradient id="paint5_radial_594_19" cx="0" cy="0" r="1" gradientUnits="userSpaceOnUse" gradientTransform="translate(23.8125 29.8982) rotate(-132.274) scale(3.25195 7.57598)">
<stop stop-color="#FF8650"/>
<stop offset="1" stop-color="#FF8650" stop-opacity="0"/>
</radialGradient>
<linearGradient id="paint6_linear_594_19" x1="13.4055" y1="10.7422" x2="13.4055" y2="12.2422" gradientUnits="userSpaceOnUse">
<stop stop-color="#F3D04E"/>
<stop offset="1" stop-color="#F3D04E" stop-opacity="0"/>
</linearGradient>
<radialGradient id="paint7_radial_594_19" cx="0" cy="0" r="1" gradientUnits="userSpaceOnUse" gradientTransform="translate(24.0614 11.0551) rotate(126.254) scale(2.32513 5.25171)">
<stop stop-color="#FFF760"/>
<stop offset="1" stop-color="#FFF760" stop-opacity="0"/>
</radialGradient>
<linearGradient id="paint8_linear_594_19" x1="16.53" y1="21.6803" x2="12.655" y2="21.6803" gradientUnits="userSpaceOnUse">
<stop offset="0.331" stop-color="#D98A40"/>
<stop offset="1" stop-color="#D98A40" stop-opacity="0"/>
</linearGradient>
<linearGradient id="paint9_linear_594_19" x1="10.28" y1="20.7423" x2="12.999" y2="20.7423" gradientUnits="userSpaceOnUse">
<stop stop-color="#FFCD63"/>
<stop offset="1" stop-color="#FFCD63" stop-opacity="0"/>
</linearGradient>
<radialGradient id="paint10_radial_594_19" cx="0" cy="0" r="1" gradientUnits="userSpaceOnUse" gradientTransform="translate(10.7845 18.6179) rotate(34.061) scale(5.69121 7.82719)">
<stop offset="0.217" stop-color="#564F80"/>
<stop offset="1" stop-color="#473154"/>
</radialGradient>
</defs>
</svg>
