<svg width="100" height="100" viewBox="0 0 100 100" fill="none" xmlns="http://www.w3.org/2000/svg">
<g clip-path="url(#clip0_1132_6)">
<path d="M22.8375 8.29989C22.4686 7.82527 22.0028 7.43459 21.4713 7.1538C20.9397 6.873 20.3545 6.70852 19.7545 6.67128C19.1545 6.63404 18.5534 6.72489 17.9912 6.93779C17.429 7.1507 16.9186 7.48079 16.4938 7.90614L10.0313 14.3749C7.01251 17.3999 5.90001 21.6811 7.21876 25.4374C12.6921 40.9848 21.5956 55.1005 33.2688 66.7374C44.9058 78.4104 59.0214 87.3138 74.5688 92.7874C78.325 94.1061 82.6063 92.9936 85.6313 89.9749L92.0938 83.5124C92.5191 83.0876 92.8492 82.5771 93.0621 82.0149C93.275 81.4527 93.3659 80.8517 93.3286 80.2516C93.2914 79.6516 93.1269 79.0664 92.8461 78.5349C92.5653 78.0033 92.1746 77.5376 91.7 77.1686L77.2813 65.9561C76.7742 65.5629 76.1844 65.2899 75.5565 65.1578C74.9285 65.0257 74.2788 65.038 73.6563 65.1936L59.9688 68.6124C58.1418 69.069 56.2277 69.0448 54.4128 68.5421C52.5979 68.0393 50.9442 67.0752 49.6125 65.7436L34.2625 50.3874C32.9298 49.0564 31.9646 47.4029 31.4607 45.588C30.9569 43.7731 30.9317 41.8587 31.3875 40.0311L34.8125 26.3436C34.9682 25.7211 34.9804 25.0714 34.8484 24.4434C34.7163 23.8155 34.4433 23.2257 34.05 22.7186L22.8375 8.29989ZM11.775 3.19364C12.8687 2.09957 14.1827 1.25071 15.6296 0.703398C17.0766 0.156091 18.6234 -0.0771297 20.1674 0.0192221C21.7114 0.115574 23.2172 0.539293 24.5849 1.26225C25.9526 1.9852 27.1508 2.99084 28.1 4.21239L39.3125 18.6249C41.3688 21.2686 42.0938 24.7124 41.2813 27.9624L37.8625 41.6499C37.6858 42.3588 37.6953 43.1014 37.8902 43.8056C38.0852 44.5097 38.4589 45.1515 38.975 45.6686L54.3313 61.0249C54.849 61.5421 55.4918 61.9164 56.1972 62.1114C56.9026 62.3063 57.6464 62.3153 58.3563 62.1374L72.0375 58.7186C73.6414 58.3176 75.3154 58.2865 76.933 58.6276C78.5507 58.9686 80.0696 59.673 81.375 60.6874L95.7875 71.8999C100.969 75.9311 101.444 83.5874 96.8063 88.2186L90.3438 94.6811C85.7188 99.3061 78.8063 101.337 72.3625 99.0686C55.8699 93.2657 40.8955 83.8239 28.55 71.4436C16.1706 59.1 6.72881 44.1278 0.925014 27.6374C-1.33749 21.1999 0.693764 14.2811 5.31876 9.65614L11.7813 3.19364H11.775Z" fill="#212529"/>
</g>
<defs>
<clipPath id="clip0_1132_6">
<rect width="100" height="100" fill="white"/>
</clipPath>
</defs>
</svg>
