<svg width="100" height="100" viewBox="0 0 100 100" fill="none" xmlns="http://www.w3.org/2000/svg">
<path fill-rule="evenodd" clip-rule="evenodd" d="M39.3791 13.5417H39.7874C46.4624 13.5417 51.7541 13.5417 55.9374 14.0376C60.2291 14.5459 63.7708 15.6084 66.7208 18.0376C67.7208 18.8584 68.6416 19.7751 69.4666 20.7792C71.8916 23.7334 72.9541 27.2667 73.4666 31.5626C73.5791 32.5292 73.6666 33.5542 73.7333 34.6417C77.0083 33.0084 79.7833 31.6667 82.0958 30.9084C84.8124 30.0209 87.6916 29.6626 90.3458 31.3042C92.9999 32.9459 93.9708 35.6792 94.3874 38.5042C94.7916 41.2334 94.7916 44.8209 94.7916 49.1334V50.8667C94.7916 55.1792 94.7916 58.7667 94.3874 61.4917C93.9708 64.3209 92.9999 67.0542 90.3458 68.6959C87.6916 70.3376 84.8124 69.9792 82.0958 69.0917C79.7833 68.3334 77.0083 66.9917 73.7333 65.3584C73.6666 66.4459 73.5791 67.4709 73.4624 68.4376C72.9541 72.7292 71.8916 76.2709 69.4624 79.2209C68.6416 80.2209 67.7249 81.1417 66.7208 81.9667C63.7666 84.3917 60.2333 85.4542 55.9374 85.9667C51.7499 86.4584 46.4624 86.4584 39.7874 86.4584H39.3749C32.6999 86.4584 27.4083 86.4584 23.2249 85.9626C18.9333 85.4542 15.3916 84.3917 12.4416 81.9626C11.4387 81.1408 10.5191 80.2225 9.69577 79.2209C7.27077 76.2667 6.20827 72.7334 5.69577 68.4376C5.2041 64.2501 5.2041 58.9626 5.2041 52.2876V47.7084C5.2041 41.0334 5.2041 35.7417 5.69994 31.5584C6.20827 27.2667 7.27077 23.7251 9.69994 20.7751C10.5217 19.7722 11.44 18.8525 12.4416 18.0292C15.3958 15.6042 18.9291 14.5417 23.2249 14.0292C27.4166 13.5417 32.7083 13.5417 39.3791 13.5417ZM67.7083 52.0834V47.9167C67.7083 40.9917 67.7041 36.0709 67.2583 32.2959C66.8208 28.5917 65.9916 26.4001 64.6333 24.7417C64.071 24.057 63.443 23.429 62.7583 22.8667C61.0999 21.5084 58.9083 20.6792 55.2041 20.2417C51.4291 19.7959 46.5083 19.7917 39.5833 19.7917C32.6583 19.7917 27.7374 19.7959 23.9624 20.2417C20.2583 20.6792 18.0666 21.5084 16.4083 22.8667C15.7234 23.4289 15.0954 24.0569 14.5333 24.7417C13.1749 26.4001 12.3458 28.5917 11.9083 32.2959C11.4624 36.0709 11.4583 40.9917 11.4583 47.9167V52.0834C11.4583 59.0084 11.4624 63.9292 11.9083 67.7042C12.3458 71.4084 13.1749 73.6001 14.5333 75.2584C15.0964 75.9424 15.7243 76.5703 16.4083 77.1334C18.0666 78.4917 20.2583 79.3209 23.9624 79.7584C27.7374 80.2042 32.6583 80.2084 39.5833 80.2084C46.5083 80.2084 51.4291 80.2042 55.2041 79.7584C58.9083 79.3209 61.0999 78.4917 62.7583 77.1334C63.4422 76.5703 64.0701 75.9424 64.6333 75.2584C65.9916 73.6001 66.8208 71.4084 67.2583 67.7042C67.7041 63.9292 67.7083 59.0084 67.7083 52.0834ZM73.9583 58.4876L74.9749 58.9917C79.1208 61.0667 81.9166 62.4542 84.0416 63.1501C86.1208 63.8292 86.7499 63.5667 87.0583 63.3792C87.3666 63.1876 87.8833 62.7417 88.2041 60.5751C88.5333 58.3667 88.5416 55.2417 88.5416 50.6084V49.3917C88.5416 44.7542 88.5333 41.6334 88.2083 39.4251C87.8833 37.2584 87.3666 36.8126 87.0583 36.6209C86.7499 36.4292 86.1208 36.1709 84.0416 36.8501C81.9166 37.5459 79.1249 38.9334 74.9749 41.0084L73.9583 41.5167V58.4876ZM54.2916 33.2084C54.0055 32.9014 53.6605 32.6551 53.2772 32.4843C52.8938 32.3135 52.48 32.2217 52.0604 32.2143C51.6408 32.2069 51.2241 32.2841 50.8349 32.4412C50.4458 32.5984 50.0924 32.8323 49.7956 33.1291C49.4989 33.4258 49.2649 33.7793 49.1078 34.1684C48.9506 34.5575 48.8734 34.9743 48.8808 35.3939C48.8882 35.8135 48.98 36.2273 49.1508 36.6107C49.3216 36.994 49.5679 37.339 49.8749 37.6251C50.4673 38.1771 51.2509 38.4776 52.0604 38.4633C52.87 38.449 53.6425 38.1211 54.215 37.5485C54.7876 36.9759 55.1155 36.2035 55.1298 35.3939C55.1441 34.5843 54.8436 33.8008 54.2916 33.2084ZM45.4583 28.7876C47.2164 27.0294 49.601 26.0417 52.0874 26.0417C53.3186 26.0417 54.5377 26.2842 55.6751 26.7553C56.8125 27.2265 57.846 27.917 58.7166 28.7876C59.5872 29.6581 60.2777 30.6916 60.7489 31.8291C61.22 32.9665 61.4625 34.1856 61.4625 35.4167C61.4625 36.6479 61.22 37.867 60.7489 39.0044C60.2777 40.1419 59.5872 41.1754 58.7166 42.0459C56.9584 43.8041 54.5739 44.7918 52.0874 44.7918C49.601 44.7918 47.2164 43.8041 45.4583 42.0459C43.7001 40.2877 42.7124 37.9032 42.7124 35.4167C42.7124 32.9303 43.7001 30.5457 45.4583 28.7876Z" fill="#212529"/>
</svg>
