<svg width="100" height="100" viewBox="0 0 100 100" fill="none" xmlns="http://www.w3.org/2000/svg">
<path d="M50 91.6668C73.0125 91.6668 91.6666 73.0127 91.6666 50.0002C91.6666 26.9877 73.0125 8.3335 50 8.3335C26.9875 8.3335 8.33331 26.9877 8.33331 50.0002C8.33331 73.0127 26.9875 91.6668 50 91.6668Z" stroke="#212529" stroke-width="8.33333" stroke-linejoin="round"/>
<path d="M35.4167 53.9583C36.5217 53.9583 37.5815 53.5193 38.3629 52.7379C39.1443 51.9565 39.5833 50.8967 39.5833 49.7917C39.5833 48.6866 39.1443 47.6268 38.3629 46.8454C37.5815 46.064 36.5217 45.625 35.4167 45.625C34.3116 45.625 33.2518 46.064 32.4704 46.8454C31.689 47.6268 31.25 48.6866 31.25 49.7917C31.25 50.8967 31.689 51.9565 32.4704 52.7379C33.2518 53.5193 34.3116 53.9583 35.4167 53.9583Z" fill="#212529"/>
<path d="M45.7291 60.1045C47.0853 58.7517 48.1608 57.1442 48.8937 55.3745C49.6266 53.6047 50.0026 51.7075 50 49.792C50.0026 47.8765 49.6266 45.9793 48.8937 44.2095C48.1608 42.4398 47.0853 40.8323 45.7291 39.4795M56.0416 70.4149C58.754 67.7093 60.9049 64.4944 62.3708 60.9549C63.8367 57.4153 64.5886 53.621 64.5833 49.7899C64.5833 41.7357 61.3187 34.4441 56.0416 29.167" stroke="#212529" stroke-width="8.33333" stroke-linecap="round" stroke-linejoin="round"/>
</svg>
