<svg width="29" height="29" viewBox="0 0 29 29" fill="none" xmlns="http://www.w3.org/2000/svg">
<path d="M23.5625 3.625H5.4375C4.9568 3.625 4.49578 3.81596 4.15587 4.15587C3.81596 4.49578 3.625 4.9568 3.625 5.4375V23.5625C3.625 24.0432 3.81596 24.5042 4.15587 24.8441C4.49578 25.184 4.9568 25.375 5.4375 25.375H23.5625C24.0432 25.375 24.5042 25.184 24.8441 24.8441C25.184 24.5042 25.375 24.0432 25.375 23.5625V5.4375C25.375 4.9568 25.184 4.49578 24.8441 4.15587C24.5042 3.81596 24.0432 3.625 23.5625 3.625Z" stroke="#212529" stroke-width="2.41667" stroke-linecap="round" stroke-linejoin="round"/>
<path d="M3.625 9.0625H25.375M19.9375 3.625L16.3125 9.0625M12.6875 3.625L9.0625 9.0625M12.3854 16.9167V13.2542L15.5573 15.0848L18.7292 16.9167L15.5573 18.7479L12.3854 20.5791V16.9167Z" stroke="#212529" stroke-width="2.41667" stroke-linecap="round" stroke-linejoin="round"/>
</svg>
