<svg width="72" height="50" viewBox="0 0 72 50" fill="none" xmlns="http://www.w3.org/2000/svg">
<g clip-path="url(#clip0_820_11)">
<path d="M69.5445 7.79861C69.1366 6.29127 68.341 4.91707 67.2368 3.81286C66.1327 2.70864 64.7585 1.91295 63.2512 1.505C57.7329 0 35.5234 0 35.5234 0C35.5234 0 13.3128 0.0455554 7.79452 1.55056C6.28715 1.95853 4.91297 2.75427 3.8088 3.85853C2.70464 4.96279 1.90902 6.33705 1.50118 7.84444C-0.167985 17.6494 -0.815485 32.59 1.54702 42.0028C1.9549 43.5101 2.75053 44.8843 3.8547 45.9885C4.95886 47.0927 6.33302 47.8884 7.84035 48.2964C13.3587 49.8014 35.5687 49.8014 35.5687 49.8014C35.5687 49.8014 57.7784 49.8014 63.2965 48.2964C64.8038 47.8885 66.1781 47.0928 67.2823 45.9886C68.3865 44.8844 69.1822 43.5102 69.5901 42.0028C71.3506 32.1839 71.8931 17.2525 69.5445 7.79861Z" fill="#FF0000"/>
<path d="M28.4531 35.5718L46.8776 24.9002L28.4531 14.2285V35.5718Z" fill="white"/>
</g>
<defs>
<clipPath id="clip0_820_11">
<rect width="71.12" height="50" fill="white"/>
</clipPath>
</defs>
</svg>
