<svg width="100" height="100" viewBox="0 0 100 100" fill="none" xmlns="http://www.w3.org/2000/svg">
<path d="M16.25 5C13.2663 5 10.4048 6.23682 8.29505 8.43839C6.18526 10.6399 5 13.6259 5 16.7394L5 63.6969C5 66.8104 6.18526 69.7964 8.29505 71.9979C10.4048 74.1995 13.2663 75.4363 16.25 75.4363H30.3125C31.1858 75.4363 32.047 75.6485 32.8281 76.056C33.6091 76.4635 34.2885 77.0552 34.8125 77.7842L45.5 92.6521C46.024 93.3811 46.7034 93.9728 47.4844 94.3803C48.2655 94.7878 49.1267 95 50 95C50.8733 95 51.7345 94.7878 52.5156 94.3803C53.2966 93.9728 53.976 93.3811 54.5 92.6521L65.1875 77.7842C65.7115 77.0552 66.3909 76.4635 67.1719 76.056C67.953 75.6485 68.8142 75.4363 69.6875 75.4363H83.75C86.7337 75.4363 89.5952 74.1995 91.7049 71.9979C93.8147 69.7964 95 66.8104 95 63.6969V16.7394C95 13.6259 93.8147 10.6399 91.7049 8.43839C89.5952 6.23682 86.7337 5 83.75 5H16.25Z" fill="#FA3967"/>
<path d="M32.176 60.414C30.8267 60.414 29.784 60.046 29.048 59.31C28.312 58.5433 27.944 57.47 27.944 56.09V31.48C27.944 30.0693 28.312 28.996 29.048 28.26C29.784 27.524 30.8267 27.156 32.176 27.156C33.556 27.156 34.5987 27.524 35.304 28.26C36.04 28.996 36.408 30.0693 36.408 31.48V40.082H49.794V31.48C49.794 30.0693 50.1467 28.996 50.852 28.26C51.588 27.524 52.646 27.156 54.026 27.156C55.3753 27.156 56.4027 27.524 57.108 28.26C57.844 28.996 58.212 30.0693 58.212 31.48V56.09C58.212 57.47 57.844 58.5433 57.108 59.31C56.4027 60.046 55.3753 60.414 54.026 60.414C52.646 60.414 51.588 60.046 50.852 59.31C50.1467 58.5433 49.794 57.47 49.794 56.09V47.028H36.408V56.09C36.408 57.47 36.0553 58.5433 35.35 59.31C34.6447 60.046 33.5867 60.414 32.176 60.414ZM67.6021 60.414C66.3141 60.414 65.3174 60.0307 64.6121 59.264C63.9068 58.4973 63.5541 57.3933 63.5541 55.952V41.416C63.5541 39.9747 63.9068 38.8707 64.6121 38.104C65.3174 37.3373 66.3141 36.954 67.6021 36.954C68.9208 36.954 69.9328 37.3373 70.6381 38.104C71.3741 38.8707 71.7421 39.9747 71.7421 41.416V55.952C71.7421 57.3933 71.3894 58.4973 70.6841 59.264C69.9788 60.0307 68.9514 60.414 67.6021 60.414ZM67.6021 33.688C66.1608 33.688 65.0414 33.3507 64.2441 32.676C63.4774 32.0013 63.0941 31.02 63.0941 29.732C63.0941 28.4747 63.4774 27.5087 64.2441 26.834C65.0414 26.1593 66.1608 25.822 67.6021 25.822C69.1048 25.822 70.2394 26.1593 71.0061 26.834C71.7728 27.5087 72.1561 28.4747 72.1561 29.732C72.1561 31.02 71.7728 32.0013 71.0061 32.676C70.2394 33.3507 69.1048 33.688 67.6021 33.688Z" fill="white"/>
</svg>
