<svg width="32" height="32" viewBox="0 0 32 32" fill="none" xmlns="http://www.w3.org/2000/svg">
<path d="M15.9991 24C13.9004 24 12.0853 23.2942 10.5537 21.8827C9.02307 20.472 8.17907 18.7333 8.02173 16.6667H3.17773V15.3333H8.02173C8.17907 13.2667 9.02351 11.528 10.5551 10.1173C12.0848 8.70578 13.8995 8 15.9991 8C18.0986 8 19.9137 8.70578 21.4444 10.1173C22.9751 11.5289 23.8191 13.2676 23.9764 15.3333H28.8191V16.6667H23.9764C23.8191 18.7333 22.9746 20.4724 21.4431 21.884C19.9142 23.2947 18.0995 24 15.9991 24ZM15.9991 22.6667C17.8435 22.6667 19.416 22.0164 20.7164 20.716C22.0168 19.4156 22.6666 17.8436 22.6657 16C22.6648 14.1564 22.0146 12.5844 20.7151 11.284C19.4155 9.98356 17.8435 9.33333 15.9991 9.33333C14.1546 9.33333 12.5826 9.98356 11.2831 11.284C9.98351 12.5844 9.33329 14.1564 9.3324 16C9.33151 17.8436 9.98174 19.416 11.2831 20.7173C12.5844 22.0187 14.1564 22.6684 15.9991 22.6667ZM13.3324 20.36H18.6657C19 20.36 19.28 20.2467 19.5057 20.02C19.7315 19.7933 19.8444 19.5133 19.8444 19.18V15.18C19.8444 14.8458 19.7315 14.5658 19.5057 14.34C19.28 14.1133 19 14 18.6657 14H18.5124V12.9547C18.5124 12.2196 18.2737 11.5947 17.7964 11.08C17.3191 10.5644 16.72 10.3067 15.9991 10.3067C15.2995 10.3067 14.7057 10.5529 14.2177 11.0453C13.7297 11.5378 13.4857 12.1293 13.4857 12.82V14H13.3324C12.9982 14 12.7182 14.1129 12.4924 14.3387C12.2666 14.5653 12.1537 14.8453 12.1537 15.1787V19.1787C12.1537 19.5138 12.2666 19.7942 12.4924 20.02C12.7182 20.2458 12.9982 20.3587 13.3324 20.3587M15.9991 18.128C15.744 18.128 15.5222 18.0338 15.3337 17.8453C15.1453 17.6569 15.0506 17.4347 15.0497 17.1787C15.0488 16.9227 15.1435 16.7013 15.3337 16.5147C15.524 16.328 15.7457 16.2333 15.9991 16.2307C16.2524 16.228 16.4742 16.3227 16.6644 16.5147C16.8546 16.7067 16.9493 16.9284 16.9484 17.18C16.9475 17.4316 16.8528 17.6533 16.6644 17.8453C16.476 18.0373 16.2542 18.1316 15.9991 18.128ZM14.5124 14V12.82C14.5124 12.4084 14.6573 12.0578 14.9471 11.768C15.2368 11.4782 15.5875 11.3333 15.9991 11.3333C16.4106 11.3333 16.7617 11.4782 17.0524 11.768C17.3431 12.0578 17.488 12.4089 17.4871 12.8213V14H14.5124Z" fill="white"/>
</svg>
