<svg width="100" height="100" viewBox="0 0 100 100" fill="none" xmlns="http://www.w3.org/2000/svg">
<path d="M36.5419 58.8167H40.7086V50.4834C40.7086 48.7667 41.3197 47.2945 42.5419 46.0667C43.7697 44.8445 45.2419 44.2334 46.9586 44.2334H55.2919V49.6792L62.8211 42.15L55.2878 34.6167V40.0667H46.9544C44.0711 40.0667 41.6141 41.0806 39.5836 43.1083C37.553 45.1361 36.5391 47.5945 36.5419 50.4834V58.8167ZM19.2336 72.7583C17.3141 72.7583 15.7128 72.1153 14.4294 70.8292C13.1461 69.5431 12.503 67.9417 12.5003 66.025V25.3209C12.5003 23.4042 13.1433 21.8028 14.4294 20.5167C15.7155 19.2306 17.3155 18.5889 19.2294 18.5917H80.7711C82.6878 18.5917 84.2878 19.2333 85.5711 20.5167C86.8544 21.8 87.4975 23.4014 87.5003 25.3209V66.0292C87.5003 67.9458 86.8572 69.5459 85.5711 70.8292C84.285 72.1125 82.6836 72.7556 80.7669 72.7583H19.2336ZM7.37109 81.0917V76.925H92.6294V81.0917H7.37109Z" fill="#666666"/>
</svg>
