<svg width="100" height="100" viewBox="0 0 100 100" fill="none" xmlns="http://www.w3.org/2000/svg">
<path d="M88.3008 94.2L75.1924 81.0917H7.37578V76.925H71.0091L66.8424 72.7583H19.2341C17.3147 72.7583 15.7133 72.1153 14.4299 70.8292C13.1466 69.5431 12.5036 67.9417 12.5008 66.025V25.175C12.5008 24.2667 12.7411 23.4528 13.2216 22.7333C13.7022 22.0111 14.3161 21.4361 15.0633 21.0083L5.80078 11.7L8.75078 8.75L91.2508 91.25L88.3008 94.2ZM41.9883 47.8542L38.7091 44.55C38.1508 45.175 37.6494 45.9944 37.2049 47.0083C36.7605 48.025 36.5383 49.1833 36.5383 50.4833V58.8167H40.7049V51.3C40.7049 50.55 40.8119 49.9083 41.0258 49.375C41.2397 48.8417 41.5605 48.3347 41.9883 47.8542ZM83.8466 71.9708L58.5008 46.625L62.8216 42.15L55.2883 34.6167V40.0667H51.9383L30.4674 18.5917H80.7716C82.6883 18.5917 84.2883 19.2333 85.5716 20.5167C86.8549 21.8 87.498 23.4014 87.5008 25.3208V66.0292C87.5008 67.1931 87.2105 68.318 86.6299 69.4042C86.0522 70.4903 85.1244 71.3458 83.8466 71.9708Z" fill="#666666"/>
</svg>
