<svg width="45" height="45" viewBox="0 0 45 45" fill="none" xmlns="http://www.w3.org/2000/svg">
<path d="M30 7.5C30.4973 7.5 30.9742 7.69754 31.3258 8.04918C31.6775 8.40081 31.875 8.87772 31.875 9.375V17.25L41.6494 10.4063C41.7899 10.3077 41.9548 10.2497 42.1261 10.2384C42.2974 10.2272 42.4684 10.2632 42.6207 10.3425C42.7729 10.4218 42.9004 10.5414 42.9893 10.6882C43.0783 10.835 43.1252 11.0034 43.125 11.175V33.825C43.1252 33.9966 43.0783 34.165 42.9893 34.3118C42.9004 34.4586 42.7729 34.5782 42.6207 34.6575C42.4684 34.7368 42.2974 34.7728 42.1261 34.7616C41.9548 34.7503 41.7899 34.6923 41.6494 34.5938L31.875 27.75V35.625C31.875 36.1223 31.6775 36.5992 31.3258 36.9508C30.9742 37.3025 30.4973 37.5 30 37.5H3.75C3.25272 37.5 2.77581 37.3025 2.42417 36.9508C2.07254 36.5992 1.875 36.1223 1.875 35.625V9.375C1.875 8.87772 2.07254 8.40081 2.42417 8.04918C2.77581 7.69754 3.25272 7.5 3.75 7.5H30ZM28.125 11.25H5.625V33.75H28.125V11.25ZM13.875 16.5544C14.0177 16.554 14.1575 16.5943 14.2781 16.6706L22.4438 21.8681C22.5498 21.9359 22.6371 22.0294 22.6976 22.1398C22.758 22.2502 22.7897 22.3741 22.7897 22.5C22.7897 22.6259 22.758 22.7498 22.6976 22.8602C22.6371 22.9706 22.5498 23.0641 22.4438 23.1319L14.2781 28.3312C14.1644 28.4037 14.0332 28.4442 13.8984 28.4484C13.7636 28.4527 13.6301 28.4204 13.5121 28.3552C13.3941 28.2899 13.2958 28.1941 13.2277 28.0776C13.1596 27.9612 13.1241 27.8286 13.125 27.6938V17.3062C13.125 17.1073 13.204 16.9166 13.3447 16.7759C13.4853 16.6353 13.6761 16.5544 13.875 16.5544ZM39.375 16.575L31.875 21.825V23.1712L39.375 28.4212V16.575Z" fill="#8B93B1"/>
</svg>
