<svg width="45" height="45" viewBox="0 0 45 45" fill="none" xmlns="http://www.w3.org/2000/svg">
<path d="M43.1249 13.125C39.8199 12.9431 36.5411 13.8022 33.7499 15.5812C33.0749 14.8125 32.3811 14.0437 31.6499 13.3125L31.1061 12.8062L31.3686 12.5812C32.2855 11.7941 32.939 10.7447 33.2407 9.57453C33.5425 8.40439 33.478 7.16984 33.0561 6.03746C32.4466 4.75905 31.4789 3.68515 30.2707 2.94622C29.0624 2.20729 27.6656 1.83514 26.2499 1.87496V5.62496C26.917 5.61568 27.5745 5.78454 28.1546 6.11414C28.7347 6.44373 29.2163 6.92213 29.5499 7.49996C29.8686 8.24996 29.5499 9.07496 28.6686 9.95621L28.2374 10.35C26.2816 8.72032 24.1345 7.3351 21.8436 6.22496C17.0999 4.08746 14.6624 5.08121 13.4624 6.22496C13.0967 6.5915 12.804 7.02417 12.5999 7.49996L12.2624 8.49371L9.56236 16.6312C11.6999 21.9562 16.8749 31.425 28.1249 35.5125L37.4999 32.4C37.816 32.2823 38.0945 32.0815 38.3061 31.8187L38.6999 31.4812C41.3811 28.7812 39.6561 23.5875 36.0561 18.5437C38.1937 17.2962 40.655 16.7151 43.1249 16.875V13.125ZM36.0186 28.8187H35.9061C34.6124 29.5125 29.2499 27.75 23.1749 21.675C22.5374 21.0375 21.9374 20.4187 21.3936 19.8C21.2061 19.5937 21.0374 19.3687 20.8499 19.1437L19.8561 17.9437L19.3311 17.2125C19.0686 16.8562 18.8061 16.5 18.5811 16.1625C18.3561 15.825 18.2811 15.675 18.1311 15.4312C17.9811 15.1875 17.7186 14.7937 17.5499 14.475C17.3811 14.1562 17.3061 14.025 17.1936 13.7812C17.0811 13.5375 16.8749 13.2562 16.7624 12.9937C16.6499 12.7312 16.5936 12.5625 16.4999 12.3562C16.4061 12.15 16.2936 11.85 16.2186 11.6062C16.1436 11.3625 16.1249 11.25 16.0874 11.0625C16.0499 10.875 15.9749 10.6125 15.9374 10.425C15.9283 10.2751 15.9283 10.1248 15.9374 9.97496C15.9189 9.81298 15.9189 9.64944 15.9374 9.48746L16.1436 8.90621C16.4624 8.56871 17.8499 8.47496 20.3249 9.59996C21.9789 10.3946 23.5439 11.3625 24.9936 12.4875C24.2033 12.8363 23.3606 13.0517 22.4999 13.125V16.875C24.4918 16.7619 26.4246 16.1563 28.1249 15.1125L29.0436 15.975C29.8686 16.7812 30.5999 17.5875 31.2749 18.3562C30.1443 20.284 29.6952 22.536 29.9999 24.75L33.7499 24.0187C33.6231 23.3118 33.6231 22.5881 33.7499 21.8812C36.1686 25.575 36.6186 28.2375 36.0186 28.8187ZM8.24986 20.625L4.06861 33.1875C3.76682 34.1098 3.68759 35.0904 3.83737 36.0492C3.98716 37.008 4.36172 37.9178 4.93044 38.7041C5.49916 39.4905 6.24588 40.131 7.10958 40.5735C7.97328 41.016 8.92942 41.2478 9.89986 41.25C10.5378 41.2438 11.1707 41.1362 11.7749 40.9312L23.9999 36.8625C17.1001 33.3387 11.5617 27.6289 8.24986 20.625Z" fill="#8B93B1"/>
</svg>
