<svg width="45" height="45" viewBox="0 0 45 45" fill="none" xmlns="http://www.w3.org/2000/svg">
<path d="M30.2344 21.0938C30.2344 22.6235 29.7808 24.1188 28.9309 25.3907C28.081 26.6626 26.8731 27.654 25.4598 28.2394C24.0466 28.8248 22.4914 28.9779 20.9911 28.6795C19.4908 28.3811 18.1127 27.6445 17.031 26.5628C15.9493 25.4811 15.2127 24.103 14.9142 22.6027C14.6158 21.1023 14.769 19.5472 15.3544 18.1339C15.9398 16.7207 16.9311 15.5127 18.203 14.6629C19.4749 13.813 20.9703 13.3594 22.5 13.3594C24.5506 13.3617 26.5165 14.1773 27.9665 15.6273C29.4164 17.0773 30.2321 19.0432 30.2344 21.0938ZM40.7813 22.5C40.7813 26.1157 39.7091 29.6502 37.7003 32.6565C35.6915 35.6629 32.8364 38.006 29.4959 39.3897C26.1555 40.7733 22.4797 41.1354 18.9335 40.43C15.3873 39.7246 12.1299 37.9835 9.57321 35.4268C7.01653 32.8701 5.27541 29.6127 4.57003 26.0665C3.86464 22.5203 4.22667 18.8445 5.61034 15.5041C6.994 12.1636 9.33715 9.30847 12.3435 7.2997C15.3498 5.29093 18.8843 4.21875 22.5 4.21875C27.3469 4.22387 31.9939 6.15157 35.4212 9.57886C38.8484 13.0061 40.7761 17.6531 40.7813 22.5ZM37.9688 22.5C37.9665 20.4179 37.5444 18.3577 36.7276 16.4425C35.9109 14.5273 34.7163 12.7965 33.2153 11.3536C31.7143 9.91068 29.9377 8.78529 27.9918 8.04474C26.0459 7.30418 23.9706 6.96366 21.89 7.04355C13.6108 7.36348 7.00841 14.2594 7.03126 22.5439C7.0392 26.3154 8.43016 29.9529 10.9406 32.7674C11.963 31.2845 13.2617 30.0127 14.7656 29.0215C14.8939 28.9368 15.0463 28.8964 15.1996 28.9066C15.3529 28.9168 15.4987 28.9769 15.6147 29.0777C17.5257 30.7307 19.968 31.6404 22.4947 31.6404C25.0215 31.6404 27.4638 30.7307 29.3748 29.0777C29.4907 28.9769 29.6365 28.9168 29.7898 28.9066C29.9432 28.8964 30.0956 28.9368 30.2238 29.0215C31.7296 30.0121 33.0302 31.284 34.0541 32.7674C36.577 29.9426 37.9706 26.2874 37.9688 22.5Z" fill="#8B93B1"/>
</svg>
