<svg width="45" height="45" viewBox="0 0 45 45" fill="none" xmlns="http://www.w3.org/2000/svg">
<path d="M22.5 39.375C24.7161 39.375 26.9104 38.9385 28.9578 38.0905C31.0052 37.2424 32.8654 35.9994 34.4324 34.4324C35.9994 32.8654 37.2424 31.0052 38.0905 28.9578C38.9385 26.9104 39.375 24.7161 39.375 22.5C39.375 20.2839 38.9385 18.0896 38.0905 16.0422C37.2424 13.9948 35.9994 12.1346 34.4324 10.5676C32.8654 9.00058 31.0052 7.75758 28.9578 6.90953C26.9104 6.06148 24.7161 5.625 22.5 5.625C18.0245 5.625 13.7322 7.4029 10.5676 10.5676C7.4029 13.7322 5.625 18.0245 5.625 22.5C5.625 26.9755 7.4029 31.2678 10.5676 34.4324C13.7322 37.5971 18.0245 39.375 22.5 39.375ZM22.5 42.1875C17.2786 42.1875 12.271 40.1133 8.57883 36.4212C4.88671 32.729 2.8125 27.7214 2.8125 22.5C2.8125 17.2786 4.88671 12.271 8.57883 8.57883C12.271 4.88671 17.2786 2.8125 22.5 2.8125C27.7214 2.8125 32.729 4.88671 36.4212 8.57883C40.1133 12.271 42.1875 17.2786 42.1875 22.5C42.1875 27.7214 40.1133 32.729 36.4212 36.4212C32.729 40.1133 27.7214 42.1875 22.5 42.1875Z" fill="#8B93B1"/>
<path d="M31.8994 13.8431C29.7282 18.8381 27.4219 22.5562 24.9863 24.9891C22.5507 27.4247 18.8354 29.7309 13.8432 31.9022C13.7396 31.9479 13.6246 31.9612 13.5132 31.9405C13.4019 31.9198 13.2994 31.8659 13.2192 31.786C13.139 31.7061 13.0848 31.6038 13.0636 31.4926C13.0425 31.3813 13.0554 31.2663 13.1007 31.1625C15.2776 26.1647 17.5838 22.4494 20.0138 20.0166C22.4466 17.5866 26.1619 15.2803 31.1597 13.1034C31.2632 13.0586 31.3778 13.046 31.4886 13.0671C31.5994 13.0882 31.7012 13.1421 31.781 13.2219C31.8607 13.3016 31.9147 13.4035 31.9358 13.5143C31.9569 13.6251 31.9442 13.7396 31.8994 13.8431Z" fill="#8B93B1"/>
</svg>
