<svg width="45" height="45" viewBox="0 0 45 45" fill="none" xmlns="http://www.w3.org/2000/svg">
<path d="M40.7443 32.9289C41.736 30.9129 42.2303 28.6886 42.1857 26.4423C42.1411 24.196 41.5589 21.993 40.4879 20.018C39.4169 18.0429 37.8882 16.3532 36.0299 15.0904C34.1716 13.8276 32.0378 13.0284 29.8072 12.7598C29.0674 11.0353 27.9899 9.47621 26.6382 8.17453C25.2866 6.87285 23.6881 5.85486 21.9369 5.18053C20.1857 4.50621 18.3173 4.18919 16.4417 4.24816C14.5661 4.30712 12.7213 4.74088 11.0159 5.52388C9.31052 6.30687 7.77912 7.42326 6.5119 8.80728C5.24467 10.1913 4.26727 11.8149 3.63727 13.5825C3.00727 15.3502 2.73741 17.226 2.84361 19.0995C2.9498 20.973 3.42989 22.8063 4.25559 24.4914L2.90911 29.2059C2.78895 29.6277 2.78369 30.0739 2.89386 30.4984C3.00403 30.9229 3.22563 31.3102 3.53573 31.6203C3.84583 31.9304 4.23317 32.152 4.65765 32.2622C5.08214 32.3723 5.52835 32.3671 5.95012 32.2469L10.6646 30.9004C12.0872 31.5989 13.6175 32.0523 15.1909 32.2416C15.941 33.9989 17.0413 35.5849 18.4246 36.9028C19.808 38.2208 21.4454 39.2429 23.237 39.907C25.0285 40.5711 26.9366 40.8631 28.8447 40.7653C30.7529 40.6674 32.6211 40.1818 34.3353 39.3379L39.0497 40.6844C39.4715 40.8046 39.9177 40.8098 40.3422 40.6997C40.7667 40.5895 41.154 40.3679 41.4641 40.0578C41.7742 39.7477 41.9958 39.3604 42.106 38.9359C42.2162 38.5114 42.2109 38.0652 42.0907 37.6434L40.7443 32.9289ZM10.8157 27.9895C10.685 27.9895 10.555 28.0072 10.429 28.0422L5.78665 29.3694L7.11379 24.727C7.21326 24.3733 7.17035 23.9948 6.99426 23.6723C5.70124 21.2984 5.30694 18.5381 5.8836 15.8972C6.46027 13.2562 7.96928 10.9115 10.1341 9.29268C12.299 7.67386 14.9747 6.88934 17.6709 7.08289C20.3671 7.27643 22.9033 8.43508 24.8148 10.3465C26.7262 12.2579 27.8849 14.7941 28.0784 17.4904C28.272 20.1866 27.4874 22.8623 25.8686 25.0272C24.2498 27.192 21.9051 28.701 19.2641 29.2777C16.6232 29.8544 13.8629 29.4601 11.489 28.167C11.2832 28.0519 11.0516 27.9908 10.8157 27.9895ZM37.8861 33.1645L39.2132 37.8069L34.5708 36.4797C34.2171 36.3803 33.8386 36.4232 33.5161 36.5993C30.9239 38.0096 27.8816 38.3459 25.0439 37.5359C22.2062 36.7258 19.7999 34.8342 18.3427 32.268C20.2683 32.0675 22.1317 31.4711 23.8159 30.5164C25.5002 29.5617 26.9689 28.2692 28.1301 26.7201C29.2912 25.1709 30.1196 23.3985 30.5634 21.514C31.0072 19.6295 31.0567 17.6737 30.7089 15.7692C32.394 16.1663 33.9647 16.947 35.2987 18.0504C36.6327 19.1538 37.6941 20.5503 38.4001 22.131C39.1062 23.7117 39.4379 25.434 39.3695 27.1639C39.3011 28.8938 38.8343 30.5845 38.0056 32.1045C37.8281 32.4284 37.7852 32.8092 37.8861 33.1645Z" fill="#8B93B1"/>
</svg>
