<svg width="100" height="100" viewBox="0 0 100 100" fill="none" xmlns="http://www.w3.org/2000/svg">
<path d="M50.0001 8.3335C55.4718 8.3335 60.89 9.41124 65.9452 11.5052C71.0004 13.5991 75.5937 16.6683 79.4629 20.5374C87.2769 28.3514 91.6667 38.9495 91.6667 50.0002C91.7032 59.6216 88.3718 68.9524 82.2501 76.3752L90.5834 84.7085C91.1616 85.2944 91.5532 86.0385 91.7089 86.8468C91.8647 87.6551 91.7775 88.4914 91.4584 89.2502C91.1123 89.9999 90.5513 90.6298 89.8465 91.0601C89.1418 91.4904 88.3251 91.7016 87.5001 91.6668H50.0001C38.9494 91.6668 28.3513 87.277 20.5373 79.4629C12.7233 71.6489 8.3334 61.0508 8.3334 50.0002C8.3334 38.9495 12.7233 28.3514 20.5373 20.5374C28.3513 12.7234 38.9494 8.3335 50.0001 8.3335ZM50.0001 83.3335H77.4584L73.5834 79.4585C72.8074 78.6778 72.3718 77.6218 72.3718 76.521C72.3718 75.4202 72.8074 74.3642 73.5834 73.5835C79.0393 68.1337 82.4368 60.9607 83.1972 53.2868C83.9575 45.6129 82.0336 37.9127 77.7533 31.4982C73.4729 25.0837 67.1009 20.3517 59.7229 18.1084C52.3449 15.8651 44.4173 16.2493 37.2908 19.1956C30.1644 22.1419 24.2799 27.468 20.6399 34.2664C17 41.0648 15.8298 48.9149 17.3287 56.4794C18.8276 64.0438 22.903 70.8545 28.8603 75.7512C34.8177 80.6478 42.2886 83.3274 50.0001 83.3335Z" fill="#8B93B1"/>
</svg>
